<svg xmlns="http://www.w3.org/2000/svg" viewBox="0 0 177.588 133.954">
  <title>Eusko Jaurlaritza - Gobierno Vasco</title>
  <g>
    <rect y="64.706" width="177.588" height="69.248" style="fill: #fff"/>
    <rect x="4.069" y="68.775" width="169.45" height="61.11" style="fill: #004a80"/>
    <rect x="3.233" y="108.096" width="171.457" height="1.316" style="fill: #fff"/>
    <g>
      <path d="M54.243,93.139c-3.478,0-5.362,1.915-5.362,5.454s1.884,5.469,5.362,5.469,5.361-1.946,5.361-5.469S57.72,93.139,54.243,93.139Zm0,2.007c1.884,0,2.91,1.195,2.91,3.447s-1.026,3.462-2.91,3.462-2.926-1.21-2.926-3.462S52.358,95.146,54.243,95.146Z" style="fill: #fff;fill-rule: evenodd"/>
      <path d="M147.144,93.218a5.235,5.235,0,0,1-1.272.107h-6.146c-.414,0-.674,0-.8.352l-.659,1.931a7,7,0,0,1,1.808-.276h1.381V101.9a3.437,3.437,0,0,1-.429,1.991h3.339a3.557,3.557,0,0,1-.444-1.991V95.333h1.886c.6,0,.8,0,.935-.551Z" style="fill: #fff;fill-rule: evenodd"/>
      <path d="M149.009,93.332h-.18c-.388,0-.5.169-.623.6l-.492,1.7a5.2,5.2,0,0,1,2.144-.458h2.147l-5.177,8.732c.97-.031,1.939-.046,2.937-.046,2.618,0,4.267.107,4.932.107.513,0,.721-.092.831-.674l.361-1.8a3.914,3.914,0,0,1-1.857.56c-.679,0-1.579-.061-2.673-.061-.277,0-.265.016-.6.031l5.072-8.686Z" style="fill: #fff;fill-rule: evenodd"/>
      <path d="M70.208,98.817V95.386a3.482,3.482,0,0,1,.444-2.057H67.328c-.307,0,0,0-.309-.062A9.931,9.931,0,0,1,66.1,95.3a6.571,6.571,0,0,1,1.608-.322h.04l.009.272-.006,6.441a4.319,4.319,0,0,1-.28,2.049,4.9,4.9,0,0,1-2.153,2.223,2.624,2.624,0,0,0,1.522.612,2.812,2.812,0,0,0,1.751-.945,5.384,5.384,0,0,0,.892-1.1,4.843,4.843,0,0,0,.727-2.906Z" style="fill: #fff;fill-rule: evenodd"/>
      <path d="M117.875,98.649" style="fill: none;fill-rule: evenodd"/>
      <path d="M98.077,98c.153.015.23.031.261.031h.414c1.3,0,1.961-.582,1.961-1.532,0-.935-.643-1.471-1.869-1.471a6.292,6.292,0,0,0-.766.061ZM95.8,95.021a12.961,12.961,0,0,0-1.671.293,9.925,9.925,0,0,0,.919-2.038,4.469,4.469,0,0,0,.9.062h2.262c.311-.008.626-.016.946-.016,2.512,0,3.769,1.256,3.769,3.187a2.9,2.9,0,0,1-1.5,2.712s1.761,4.119,3.757,5.307c-1.059.5-3.66-.743-4.553-2.443l-1.476-2.3a6,6,0,0,1-.761.037h-.322v2.1a3.677,3.677,0,0,0,.46,1.992H95.366a3.493,3.493,0,0,0,.444-1.992V95.329C95.81,95.223,95.808,95.12,95.8,95.021Z" style="fill: #fff;fill-rule: evenodd"/>
      <path d="M126.962,98c.153.015.23.031.26.031h.414c1.3,0,1.961-.582,1.961-1.532,0-.935-.643-1.471-1.869-1.471a6.286,6.286,0,0,0-.766.061Zm-2.273-2.974a12.927,12.927,0,0,0-1.67.293,9.973,9.973,0,0,0,.919-2.038,4.465,4.465,0,0,0,.9.062H127.1c.311-.008.626-.016.946-.016,2.512,0,3.769,1.256,3.769,3.187a2.905,2.905,0,0,1-1.5,2.712s1.761,4.119,3.756,5.307c-1.059.5-3.895-.743-4.788-2.443l-1.476-2.3a2.827,2.827,0,0,1-.527.037h-.321v2.1a3.677,3.677,0,0,0,.459,1.992H124.25a3.5,3.5,0,0,0,.444-1.992V95.329C124.695,95.223,124.692,95.12,124.688,95.021Z" style="fill: #fff;fill-rule: evenodd"/>
      <path d="M13.477,93.326h3.486c.506,0,.705.062.736.459l-.462,1.593A3.546,3.546,0,0,0,15.8,95.2H13.941v2.252h2.332a3.556,3.556,0,0,0,1-.092l-.408,1.976a5.253,5.253,0,0,0-.95-.077h-1.97v2.773H16.6a3.652,3.652,0,0,0,1.5-.214l-.291,1.455c-.123.628-.2.659-.919.659-.567,0-2.031-.077-3.594-.077-.582,0-1.3.016-2.145.046a4.2,4.2,0,0,0,.414-1.991V95.272c0-.089,0-.176,0-.262A12.973,12.973,0,0,0,9.9,95.3a9.976,9.976,0,0,0,.919-2.038,4.468,4.468,0,0,0,.9.061h1.757Z" style="fill: #fff"/>
      <path d="M20.11,93.326h2.742a19.145,19.145,0,0,0-1.21,5.929c0,1.946.8,2.819,2.528,2.819a3.36,3.36,0,0,0,2.236-.689V95.348a3.543,3.543,0,0,0-.444-2.022h3.324a3.557,3.557,0,0,0-.414,2.053V101.4c0,1.073.245,1.762.827,2.114l-2.481.536a1.767,1.767,0,0,1-.521-.7,6,6,0,0,1-2.987.735c-3.018,0-4.473-1.532-4.473-4.688a28.516,28.516,0,0,1,.526-4.362,13.71,13.71,0,0,0-1.475.271,10,10,0,0,0,.919-2.038A4.467,4.467,0,0,0,20.11,93.326Z" style="fill: #fff"/>
      <path d="M47.324,93.54l1.134.828a15.945,15.945,0,0,0-3.079,2.5L43.97,98.3l1.562,1.654a10.819,10.819,0,0,0,3.723,2.7c-1.087.858-1.777,1.379-2.3,1.379-.582,0-1.562-.843-2.987-2.574l-1.517-1.823-.536.475V101.9a3.557,3.557,0,0,0,.444,1.991H39.1a3.5,3.5,0,0,0,.444-1.991V95.333c0-.11,0-.218-.006-.323a13.066,13.066,0,0,0-1.661.292,9.949,9.949,0,0,0,.919-2.038,4.47,4.47,0,0,0,.9.061h2.662a3.516,3.516,0,0,0-.444,2.007v2.7l1.945-2.268c1.379-1.608,2.222-2.451,2.834-2.451A1.094,1.094,0,0,1,47.324,93.54Z" style="fill: #fff"/>
      <path d="M84.242,93.326h2.719a19.158,19.158,0,0,0-1.21,5.929c0,1.946.8,2.819,2.527,2.819a3.363,3.363,0,0,0,2.237-.689V95.348a3.54,3.54,0,0,0-.444-2.022H93.4a3.556,3.556,0,0,0-.414,2.053V101.4c0,1.073.245,1.762.827,2.114l-2.481.536a1.762,1.762,0,0,1-.521-.7,6,6,0,0,1-2.987.735c-3.018,0-4.473-1.532-4.473-4.688a28.486,28.486,0,0,1,.525-4.359,13.868,13.868,0,0,0-1.452.268,9.976,9.976,0,0,0,.919-2.038A4.464,4.464,0,0,0,84.242,93.326Z" style="fill: #fff"/>
      <path d="M108.794,93.5a4.524,4.524,0,0,0-.378,2.019v6.464h2.117a4.065,4.065,0,0,0,1.49-.458l-.31,1.851c-.092.506-.322.582-.827.582-.965,0-2.133-.122-3.879-.122-.475,0-.965.03-1.44.046a2.894,2.894,0,0,0,.414-1.624v-6.74c0-.167,0-.337-.012-.512a13.048,13.048,0,0,0-1.652.291,9.97,9.97,0,0,0,.919-2.038,4.468,4.468,0,0,0,.9.061h2.9Z" style="fill: #fff"/>
      <path d="M37.365,93.69a5.129,5.129,0,0,0-2.659-.5c-2.418,0-3.923,1.392-3.923,2.955,0,2.918,4.4,3.256,4.4,4.836,0,.582-.578,1.141-1.559,1.141a4.377,4.377,0,0,1-2.986-1.077l-.182,1.95v.046c0,.643,1.251,1.026,3.111,1.026,2.689,0,4.223-1.5,4.211-3.227-.017-2.359-1.388-2.551-3-3.492-1.006-.585-1.695-.955-1.581-1.575.089-.481.442-.76,1.237-.76a4.833,4.833,0,0,1,2.357.542Z" style="fill: #fff;fill-rule: evenodd"/>
      <path d="M134.285,93.33a3.613,3.613,0,0,1,.444,2.007v6.572a3.558,3.558,0,0,1-.444,1.992h3.339a3.5,3.5,0,0,1-.444-1.992V95.337a3.552,3.552,0,0,1,.444-2.007Z" style="fill: #fff;fill-rule: evenodd"/>
      <path d="M79.46,100.976a7.6,7.6,0,0,1-.073,2.915h2.788a18.583,18.583,0,0,0-3.263-10.57h-3.86a4.467,4.467,0,0,1-.9-.062,9.978,9.978,0,0,1-.919,2.037,10.278,10.278,0,0,1,2.206-.322H75.7a12.693,12.693,0,0,0-3.508,8.671v.245h2.65a7.07,7.07,0,0,1,.088-3.012l2.317,1.173ZM77.722,95.01a13.545,13.545,0,0,0-2.269,4.075l1.811.931,1.906-.951A12.042,12.042,0,0,0,77.722,95.01Z" style="fill: #fff;fill-rule: evenodd"/>
      <path d="M120.02,100.976a7.587,7.587,0,0,1-.074,2.915h2.788a18.584,18.584,0,0,0-3.263-10.57h-3.86a4.465,4.465,0,0,1-.9-.062,10,10,0,0,1-.919,2.037,10.278,10.278,0,0,1,2.206-.322h.26a12.7,12.7,0,0,0-3.508,8.671v.245h2.65a7.086,7.086,0,0,1,.088-3.012l2.318,1.173Zm-1.738-5.965a13.547,13.547,0,0,0-2.269,4.075l1.811.931,1.906-.951A12.034,12.034,0,0,0,118.282,95.01Z" style="fill: #fff;fill-rule: evenodd"/>
      <path d="M163.9,100.976a7.587,7.587,0,0,1-.073,2.915h2.788a18.583,18.583,0,0,0-3.263-10.57h-3.86a4.472,4.472,0,0,1-.9-.062,9.951,9.951,0,0,1-.919,2.037,10.279,10.279,0,0,1,2.206-.322h.261a12.7,12.7,0,0,0-3.508,8.671v.245h2.65a7.078,7.078,0,0,1,.088-3.012l2.317,1.173Zm-1.738-5.965a13.557,13.557,0,0,0-2.269,4.075l1.811.931,1.906-.951A12.042,12.042,0,0,0,162.164,95.01Z" style="fill: #fff;fill-rule: evenodd"/>
    </g>
    <g>
      <path d="M96.487,113.868c-3.477,0-5.361,1.915-5.361,5.454s1.884,5.469,5.361,5.469,5.362-1.946,5.362-5.469S99.964,113.868,96.487,113.868Zm0,2.007c1.884,0,2.911,1.195,2.911,3.447s-1.026,3.462-2.911,3.462-2.926-1.21-2.926-3.462S94.6,115.875,96.487,115.875Z" style="fill: #fff;fill-rule: evenodd"/>
      <path d="M33.482,113.868c-3.477,0-5.361,1.915-5.361,5.454s1.884,5.469,5.361,5.469,5.362-1.946,5.362-5.469S36.96,113.868,33.482,113.868Zm0,2.007c1.884,0,2.911,1.195,2.911,3.447s-1.026,3.462-2.911,3.462-2.926-1.21-2.926-3.462S31.6,115.875,33.482,115.875Z" style="fill: #fff;fill-rule: evenodd"/>
      <path d="M138.1,114.9a2.351,2.351,0,0,0,.085-.321c0-.4-1.167-.735-2.79-.735-2.419,0-3.923,1.392-3.923,2.955,0,2.918,4.4,3.256,4.4,4.836,0,.582-.578,1.141-1.559,1.141a4.373,4.373,0,0,1-2.985-1.077l-.182,1.95v.046c0,.644,1.251,1.027,3.111,1.027,2.689,0,4.223-1.5,4.211-3.228-.017-2.359-1.388-2.551-3-3.492-1.006-.585-1.694-.955-1.58-1.574.089-.481.442-.76,1.236-.76a4.643,4.643,0,0,1,2.57.674Z" style="fill: #fff;fill-rule: evenodd"/>
      <path d="M112.058,114.037h-2.991a4.468,4.468,0,0,1-.9-.061,9.981,9.981,0,0,1-.919,2.038,10.269,10.269,0,0,1,2.206-.322l.044.016c.617,3.581,4.267,9.084,4.267,9.084h.413l4.484-8.993a8.313,8.313,0,0,1,1.164-1.762h-3.095a2.122,2.122,0,0,1-.229.843l-2.37,5.791C110.868,115.361,112.058,114.037,112.058,114.037Z" style="fill: #fff;fill-rule: evenodd"/>
      <path d="M148.67,114.986a1.775,1.775,0,0,0,.061-.214c0-.337-1.516-.9-3.385-.9-3.278,0-5.254,2.129-5.254,5.5,0,3.447,1.961,5.423,5.346,5.423a5.313,5.313,0,0,0,3.018-.72.756.756,0,0,0,.154-.582v-1.961a4.252,4.252,0,0,1-3,1.164c-1.853,0-3.048-1.21-3.048-3.354,0-2.207,1.164-3.462,3.064-3.462a4.208,4.208,0,0,1,2.5.858Z" style="fill: #fff;fill-rule: evenodd"/>
      <path d="M155.582,113.868c-3.477,0-5.361,1.915-5.361,5.454s1.884,5.469,5.361,5.469,5.362-1.946,5.362-5.469S159.06,113.868,155.582,113.868Zm0,2.007c1.884,0,2.911,1.195,2.911,3.447s-1.026,3.462-2.911,3.462-2.926-1.21-2.926-3.462S153.7,115.875,155.582,115.875Z" style="fill: #fff;fill-rule: evenodd"/>
      <path d="M23.443,122.446a2.441,2.441,0,0,1-1.387.291c-1.641,0-2.778-1.317-2.778-3.4,0-2.191,1.218-3.493,3.33-3.493a4.764,4.764,0,0,1,2.648.827l.488-1.517a.444.444,0,0,0,.048-.169c0-.276,0-.337-.39-.505a7.641,7.641,0,0,0-3.054-.613c-3.493,0-5.7,2.129-5.7,5.423,0,3.432,2.1,5.5,5.572,5.5a9.081,9.081,0,0,0,3.541-.735l0-3.25a3.488,3.488,0,0,1,.444-2.057H23.086a4.5,4.5,0,0,1-.9-.061,10.006,10.006,0,0,1-.919,2.038,10.266,10.266,0,0,1,2.206-.322h.039l.009.272,0,1.659Z" style="fill: #fff;fill-rule: evenodd"/>
      <path d="M44.044,118.249c.276.031.867.046.928.046,1.226,0,1.838-.429,1.838-1.348a1.264,1.264,0,0,0-1.424-1.287,3.321,3.321,0,0,0-1.342.26Zm0,4.581a10.975,10.975,0,0,0,1.173.061c1.134,0,1.808-.582,1.808-1.562s-.628-1.562-1.777-1.562c-.261,0-.928.015-1.2.031Zm-2.3-7.228a12.227,12.227,0,0,0-1.836.307,9.959,9.959,0,0,0,.919-2.038,4.472,4.472,0,0,0,.9.061h1.96c.322-.007,1.707,0,2.5,0a2.665,2.665,0,0,1,2.895,2.665,2.547,2.547,0,0,1-1.256,2.313,2.621,2.621,0,0,1,1.593,2.466c0,1.992-1.486,3.263-4.366,3.263-.72,0-1.909-.077-2.736-.077q-.253,0-.965.046a3.637,3.637,0,0,0,.383-1.716Z" style="fill: #fff"/>
      <path d="M80.579,114.034l.7,0,5.132,7.078v-5.071a3.647,3.647,0,0,0-.444-2.007h3.217a3.577,3.577,0,0,0-.444,2.007v7.078a9.1,9.1,0,0,0,.123,1.486H86.612l-5.454-7.522v5.531a3.625,3.625,0,0,0,.429,1.991H78.371a3.5,3.5,0,0,0,.444-1.991v-6.572c0-.117,0-.229-.006-.338a12.369,12.369,0,0,0-1.8.3,9.954,9.954,0,0,0,.919-2.038,4.461,4.461,0,0,0,.9.062h1.75Z" style="fill: #fff"/>
      <path d="M60.589,114.037h3.486c.505,0,.7.061.735.46l-.462,1.593a3.537,3.537,0,0,0-1.44-.184H61.052v2.252h2.332a3.555,3.555,0,0,0,1-.092l-.408,1.976a5.3,5.3,0,0,0-.95-.076h-1.97v2.772h2.659a3.648,3.648,0,0,0,1.5-.214l-.291,1.455c-.123.628-.2.659-.919.659-.566,0-2.031-.077-3.593-.077-.582,0-1.3.015-2.145.046a4.2,4.2,0,0,0,.413-1.992v-6.633c0-.089,0-.176,0-.262a12.962,12.962,0,0,0-1.664.292,9.946,9.946,0,0,0,.919-2.038,4.5,4.5,0,0,0,.9.061h1.757Z" style="fill: #fff"/>
      <path d="M52,114.04a3.617,3.617,0,0,1,.444,2.007v6.572A3.56,3.56,0,0,1,52,124.61h3.339a3.491,3.491,0,0,1-.444-1.991v-6.572a3.548,3.548,0,0,1,.444-2.007Z" style="fill: #fff;fill-rule: evenodd"/>
      <path d="M70.222,118.72c.153.015.23.03.261.03H70.9c1.3,0,1.961-.582,1.961-1.532,0-.934-.643-1.471-1.869-1.471a6.272,6.272,0,0,0-.766.061Zm-2.274-2.974a12.943,12.943,0,0,0-1.67.293A9.947,9.947,0,0,0,67.2,114a4.5,4.5,0,0,0,.9.061h2.263c.31-.008.626-.015.946-.015,2.512,0,3.768,1.256,3.768,3.187a2.9,2.9,0,0,1-1.5,2.712s1.761,4.119,3.757,5.307c-1.059.5-3.895-.743-4.788-2.443l-1.475-2.3a2.829,2.829,0,0,1-.527.037h-.322v2.1a3.681,3.681,0,0,0,.459,1.991H67.511a3.5,3.5,0,0,0,.444-1.991v-6.588C67.955,115.948,67.953,115.845,67.949,115.746Z" style="fill: #fff;fill-rule: evenodd"/>
      <path d="M126.926,121.7a7.589,7.589,0,0,1-.074,2.915h2.788a18.59,18.59,0,0,0-3.263-10.571h-3.861a4.508,4.508,0,0,1-.9-.061,9.931,9.931,0,0,1-.919,2.037,10.3,10.3,0,0,1,2.206-.321h.26a12.692,12.692,0,0,0-3.508,8.67v.246h2.65a7.07,7.07,0,0,1,.088-3.013l2.317,1.173Zm-1.738-5.966a13.542,13.542,0,0,0-2.269,4.075l1.81.931,1.906-.951A12.04,12.04,0,0,0,125.188,115.736Z" style="fill: #fff;fill-rule: evenodd"/>
    </g>
    <g>
      <g>
        <path d="M119.4,50.391l-.4-.01V66.254l.4,0c.351-.649,1-.712,1.707-.864-.051-1.88,1.367-1.7,1.367-1.7a6.342,6.342,0,0,1,1.117-4.459c-1.017-2.44.661-2.9.661-2.9.153-.762.31-1.008-.2-1.211a.837.837,0,0,0-.762-1.27c.356-1.27-1.791-1.678-1.943-1.119A2.4,2.4,0,0,1,119.4,50.391Z" style="fill: #00a651;stroke: #231f20;stroke-miterlimit: 3.8636900000000005;stroke-width: 0.425201px;fill-rule: evenodd"/>
        <path d="M119.4,64.723l-.4-.006v6.946h.4c3.648,1.092,4.54-1.652,4.54-1.652,2.083-.051,1.8-1.821,1.8-1.821,1.18-.651.528-2.155.528-2.155,1.18-1.362-.612-2.625-.612-2.625.224-.731.535-.524.535-.524a1.619,1.619,0,0,1-.05-.854l-1.2.81c-.711.284-.388-.116-.388-.116a2.43,2.43,0,0,1,.918-2.574C126.9,61.065,127.6,60,127.6,60c2.529.964,2.858-1.979,2.858-1.979,2.785.285,2.389-2.511,2.389-2.511,1.873-.413,2.056-2.139.711-2.358-.1-2.044-2.5-.877-2.6-.013-2.266-1.7-2.618,1.157-2.618,1.157-1.646-.61-3.435,1.452-3.174,2.442a1.808,1.808,0,0,0-.549,2.6,3.872,3.872,0,0,0-.887,3.908c-2.48-.1-2.581,1.58-2.581,1.58A1.2,1.2,0,0,0,119.4,64.723Z" style="fill: #00a651;stroke: #231f20;stroke-miterlimit: 3.8636900000000005;stroke-width: 0.425201px;fill-rule: evenodd"/>
        <path d="M96.368,8.424c-2.156-1.159-1.23-2.667-1.23-2.667-2.451-.456-1.476-3.041-1.476-3.041-2.012-1.744,0-3.4,1.856-1.945C97.441-.93,98.626,2.4,98.626,2.4c2.549-1.141,2.572,2.616,2.572,2.616l1.3-.224c2.695.608.805,1.968.805,1.968a1.118,1.118,0,0,1-.291,1.661l.009.467H96.539Z" style="fill: #00a651;stroke: #231f20;stroke-miterlimit: 3.8636900000000005;stroke-width: 0.425201px;fill-rule: evenodd"/>
        <path d="M105.646,8.448l-.3-.906c-.659-3.157,2.916-2.8,2.916-2.8l1.565.313c2.214-2.1,3.847.447,3.847.447,2.392-1.431,3.533,1.778,3.734,2.941a3.116,3.116,0,0,0-.052.442H105.635Z" style="fill: #00a651;stroke: #231f20;stroke-miterlimit: 3.8636900000000005;stroke-width: 0.425201px;fill-rule: evenodd"/>
        <polygon points="104.782 6.987 104.58 8.891 103.869 8.891 104.122 6.937 104.782 6.987" style="fill: #00a651;stroke: #231f20;stroke-miterlimit: 3.8636900000000005;stroke-width: 0.425201px;fill-rule: evenodd"/>
        <path d="M103.967,6.955l.6.1c1.052.217,2.069-1.863,2.069-1.863l-.587-.146.222-.891c.448-1.961-.84-2.041-.84-2.041-1.326-.411-1.737,1.4-1.737,1.4l-.222.89-.627-.155C102.5,6.531,103.967,6.955,103.967,6.955Z" style="fill: #d1be6b;stroke: #231f20;stroke-miterlimit: 3.8636900000000005;stroke-width: 0.425201px;fill-rule: evenodd"/>
        <path d="M121.959,22.417h0c-.035-.169-.064-.329-.086-.48-.453-3.061,1.909-2.466,1.909-2.466a1.782,1.782,0,0,1,.752-1.478,2.16,2.16,0,0,1,1.656-2.467c1.932.356,1.576,1.525,1.189,2.118,2.115.271.626,2.817.626,2.817a2.408,2.408,0,0,1-.521,3c.939,2.259-.805,3.086-.805,3.086.537,2.93-2.5,3.534-2.5,3.534.044,3.22.8,3.265.8,3.265.183-.883.994-1.133,1.2-1.8-.406-.559.02-1.515.02-1.515,1.625-.762,1.371-3.151,1.371-3.151,1.424-.711,1.114-3.069.859-3.374.559-1.423,1.455-1.179,1.649-.344,2.758-1.832,2.1,1.387,1.743,1.828,1.207,2.236-.407,2.9-.407,2.9a1.98,1.98,0,0,1-1.315,2.381s.3,1.227-1.328,1.38c-.3.61-.508,1.321-2.135.559a3.242,3.242,0,0,0-.965,2.439c-.1,2.439.2,2.986.2,2.986l1.274-1.476c.66.167.693.582.693.582-.6.626-1.252,1.364-1.252,1.364a18.077,18.077,0,0,0-.407,5.692c.357,3.354-1.321,3.05-1.321,3.05.915,1.017-.508,2.033-.508,2.033a14.912,14.912,0,0,1-1.221,1.22c-.335,1.006,1.113,1.2,1.3,1.254.424-1.223.373-2.291,2.157-3.694-.915-1.321.617-2.25.617-2.25s-1.356-1.895-.03-3.3a.734.734,0,0,0-.029-1.141,2.67,2.67,0,0,1,2.329-2.97c-.089-1.655,1.7-1.9,1.7-1.9.715-2.08,2.122-1.242,2.274-.581a1.361,1.361,0,0,1,1.575,2.186c1.727,2.337-.874,4.073-.874,4.073,1.483,1.466-1.209,2.94-1.209,2.94.711,1.017-.1,2.185-2.186,2.287-.872,1.856-3.423,1.153-3.423,1.153-2.907,2.348-1.383,3.814-1.383,3.814l1.256-.778c.2.3.352.552.352.552-1.709,1.307-1.519,2.372-1.519,2.372-.065-.033.476.226.463.491a1.711,1.711,0,0,0-.9.854c-1.022-3.964-2.108-2.781-3.025-4.19-.974,0-2.51-.59-2.622-1.909-.21-.4-.544-.022-.544-.022l-.4-.007V38.263h.4c2.975.022,2.9,2.181,2.9,2.181,1.834,0,1.529,1.321,1.529,1.321,1.932-.1,1.423,2.224,1.423,2.224.453-.782,0-3.627,0-3.627-1.3.246-1.834-1.252-1.834-1.252-1.955-.345-2.415-2.612-2.415-2.612a1.5,1.5,0,0,1-1.611-.446l-.4,0V10.922l.4-.013a3.182,3.182,0,0,1,3.362,3.315c1.565.716,1.655,1.61,1.655,1.61-.564.322-.783.709-.884,1.726a2.084,2.084,0,0,0-.712,1.168C119.89,19.642,121.957,22.414,121.959,22.417Zm-.71,4.29-1.285,1.506c2.814,1.407,3.014,5.024,3.014,5.024,1.3.626.917.372.917.372A7.455,7.455,0,0,1,123.4,29.9,3.027,3.027,0,0,1,121.249,26.707Z" style="fill: #00a651;stroke: #231f20;stroke-miterlimit: 3.8636900000000005;stroke-width: 0.425201px;fill-rule: evenodd"/>
        <path d="M127.178,36.414l.463.311c.794.568,2.408-.782,2.408-.782l-.433-.339.513-.658c1.1-1.463.058-2,.058-2-.95-.832-1.96.519-1.96.519l-.514.657-.462-.361C126.113,35.518,127.178,36.414,127.178,36.414Z" style="fill: #d1be6b;stroke: #231f20;stroke-miterlimit: 3.8636900000000005;stroke-width: 0.425201px;fill-rule: evenodd"/>
        <path d="M127.286,51.3l.306.467c.508.833,2.521.221,2.521.221l-.268-.481.73-.4c1.581-.918.836-1.824.836-1.824-.549-1.137-2.007-.288-2.007-.288l-.73.4-.284-.513C126.656,50.061,127.286,51.3,127.286,51.3Z" style="fill: #d1be6b;stroke: #231f20;stroke-miterlimit: 3.8636900000000005;stroke-width: 0.425201px;fill-rule: evenodd"/>
        <path d="M126.064,62.514l.127.544c.192.957,2.294,1.07,2.294,1.07l-.086-.544.824-.13c1.8-.321,1.409-1.427,1.409-1.427-.127-1.256-1.787-.957-1.787-.957l-.824.131-.091-.579C125.9,61.133,126.064,62.514,126.064,62.514Z" style="fill: #d1be6b;stroke: #231f20;stroke-miterlimit: 3.8636900000000005;stroke-width: 0.425201px;fill-rule: evenodd"/>
      </g>
      <path d="M58.186,50.391l.479-.01V66.254l-.479,0c-.351-.649-.994-.712-1.706-.864.05-1.88-1.368-1.7-1.368-1.7a6.342,6.342,0,0,0-1.117-4.459c1.017-2.44-.661-2.9-.661-2.9-.153-.762-.31-1.008.2-1.211a.837.837,0,0,1,.762-1.27c-.355-1.27,1.791-1.678,1.944-1.119A2.4,2.4,0,0,0,58.186,50.391Z" style="fill: #00a651;stroke: #231f20;stroke-miterlimit: 3.8636900000000005;stroke-width: 0.425201px;fill-rule: evenodd"/>
      <path d="M58.186,64.723l.479-.006v6.946h-.479c-3.648,1.092-4.541-1.652-4.541-1.652-2.083-.051-1.8-1.821-1.8-1.821-1.179-.651-.528-2.155-.528-2.155-1.18-1.362.613-2.625.613-2.625-.224-.731-.535-.524-.535-.524a1.635,1.635,0,0,0,.05-.854l1.2.81c.712.284.389-.116.389-.116a2.43,2.43,0,0,0-.918-2.574c-1.424.916-2.124-.152-2.124-.152-2.529.964-2.859-1.979-2.859-1.979-2.785.285-2.388-2.511-2.388-2.511-1.874-.413-2.057-2.139-.712-2.358.1-2.044,2.5-.877,2.6-.013,2.267-1.7,2.617,1.157,2.617,1.157,1.647-.61,3.437,1.452,3.175,2.442a1.807,1.807,0,0,1,.549,2.6,3.874,3.874,0,0,1,.887,3.908c2.479-.1,2.581,1.58,2.581,1.58A1.2,1.2,0,0,1,58.186,64.723Z" style="fill: #00a651;stroke: #231f20;stroke-miterlimit: 3.8636900000000005;stroke-width: 0.425201px;fill-rule: evenodd"/>
      <path d="M81.22,8.424c2.157-1.159,1.23-2.667,1.23-2.667C84.9,5.3,83.926,2.715,83.926,2.715c2.013-1.744,0-3.4-1.856-1.945C80.147-.93,78.961,2.4,78.961,2.4,76.413,1.261,76.39,5.018,76.39,5.018l-1.3-.224c-2.694.608-.805,1.968-.805,1.968a1.119,1.119,0,0,0,.29,1.661l-.008.467h6.478Z" style="fill: #00a651;stroke: #231f20;stroke-miterlimit: 3.8636900000000005;stroke-width: 0.425201px;fill-rule: evenodd"/>
      <path d="M71.942,8.448l.3-.906c.659-3.157-2.915-2.8-2.915-2.8l-1.565.313c-2.214-2.1-3.846.447-3.846.447-2.392-1.431-3.533,1.778-3.734,2.941a3.1,3.1,0,0,1,.052.442H71.953Z" style="fill: #00a651;stroke: #231f20;stroke-miterlimit: 3.8636900000000005;stroke-width: 0.425201px;fill-rule: evenodd"/>
      <polygon points="72.806 6.987 73.008 8.891 73.719 8.891 73.466 6.937 72.806 6.987" style="fill: #00a651;stroke: #231f20;stroke-miterlimit: 3.86371;stroke-width: 0.388947px;fill-rule: evenodd"/>
      <path d="M73.622,6.955l-.605.1C71.964,7.277,70.948,5.2,70.948,5.2l.587-.146-.222-.891c-.449-1.961.839-2.041.839-2.041,1.326-.411,1.737,1.4,1.737,1.4l.223.89.625-.155C75.092,6.531,73.622,6.955,73.622,6.955Z" style="fill: #d1be6b;stroke: #231f20;stroke-miterlimit: 3.8636900000000005;stroke-width: 0.425201px;fill-rule: evenodd"/>
      <path d="M55.629,22.417h0c.035-.169.064-.329.086-.48.453-3.061-1.909-2.466-1.909-2.466a1.782,1.782,0,0,0-.752-1.478A2.16,2.16,0,0,0,51.4,15.526c-1.932.356-1.576,1.525-1.189,2.118-2.115.271-.626,2.817-.626,2.817a2.409,2.409,0,0,0,.521,3c-.939,2.259.805,3.086.805,3.086-.537,2.93,2.5,3.534,2.5,3.534-.044,3.22-.805,3.265-.805,3.265-.182-.883-.994-1.133-1.2-1.8.406-.559-.018-1.515-.018-1.515-1.627-.762-1.373-3.151-1.373-3.151-1.423-.711-1.113-3.069-.859-3.374-.559-1.423-1.455-1.179-1.648-.344-2.759-1.832-2.1,1.387-1.742,1.828-1.207,2.236.406,2.9.406,2.9a1.98,1.98,0,0,0,1.315,2.381s-.3,1.227,1.327,1.38c.305.61.508,1.321,2.134.559a3.244,3.244,0,0,1,.966,2.439c.1,2.439-.2,2.986-.2,2.986l-1.275-1.476c-.661.167-.693.582-.693.582.6.626,1.252,1.364,1.252,1.364a18.054,18.054,0,0,1,.406,5.692c-.358,3.354,1.321,3.05,1.321,3.05-.915,1.017.509,2.033.509,2.033a14.948,14.948,0,0,0,1.22,1.22c.335,1.006-1.113,1.2-1.3,1.254-.423-1.223-.373-2.291-2.156-3.694.915-1.321-.618-2.25-.618-2.25s1.356-1.895.031-3.3a.733.733,0,0,1,.028-1.141,2.67,2.67,0,0,0-2.328-2.97c.089-1.655-1.7-1.9-1.7-1.9C45.7,34,44.3,34.84,44.145,35.5a1.362,1.362,0,0,0-1.576,2.186c-1.727,2.337.875,4.073.875,4.073-1.484,1.466,1.209,2.94,1.209,2.94-.712,1.017.1,2.185,2.185,2.287.872,1.856,3.423,1.153,3.423,1.153,2.907,2.348,1.382,3.814,1.382,3.814l-1.256-.778c-.2.3-.351.552-.351.552,1.707,1.307,1.518,2.372,1.518,2.372.066-.033-.476.226-.463.491a1.714,1.714,0,0,1,.9.854c1.022-3.964,2.108-2.781,3.025-4.19.974,0,2.51-.59,2.622-1.909.211-.4.544-.022.544-.022l.477-.007V38.263h-.482c-2.974.022-2.9,2.181-2.9,2.181-1.833,0-1.529,1.321-1.529,1.321-1.932-.1-1.423,2.224-1.423,2.224-.453-.782,0-3.627,0-3.627,1.3.246,1.833-1.252,1.833-1.252,1.955-.345,2.416-2.612,2.416-2.612a1.5,1.5,0,0,0,1.612-.446l.476,0V10.922l-.477-.013a3.182,3.182,0,0,0-3.362,3.315c-1.565.716-1.655,1.61-1.655,1.61.564.322.784.709.884,1.726a2.084,2.084,0,0,1,.712,1.168C57.7,19.642,55.632,22.414,55.629,22.417Zm.71,4.29,1.285,1.506c-2.813,1.407-3.014,5.024-3.014,5.024-1.3.626-.915.372-.915.372a7.462,7.462,0,0,0,.492-3.712A3.027,3.027,0,0,0,56.339,26.707Z" style="fill: #00a651;stroke: #231f20;stroke-miterlimit: 3.8636900000000005;stroke-width: 0.425201px;fill-rule: evenodd"/>
      <path d="M50.41,36.414l-.463.311c-.794.568-2.408-.782-2.408-.782l.433-.339-.513-.658c-1.1-1.463-.057-2-.057-2,.95-.832,1.959.519,1.959.519l.514.657.462-.361C51.475,35.518,50.41,36.414,50.41,36.414Z" style="fill: #d1be6b;stroke: #231f20;stroke-miterlimit: 3.8636900000000005;stroke-width: 0.425201px;fill-rule: evenodd"/>
      <path d="M50.3,51.3,50,51.769c-.508.833-2.521.221-2.521.221l.268-.481-.729-.4c-1.582-.918-.837-1.824-.837-1.824.55-1.137,2.007-.288,2.007-.288l.729.4.284-.513C50.932,50.061,50.3,51.3,50.3,51.3Z" style="fill: #d1be6b;stroke: #231f20;stroke-miterlimit: 3.8636900000000005;stroke-width: 0.425201px;fill-rule: evenodd"/>
      <path d="M51.523,62.514l-.126.544c-.192.957-2.294,1.07-2.294,1.07l.087-.544-.825-.13c-1.8-.321-1.409-1.427-1.409-1.427.127-1.256,1.787-.957,1.787-.957l.824.131.092-.579C51.692,61.133,51.523,62.514,51.523,62.514Z" style="fill: #d1be6b;stroke: #231f20;stroke-miterlimit: 3.8636900000000005;stroke-width: 0.425201px;fill-rule: evenodd"/>
      <g>
        <path d="M66.408,81.155s16.046-.165,21.7,5.737l.69.79V42.846H119V8.869H58.665V72.764S59.509,80.158,66.408,81.155Z" style="fill: #d1be6b;fill-rule: evenodd"/>
        <path d="M78.144,59.371c-.467,2.176-3.008,3.009-3.008,3.009v3.5H72.743v-3.5a4.58,4.58,0,0,1-3.055-3.009c-.468,2.176-2.994,3.009-2.994,3.009v3.5H64.3v-3.5a4.581,4.581,0,0,1-3.055-3.009C59.924,53.882,63.4,49.328,63.4,49.328c2.114-3.578,4.145,0,4.145,0a11.743,11.743,0,0,1,2.146,4.586,13.066,13.066,0,0,1,2.151-4.586c2.114-3.578,4.145,0,4.145,0a11.476,11.476,0,0,1,2.084,4.563,13.729,13.729,0,0,1,2.081-4.563c2.114-3.578,4.145,0,4.145,0a12.758,12.758,0,0,1,2.157,10.042c-.468,2.176-3.009,3.009-3.009,3.009v3.5H81.054v-3.5A4.173,4.173,0,0,1,78.144,59.371Z" style="fill: #00a651;fill-rule: evenodd"/>
        <path d="M88.8,65.464s-1.894,1.875-3.847.412a5.23,5.23,0,0,0-5.082,0,2.534,2.534,0,0,1-3.457,0,5.628,5.628,0,0,0-5.285.163A2.413,2.413,0,0,1,68,65.917a5.185,5.185,0,0,0-4.96.081s-1.383,1.179-2.6.417l-1.771-1.009v7.357s.844,7.394,7.744,8.391c0,0,16.046-.165,21.7,5.737l.69.79Z" style="fill: #005b94;fill-rule: evenodd"/>
        <path d="M88.8,71.889s-1.894,1.875-3.847.412a5.228,5.228,0,0,0-5.082,0,2.534,2.534,0,0,1-3.457,0,5.626,5.626,0,0,0-5.285.163A2.412,2.412,0,0,1,68,72.341a5.183,5.183,0,0,0-4.96.081s-1.383,1.179-2.6.417l-1.771-1.015v-2.84l1.771,1.009c1.219.762,2.6-.417,2.6-.417A5.183,5.183,0,0,1,68,69.5a2.412,2.412,0,0,0,3.131.122,5.626,5.626,0,0,1,5.285-.163,2.534,2.534,0,0,0,3.457,0,5.228,5.228,0,0,1,5.082,0c1.952,1.464,3.847-.46,3.847-.46Z" style="fill: #fff;fill-rule: evenodd"/>
        <path d="M59.643,75.957l.792.461c1.219.762,2.6-.417,2.6-.417A5.183,5.183,0,0,1,68,75.92a2.412,2.412,0,0,0,3.131.122,5.627,5.627,0,0,1,5.285-.163,2.534,2.534,0,0,0,3.457,0,5.228,5.228,0,0,1,5.082,0c1.952,1.464,3.847-.461,3.847-.461v2.9s-1.894,1.876-3.847.412a5.228,5.228,0,0,0-5.082,0,2.534,2.534,0,0,1-3.457,0,5.626,5.626,0,0,0-5.285.163A2.413,2.413,0,0,1,68,78.766a5.183,5.183,0,0,0-4.96.081,3.228,3.228,0,0,1-.8.482,5.281,5.281,0,0,1-1.42-1.36A7.4,7.4,0,0,1,59.643,75.957Z" style="fill: #fff;fill-rule: evenodd"/>
        <path d="M88.8,87.682l-.69-.79a13.168,13.168,0,0,0-3.313-2.354A30.337,30.337,0,0,0,79.3,82.616c.353-.186.566-.313.566-.313a5.23,5.23,0,0,1,5.082,0c1.952,1.463,3.847-.461,3.847-.461Z" style="fill: #fff;fill-rule: evenodd"/>
        <path d="M71.588,33.605l.591-.565-.143-.224.438-1.981.305-.021.183-3.4-.345-.163.264-4.839,1.017-1.3a1,1,0,0,1,.731-.528.961.961,0,0,1,1.2.406.705.705,0,0,1,.772.569s.549-.1.65.63c0,0,.772-.04.569.671l-.366.488a.356.356,0,0,0-.02.589l-.122.386s-.162.488-.955.468a.452.452,0,0,0-.509.549l.407,2.155h-.508l.568,4.96.285.183-.143,1.484a.317.317,0,0,1-.224.366L74.71,36.109l-.2-.081-.368.376Z" style="fill: #33a3dc;fill-rule: evenodd"/>
        <polygon points="68.812 23.331 68.812 21.421 69.532 21.421 69.532 22.125 70.38 22.125 70.38 21.421 71.157 21.421 71.157 24.554 70.303 25.19 70.303 28.054 71.071 28.959 71.071 33.218 61.546 33.218 61.546 28.959 62.163 28.054 62.163 25.19 61.309 24.554 61.309 21.421 62.086 21.421 62.086 22.125 62.934 22.125 62.934 21.421 63.654 21.421 63.654 23.431 64.776 23.431 64.776 20.065 65.781 20.065 65.781 20.768 66.685 20.768 66.685 20.065 67.69 20.065 67.69 23.331 68.812 23.331" style="fill: #956338;fill-rule: evenodd"/>
        <rect x="64.273" y="25.73" width="1.084" height="1.587" style="fill: #33a3dc"/>
        <rect x="67.081" y="25.73" width="1.084" height="1.587" style="fill: #33a3dc"/>
        <path d="M65.325,33.218V31.273a1,1,0,1,1,2,0v1.945Z" style="fill: #33a3dc;fill-rule: evenodd"/>
        <polygon points="75.526 37.946 71.229 33.218 61.43 33.218 58.665 35.836 58.665 36.832 75.526 37.946" style="fill: #fff;stroke: #77787b;stroke-miterlimit: 3.86371;stroke-width: 0.24758899999999998px;fill-rule: evenodd"/>
        <polygon points="75.526 37.946 71.229 33.218 61.43 33.218 58.665 35.836 58.665 36.832 75.526 37.946" style="fill: #77787b;fill-rule: evenodd"/>
        <path d="M85.708,85.042a7.063,7.063,0,0,1-4.619,3.4c-2.852.116-3.212-2.114-3.212-2.114a5.575,5.575,0,0,1-3.822,1.585c-2.928-.163-2.522-2.6-2.522-2.6a3.013,3.013,0,0,1-2.928.244,4.5,4.5,0,0,0-3.048-.853,10.21,10.21,0,0,0-3.091.705,1.513,1.513,0,0,1,0-1.3,13.085,13.085,0,0,1,3.619-.746,12.622,12.622,0,0,1,3.008.731,2.42,2.42,0,0,0,2.033-.162,12.97,12.97,0,0,0,1.836-2.4c.575.063.977.1,1.749.233-.47.754-1.837,1.981-1.9,3.038a1.539,1.539,0,0,0,.65,1.464,2.686,2.686,0,0,0,2.724-.386,6.342,6.342,0,0,0,2.277-3.463c.626.139,1.341.311,1.958.482-.54.666-1.717,1.888-1.369,2.9a2.072,2.072,0,0,0,1.85,1.139c1.162.061,2.639-1.4,3.309-2.682C84.216,84.256,85.2,84.741,85.708,85.042Z" style="fill: #00a651;fill-rule: evenodd"/>
        <path d="M91.895,85.042a7.063,7.063,0,0,0,4.619,3.4c2.852.116,3.213-2.114,3.213-2.114a5.574,5.574,0,0,0,3.821,1.585c2.927-.163,2.521-2.6,2.521-2.6a3.012,3.012,0,0,0,2.928.244,4.5,4.5,0,0,1,3.048-.853,10.212,10.212,0,0,1,3.091.705,1.513,1.513,0,0,0,0-1.3,13.085,13.085,0,0,0-3.619-.746,12.622,12.622,0,0,0-3.009.731,2.42,2.42,0,0,1-2.033-.162,13.014,13.014,0,0,1-1.836-2.4c-.575.063-1.139.169-1.748.254.469.754,1.837,1.96,1.9,3.017a1.539,1.539,0,0,1-.651,1.464,2.685,2.685,0,0,1-2.723-.386,6.344,6.344,0,0,1-2.277-3.463c-.626.139-1.341.311-1.958.482.541.666,1.717,1.888,1.369,2.9a2.072,2.072,0,0,1-1.85,1.139c-1.162.061-2.676-1.449-3.347-2.73C93.351,84.208,92.406,84.741,91.895,85.042Z" style="fill: #00a651;fill-rule: evenodd"/>
        <path d="M88.8,87.682l.676-.79c5.654-5.9,21.7-5.737,21.7-5.737,6.9-1,7.829-8.391,7.829-8.391V42.846H88.8Z" style="fill: #ed1c24;fill-rule: evenodd"/>
        <rect x="94.105" y="14.324" width="19.58" height="23.005" style="fill: #fff"/>
        <rect x="94.105" y="14.324" width="19.58" height="23.005" style="fill: #c7c8ca"/>
        <polygon points="102.167 16.882 105.623 16.882 105.623 23.081 111.804 23.062 111.804 26.518 95.987 26.518 95.987 23.062 102.154 23.062 102.167 16.882" style="fill: #fff;fill-rule: evenodd"/>
        <path d="M100.584,29.962h6.79a2.446,2.446,0,0,0,1.749-2.887,2.733,2.733,0,0,0,0-4.432c.365-3.456-3.13-3.09-3.13-3.09a2.668,2.668,0,0,0-4.311,0c-3.5.041-3.049,3.09-3.049,3.09-2.52,2.48,0,4.228,0,4.228C98.593,29.84,100.584,29.962,100.584,29.962Z" style="fill: #00a651;fill-rule: evenodd"/>
        <path d="M102.534,32.7V30.5a1.1,1.1,0,0,0-.671-.545h3.944s-.61.179-.569.545v2.2s-.02.528.711.976h7.737v3.655H94.105V33.674h7.785A1.164,1.164,0,0,0,102.534,32.7Z" style="fill: #956338;fill-rule: evenodd"/>
        <path d="M81.569,23.112l-1.362,0,0,1.139,1.077.083a.95.95,0,0,1,.526,1.262c-.571.975-1.606-.044-1.606-.044l-1.464-1.9-.185,1.158-1.118,0,2.439,3.14-1.935,1.7,1.281,0,0,1.159,1.851-1.358.913,1.018L80.29,33.214c-.388.771.567,1.221.567,1.221L79.186,37.3l1-.161.526,1.017,1.958-3.29-.041-.671.978-1.421,0,1.992c.406.977,1.179.653,1.179.653l-.005,3.136.9-.634.975.767.006-3.936h-.508l.008-8.111,1.024-.873-1.016-.856-.692.69-.009,4.655-1.277-1.71.694-1.95-.65,0,.756-2.027h-.732l.918-1.934-3.6-.007Z" style="fill: #ed1c24;fill-rule: evenodd"/>
        <g>
          <polygon points="89.877 10.71 90.594 9.993 91.751 11.15 92.908 9.993 93.625 10.71 92.468 11.867 93.625 13.024 92.908 13.741 91.751 12.584 90.594 13.741 89.877 13.024 91.034 11.867 89.877 10.71" style="fill: #ed1c24;fill-rule: evenodd"/>
          <polygon points="89.877 24.677 90.594 23.96 91.751 25.117 92.908 23.96 93.625 24.677 92.468 25.834 93.625 26.99 92.908 27.708 91.751 26.551 90.594 27.708 89.877 26.99 91.034 25.834 89.877 24.677" style="fill: #ed1c24;fill-rule: evenodd"/>
          <polygon points="89.877 38.644 90.594 37.927 91.751 39.084 92.908 37.927 93.625 38.644 92.468 39.801 93.625 40.958 92.908 41.675 91.751 40.518 90.594 41.675 89.877 40.958 91.034 39.8 89.877 38.644" style="fill: #ed1c24;fill-rule: evenodd"/>
          <polygon points="114.166 10.71 114.883 9.993 116.04 11.15 117.198 9.993 117.915 10.71 116.758 11.867 117.915 13.024 117.198 13.741 116.04 12.584 114.883 13.741 114.166 13.024 115.323 11.867 114.166 10.71" style="fill: #ed1c24;fill-rule: evenodd"/>
          <polygon points="114.166 24.677 114.883 23.96 116.04 25.117 117.198 23.96 117.915 24.677 116.758 25.834 117.915 26.99 117.198 27.708 116.04 26.551 114.883 27.708 114.166 26.99 115.323 25.834 114.166 24.677" style="fill: #ed1c24;fill-rule: evenodd"/>
          <polygon points="114.166 38.644 114.883 37.927 116.04 39.084 117.198 37.927 117.915 38.644 116.758 39.801 117.915 40.958 117.198 41.675 116.04 40.518 114.883 41.675 114.166 40.958 115.323 39.8 114.166 38.644" style="fill: #ed1c24;fill-rule: evenodd"/>
          <polygon points="102.021 10.71 102.739 9.993 103.896 11.15 105.053 9.993 105.77 10.71 104.614 11.867 105.77 13.024 105.053 13.741 103.896 12.584 102.739 13.741 102.021 13.024 103.179 11.867 102.021 10.71" style="fill: #ed1c24;fill-rule: evenodd"/>
          <polygon points="102.021 38.644 102.739 37.927 103.896 39.084 105.053 37.927 105.77 38.644 104.614 39.801 105.77 40.958 105.053 41.675 103.896 40.518 102.739 41.675 102.021 40.958 103.179 39.8 102.021 38.644" style="fill: #ed1c24;fill-rule: evenodd"/>
        </g>
        <rect x="94.105" y="14.324" width="19.58" height="23.005" style="fill: none;stroke: #231f20;stroke-miterlimit: 3.86371;stroke-width: 0.388947px"/>
        <path d="M58.567,74.064" style="fill: none;stroke: #956338;stroke-miterlimit: 3.86371;stroke-width: 1.55536px;fill-rule: evenodd"/>
        <polygon points="63.457 11.084 62.851 10.791 63.168 11.365 72.72 21.142 71.596 22.334 71.959 22.66 75.359 18.991 74.998 18.618 73.801 19.926 63.457 11.084" style="fill: #33a3dc;fill-rule: evenodd"/>
        <path d="M88.8,71.889s-1.894,1.875-3.847.412a5.228,5.228,0,0,0-5.082,0,2.534,2.534,0,0,1-3.457,0,5.626,5.626,0,0,0-5.285.163A2.412,2.412,0,0,1,68,72.341a5.183,5.183,0,0,0-4.96.081s-1.383,1.179-2.6.417l-1.771-1.015v-2.84l1.771,1.009c1.219.762,2.6-.417,2.6-.417A5.183,5.183,0,0,1,68,69.5a2.412,2.412,0,0,0,3.131.122,5.626,5.626,0,0,1,5.285-.163,2.534,2.534,0,0,0,3.457,0,5.228,5.228,0,0,1,5.082,0c1.952,1.464,3.847-.46,3.847-.46Z" style="fill: #c7c8ca;fill-rule: evenodd"/>
        <polygon points="88.789 42.846 88.789 38.833 58.665 36.827 58.665 42.846 88.789 42.846" style="fill: #00a651;fill-rule: evenodd"/>
        <path d="M59.643,75.957l.792.461c1.219.762,2.6-.417,2.6-.417A5.183,5.183,0,0,1,68,75.92a2.412,2.412,0,0,0,3.131.122,5.627,5.627,0,0,1,5.285-.163,2.534,2.534,0,0,0,3.457,0,5.228,5.228,0,0,1,5.082,0c1.952,1.464,3.847-.461,3.847-.461v2.9s-1.894,1.876-3.847.412a5.228,5.228,0,0,0-5.082,0,2.534,2.534,0,0,1-3.457,0,5.626,5.626,0,0,0-5.285.163A2.413,2.413,0,0,1,68,78.766a5.183,5.183,0,0,0-4.96.081,3.228,3.228,0,0,1-.8.482,5.281,5.281,0,0,1-1.42-1.36A7.4,7.4,0,0,1,59.643,75.957Z" style="fill: #c7c8ca;fill-rule: evenodd"/>
        <path d="M88.8,87.682l-.69-.79a13.168,13.168,0,0,0-3.313-2.354A30.337,30.337,0,0,0,79.3,82.616c.353-.186.566-.313.566-.313a5.23,5.23,0,0,1,5.082,0c1.952,1.463,3.847-.461,3.847-.461Z" style="fill: #c7c8ca;fill-rule: evenodd"/>
        <line x1="58.636" y1="42.85" x2="118.996" y2="42.85" style="fill: none;stroke: #231f20;stroke-miterlimit: 3.86371;stroke-width: 1.55536px"/>
        <line x1="88.79" y1="8.852" x2="88.798" y2="87.623" style="fill: none;stroke: #231f20;stroke-miterlimit: 3.86371;stroke-width: 1.55536px"/>
        <path d="M89.475,86.892c5.654-5.9,21.7-5.737,21.7-5.737,6.9-1,7.829-8.391,7.829-8.391V8.869H58.665V72.764s.844,7.394,7.744,8.391c0,0,16.046-.165,21.7,5.737l.69.79Z" style="fill: none;stroke: #231f20;stroke-miterlimit: 3.86371;stroke-width: 1.55536px;fill-rule: evenodd"/>
      </g>
    </g>
  </g>
</svg>
