<svg id="svg" version="1.1" xmlns="http://www.w3.org/2000/svg" xmlns:xlink="http://www.w3.org/1999/xlink" width="400" height="400" viewBox="0, 0, 400,400"><g id="svgg"><path id="path0" d="M106.726 133.500 C 110.976 133.564,117.816 133.564,121.926 133.499 C 126.037 133.434,122.560 133.381,114.200 133.381 C 105.840 133.382,102.477 133.435,106.726 133.500 M173.100 133.499 C 177.335 133.564,184.265 133.564,188.500 133.499 C 192.735 133.435,189.270 133.382,180.800 133.382 C 172.330 133.382,168.865 133.435,173.100 133.499 M214.814 134.374 C 214.236 135.453,214.236 264.547,214.814 265.626 C 215.465 266.843,312.935 266.843,313.586 265.626 C 314.164 264.547,314.164 135.453,313.586 134.374 C 312.935 133.157,215.465 133.157,214.814 134.374 M97.443 135.433 C 97.092 136.346,97.155 264.110,97.506 264.662 C 97.668 264.916,97.800 235.801,97.800 199.962 C 97.800 164.123,97.774 134.800,97.743 134.800 C 97.711 134.800,97.576 135.085,97.443 135.433 M164.188 159.000 C 164.188 171.980,164.238 177.232,164.300 170.671 C 164.362 164.111,164.361 153.491,164.300 147.071 C 164.238 140.652,164.187 146.020,164.188 159.000 M130.892 159.276 C 130.841 172.188,130.935 182.836,131.100 182.938 C 131.372 183.107,131.368 165.891,131.091 144.200 C 131.032 139.580,130.942 146.364,130.892 159.276 M197.395 200.000 C 197.395 234.870,197.442 249.135,197.500 231.700 C 197.558 214.265,197.558 185.735,197.500 168.300 C 197.442 150.865,197.395 165.130,197.395 200.000 M140.300 183.499 C 144.535 183.564,151.465 183.564,155.700 183.499 C 159.935 183.435,156.470 183.382,148.000 183.382 C 139.530 183.382,136.065 183.435,140.300 183.499 M130.988 240.800 C 130.988 253.890,131.038 259.245,131.100 252.700 C 131.161 246.155,131.161 235.445,131.100 228.900 C 131.038 222.355,130.988 227.710,130.988 240.800 M164.188 241.200 C 164.188 254.290,164.238 259.645,164.300 253.100 C 164.361 246.555,164.361 235.845,164.300 229.300 C 164.238 222.755,164.188 228.110,164.188 241.200 " stroke="none" fill="#04eb63" fill-rule="evenodd"></path><path id="path1" d="M99.200 200.000 L 99.200 265.400 114.200 265.400 L 129.200 265.400 129.200 241.533 C 129.200 215.398,129.110 216.615,131.097 215.785 C 133.101 214.948,161.401 214.934,163.800 215.769 L 165.400 216.325 165.608 240.863 C 165.722 254.358,165.857 265.400,165.908 265.400 C 165.959 265.400,172.750 265.400,181.000 265.400 L 196.000 265.400 196.000 200.000 L 196.000 134.600 181.100 134.600 C 168.243 134.600,166.163 134.682,165.928 135.200 C 165.779 135.530,165.644 146.553,165.628 159.695 L 165.600 183.589 164.151 184.195 C 162.232 184.997,133.737 185.096,131.217 184.310 C 129.091 183.646,129.212 185.200,129.205 158.400 L 129.200 134.600 114.200 134.600 L 99.200 134.600 99.200 200.000 " stroke="none" fill="#fcfcfc" fill-rule="evenodd"></path><path id="path2" d="M98.400 133.992 C 97.334 134.665,97.508 265.451,98.576 266.232 C 99.726 267.073,128.674 267.073,129.824 266.232 C 130.575 265.683,130.603 264.892,130.709 241.472 C 130.809 219.340,130.875 217.257,131.483 217.023 C 132.788 216.523,163.209 216.709,163.826 217.222 C 164.313 217.626,164.400 221.302,164.400 241.449 C 164.400 264.667,164.418 265.218,165.200 266.000 C 165.972 266.772,166.533 266.800,180.971 266.800 C 196.915 266.800,197.194 266.767,197.203 264.871 C 197.405 220.382,197.110 134.573,196.753 134.144 C 195.923 133.144,165.355 133.364,164.814 134.374 C 164.542 134.882,164.400 143.233,164.400 158.712 C 164.400 181.032,164.361 182.311,163.669 182.938 C 162.707 183.808,132.635 183.959,131.481 183.100 C 130.868 182.643,130.801 180.522,130.705 158.485 C 130.614 137.563,130.521 134.320,130.000 133.991 C 129.202 133.487,99.198 133.487,98.400 133.992 M129.205 158.400 C 129.212 185.200,129.091 183.646,131.217 184.310 C 133.737 185.096,162.232 184.997,164.151 184.195 L 165.600 183.589 165.628 159.695 C 165.644 146.553,165.779 135.530,165.928 135.200 C 166.163 134.682,168.243 134.600,181.100 134.600 L 196.000 134.600 196.000 200.000 L 196.000 265.400 181.000 265.400 C 172.750 265.400,165.959 265.400,165.908 265.400 C 165.857 265.400,165.722 254.358,165.608 240.863 L 165.400 216.325 163.800 215.769 C 161.401 214.934,133.101 214.948,131.097 215.785 C 129.110 216.615,129.200 215.398,129.200 241.533 L 129.200 265.400 114.200 265.400 L 99.200 265.400 99.200 200.000 L 99.200 134.600 114.200 134.600 L 129.200 134.600 129.205 158.400 " stroke="none" fill="#ececec" fill-rule="evenodd"></path><path id="path3" d="M99.200 132.400 C 98.870 132.594,98.130 132.850,97.555 132.970 C 95.968 133.301,95.998 131.963,96.023 200.356 C 96.049 270.440,95.925 266.641,98.200 267.432 C 100.399 268.196,128.282 268.198,130.399 267.434 C 132.375 266.721,132.359 266.939,132.368 240.846 C 132.376 216.831,132.352 217.342,133.463 217.769 C 134.315 218.096,161.178 218.156,161.502 217.831 C 162.754 216.579,162.800 217.419,162.800 241.724 C 162.800 268.000,162.684 266.727,165.160 267.549 C 167.294 268.257,194.920 268.155,197.000 267.431 L 198.600 266.874 198.701 200.380 C 198.808 130.248,198.873 132.800,196.975 132.800 C 196.465 132.800,195.936 132.620,195.800 132.400 C 195.351 131.674,167.348 131.890,165.204 132.637 C 162.665 133.521,162.813 131.926,162.806 158.500 C 162.801 179.195,162.716 182.800,162.233 182.800 C 161.922 182.800,161.606 182.617,161.531 182.394 C 161.324 181.773,134.106 181.814,133.357 182.436 C 132.380 183.246,132.375 183.124,132.393 159.751 C 132.413 134.055,132.369 133.288,130.845 132.970 C 130.270 132.850,129.487 132.583,129.105 132.376 C 128.222 131.898,100.016 131.920,99.200 132.400 M213.873 133.300 C 213.250 133.758,212.981 186.236,213.197 265.320 C 213.203 267.688,211.233 267.600,264.200 267.600 C 317.559 267.600,314.926 267.727,315.391 265.130 C 316.137 260.962,315.398 133.934,314.624 133.368 C 313.539 132.575,214.950 132.508,213.873 133.300 M130.056 133.964 L 131.000 134.729 131.107 158.664 C 131.194 178.015,131.316 182.677,131.746 183.000 C 132.091 183.259,137.837 183.329,148.039 183.200 L 163.800 183.000 164.000 158.668 C 164.193 135.165,164.226 134.316,164.976 133.768 C 166.127 132.927,195.474 132.927,196.624 133.768 C 197.611 134.490,198.063 263.673,197.084 265.600 L 196.577 266.600 181.171 266.705 C 168.321 266.792,165.636 266.714,164.983 266.237 C 164.223 265.681,164.197 264.959,164.091 241.438 L 163.982 217.211 163.091 216.994 C 162.601 216.875,155.270 216.827,146.800 216.889 L 131.400 217.000 131.189 241.200 C 131.073 254.510,130.938 265.432,130.889 265.471 C 130.840 265.511,130.517 265.826,130.171 266.171 C 129.622 266.721,127.612 266.800,114.166 266.800 L 98.788 266.800 97.996 265.500 C 96.922 263.739,96.724 136.881,97.792 134.816 C 98.628 133.200,97.936 133.266,114.256 133.232 C 128.311 133.202,129.162 133.241,130.056 133.964 M313.586 134.374 C 314.164 135.453,314.164 264.547,313.586 265.626 C 312.935 266.843,215.465 266.843,214.814 265.626 C 214.236 264.547,214.236 135.453,214.814 134.374 C 215.465 133.157,312.935 133.157,313.586 134.374 " stroke="none" fill="#1c242c" fill-rule="evenodd"></path><path id="path4" d="M0.000 200.000 L 0.000 400.000 200.000 400.000 L 400.000 400.000 400.000 200.000 L 400.000 0.000 200.000 0.000 L 0.000 0.000 0.000 200.000 M129.105 132.376 C 129.487 132.583,130.270 132.850,130.845 132.970 C 132.369 133.288,132.413 134.055,132.393 159.751 C 132.375 183.124,132.380 183.246,133.357 182.436 C 134.106 181.814,161.324 181.773,161.531 182.394 C 161.606 182.617,161.922 182.800,162.233 182.800 C 162.716 182.800,162.801 179.195,162.806 158.500 C 162.813 131.926,162.665 133.521,165.204 132.637 C 167.348 131.890,195.351 131.674,195.800 132.400 C 195.936 132.620,196.465 132.800,196.975 132.800 C 198.873 132.800,198.808 130.248,198.701 200.380 L 198.600 266.874 197.000 267.431 C 194.920 268.155,167.294 268.257,165.160 267.549 C 162.684 266.727,162.800 268.000,162.800 241.724 C 162.800 217.419,162.754 216.579,161.502 217.831 C 161.178 218.156,134.315 218.096,133.463 217.769 C 132.352 217.342,132.376 216.831,132.368 240.846 C 132.359 266.939,132.375 266.721,130.399 267.434 C 128.282 268.198,100.399 268.196,98.200 267.432 C 95.925 266.641,96.049 270.440,96.023 200.356 C 95.998 131.963,95.968 133.301,97.555 132.970 C 98.130 132.850,98.870 132.594,99.200 132.400 C 100.016 131.920,128.222 131.898,129.105 132.376 M314.624 133.368 C 315.398 133.934,316.137 260.962,315.391 265.130 C 314.926 267.727,317.559 267.600,264.200 267.600 C 211.233 267.600,213.203 267.688,213.197 265.320 C 212.981 186.236,213.250 133.758,213.873 133.300 C 214.950 132.508,313.539 132.575,314.624 133.368 " stroke="none" fill="#040b1b" fill-rule="evenodd"></path></g></svg>