<?xml version="1.0" standalone="no"?>
<!DOCTYPE svg PUBLIC "-//W3C//DTD SVG 20010904//EN"
 "http://www.w3.org/TR/2001/REC-SVG-20010904/DTD/svg10.dtd">
<svg version="1.0" xmlns="http://www.w3.org/2000/svg"
 width="348.000000pt" height="267.000000pt" viewBox="0 0 348.000000 267.000000"
 preserveAspectRatio="xMidYMid meet">
<metadata>
Created by potrace 1.16, written by Peter Selinger 2001-2019
</metadata>
<g transform="translate(0.000000,267.000000) scale(0.100000,-0.100000)"
fill="#000000" stroke="none">
<path d="M793 2298 c-14 -18 3 -734 18 -770 14 -35 23 -37 148 -44 58 -3 121
-7 139 -10 l32 -5 0 -104 0 -103 38 -29 c81 -63 94 -68 182 -73 l85 -5 9 -177
9 -178 266 0 c146 0 271 4 277 8 29 19 34 56 34 236 0 231 -8 220 172 230 68
3 167 9 221 13 l98 6 30 51 c21 37 29 64 29 101 0 56 5 67 37 84 18 9 38 8 93
-5 65 -14 74 -14 120 1 84 28 80 11 80 325 0 256 -1 280 -17 288 -10 5 -65 15
-123 22 l-105 13 -49 49 -49 48 -178 0 -178 0 -6 -55 c-11 -87 -3 -103 53
-110 112 -15 192 -37 203 -56 14 -26 32 -185 25 -215 -6 -22 -11 -24 -75 -24
-77 0 -81 3 -81 74 0 55 -16 77 -55 72 -16 -2 -52 -4 -79 -5 l-49 -1 7 -122
c4 -68 9 -138 13 -155 l5 -33 74 0 74 0 0 -79 0 -78 -47 -7 c-26 -3 -90 -9
-143 -12 l-97 -7 -6 33 c-4 18 -7 54 -7 81 0 29 -6 53 -15 63 -19 18 -101 29
-230 30 l-100 1 -3 -76 -3 -77 61 -7 c33 -4 67 -14 75 -22 20 -19 22 -327 3
-340 -16 -10 -117 -4 -140 8 -15 8 -18 24 -18 88 0 51 -4 82 -12 89 -7 5 -71
12 -142 14 -149 5 -156 9 -156 95 0 49 2 53 28 59 15 3 45 11 67 18 40 13 40
13 43 69 4 77 -13 141 -36 132 -9 -3 -46 -9 -82 -11 -54 -5 -71 -2 -98 15 -18
12 -35 27 -38 34 -2 7 20 65 51 129 l55 117 48 -14 c51 -16 72 -36 72 -70 0
-19 10 -24 76 -39 42 -9 78 -15 79 -14 14 14 35 126 35 180 l0 68 -37 16 c-21
9 -90 20 -153 25 -171 14 -159 8 -162 87 l-3 67 -241 3 c-186 2 -244 -1 -251
-10z"/>
<path d="M80 357 c0 -159 2 -176 23 -217 32 -64 90 -93 174 -87 78 6 125 33
152 91 19 38 21 61 21 214 l0 172 -30 0 -30 0 0 -160 c0 -173 -9 -214 -51
-244 -34 -24 -119 -21 -152 4 -38 30 -47 77 -47 248 l0 152 -30 0 -30 0 0
-173z"/>
<path d="M550 295 l0 -235 30 0 30 0 0 100 0 100 90 0 c107 0 151 15 180 62
25 41 26 109 3 149 -29 48 -66 59 -207 59 l-126 0 0 -235z m271 156 c25 -31
24 -74 -3 -106 -21 -23 -30 -25 -113 -27 l-90 -3 -3 69 c-4 101 -7 99 99 94
81 -3 93 -6 110 -27z"/>
<path d="M960 478 c10 -29 48 -134 84 -232 36 -99 66 -181 66 -183 0 -2 15 -3
33 -3 l33 0 86 236 86 235 -36 -3 -35 -3 -65 -193 c-35 -107 -68 -190 -72
-185 -4 4 -35 92 -70 196 l-62 187 -33 0 -34 0 19 -52z"/>
<path d="M2160 295 l0 -235 170 0 170 0 0 30 0 30 -140 0 -140 0 0 80 0 80
130 0 130 0 0 25 0 25 -130 0 -130 0 0 75 0 75 140 0 140 0 0 25 0 25 -170 0
-170 0 0 -235z"/>
<path d="M2580 295 l0 -235 30 0 30 0 0 110 0 110 125 0 125 0 0 -110 0 -110
30 0 30 0 0 235 0 235 -30 0 -30 0 0 -95 0 -95 -125 0 -125 0 0 95 0 95 -30 0
-30 0 0 -235z"/>
<path d="M3050 357 c0 -159 2 -176 23 -217 32 -64 90 -93 173 -87 73 5 117 29
147 77 20 32 22 51 25 218 l4 182 -31 0 -31 0 0 -160 c0 -221 -19 -260 -125
-260 -106 0 -125 39 -125 260 l0 160 -30 0 -30 0 0 -173z"/>
</g>
</svg>
