<svg id="svg" version="1.1" xmlns="http://www.w3.org/2000/svg" xmlns:xlink="http://www.w3.org/1999/xlink" width="400" height="400" viewBox="0, 0, 400,400"><g id="svgg"><path id="path0" d="M61.200 102.974 C 50.523 104.962,44.649 112.068,44.648 123.000 C 44.647 128.337,45.065 130.608,48.182 142.200 C 49.273 146.257,54.446 162.478,55.198 164.200 C 55.390 164.640,55.931 166.170,56.400 167.600 C 56.869 169.030,57.412 170.560,57.606 171.000 C 57.801 171.440,58.227 172.610,58.553 173.600 C 58.880 174.590,59.715 176.930,60.409 178.800 C 61.103 180.670,61.814 182.650,61.988 183.200 C 62.162 183.750,62.763 185.370,63.324 186.800 C 63.885 188.230,65.357 192.100,66.596 195.400 C 70.219 205.056,71.661 208.842,72.308 210.400 C 72.537 210.950,73.301 212.930,74.007 214.800 C 74.712 216.670,75.524 218.740,75.812 219.400 C 76.099 220.060,76.639 221.410,77.011 222.400 C 77.384 223.390,78.029 224.963,78.444 225.896 C 78.860 226.828,79.200 227.746,79.200 227.934 C 79.200 228.123,79.451 228.800,79.757 229.439 C 80.064 230.077,81.523 233.660,83.001 237.400 C 84.478 241.140,85.956 244.830,86.284 245.600 C 86.613 246.370,87.025 247.360,87.200 247.800 C 87.375 248.240,87.792 249.230,88.126 250.000 C 88.459 250.770,89.225 252.660,89.826 254.200 C 90.427 255.740,91.072 257.171,91.260 257.380 C 91.447 257.589,91.600 257.996,91.600 258.284 C 91.600 258.573,91.981 259.662,92.447 260.704 C 93.869 263.890,94.304 264.915,95.190 267.168 C 95.658 268.360,96.373 270.070,96.778 270.968 C 97.562 272.709,100.787 280.395,103.084 286.000 C 103.850 287.870,104.910 290.350,105.438 291.512 C 105.967 292.673,106.400 293.703,106.400 293.800 C 106.400 293.897,106.855 294.972,107.412 296.188 L 108.423 298.400 131.198 298.400 C 152.531 298.400,153.996 298.355,154.349 297.696 C 155.249 296.014,160.438 280.452,167.784 257.400 C 169.467 252.120,171.000 247.350,171.190 246.800 C 171.381 246.250,172.650 242.290,174.010 238.000 C 175.370 233.710,176.626 229.840,176.800 229.400 C 176.975 228.960,177.696 226.710,178.402 224.400 C 179.109 222.090,179.959 219.390,180.291 218.400 C 180.623 217.410,181.036 216.060,181.209 215.400 C 181.382 214.740,183.087 209.160,184.997 203.000 C 189.373 188.894,189.990 186.881,190.391 185.400 C 190.570 184.740,191.029 183.210,191.410 182.000 C 191.791 180.790,192.415 178.810,192.796 177.600 C 193.177 176.390,193.892 174.050,194.386 172.400 C 194.879 170.750,195.444 169.087,195.641 168.705 C 195.838 168.323,196.000 167.643,196.000 167.193 C 196.000 165.316,197.507 165.675,197.997 167.668 C 198.297 168.889,201.950 180.951,203.306 185.200 C 203.622 186.190,204.293 188.350,204.796 190.000 C 205.299 191.650,206.021 193.990,206.400 195.200 C 206.779 196.410,207.499 198.750,208.000 200.400 C 208.501 202.050,209.224 204.390,209.606 205.600 C 209.988 206.810,210.886 209.690,211.601 212.000 C 213.306 217.511,216.613 227.872,217.794 231.400 C 218.309 232.940,219.474 236.540,220.382 239.400 C 221.291 242.260,222.181 244.960,222.362 245.400 C 222.542 245.840,222.906 246.920,223.171 247.800 C 223.436 248.680,223.808 249.760,223.997 250.200 C 224.186 250.640,224.720 252.260,225.184 253.800 C 225.648 255.340,226.181 256.960,226.368 257.400 C 226.556 257.840,226.942 259.010,227.226 260.000 C 227.511 260.990,227.859 261.980,228.000 262.200 C 228.141 262.420,228.500 263.410,228.799 264.400 C 229.588 267.013,236.650 288.105,237.839 291.400 C 238.395 292.940,239.130 295.010,239.472 296.000 C 239.814 296.990,240.298 297.932,240.547 298.094 C 241.400 298.648,285.858 298.459,286.278 297.900 C 286.484 297.625,287.427 295.600,288.374 293.400 C 289.320 291.200,290.523 288.450,291.047 287.288 C 291.571 286.127,292.000 285.090,292.000 284.984 C 292.000 284.878,292.381 283.938,292.847 282.896 C 294.278 279.689,294.706 278.680,295.600 276.400 C 296.426 274.294,296.744 273.535,298.119 270.400 C 298.457 269.630,300.017 265.760,301.587 261.800 C 303.157 257.840,304.687 254.060,304.988 253.400 C 305.288 252.740,305.836 251.390,306.204 250.400 C 306.573 249.410,307.062 248.150,307.291 247.600 C 307.520 247.050,307.863 246.195,308.054 245.700 C 308.244 245.205,308.556 244.395,308.746 243.900 C 308.937 243.405,309.321 242.460,309.600 241.800 C 309.879 241.140,310.263 240.195,310.454 239.700 C 310.784 238.842,311.162 237.890,311.962 235.900 C 312.161 235.405,312.898 233.470,313.600 231.600 C 314.302 229.730,315.025 227.840,315.208 227.400 C 315.640 226.358,319.503 216.222,321.610 210.600 C 322.518 208.180,323.409 205.840,323.591 205.400 C 323.773 204.960,324.317 203.520,324.800 202.200 C 325.828 199.389,326.146 198.555,326.706 197.200 C 326.933 196.650,327.336 195.570,327.600 194.800 C 327.864 194.030,328.224 193.040,328.400 192.600 C 328.576 192.160,328.936 191.170,329.200 190.400 C 329.464 189.630,329.830 188.640,330.012 188.200 C 330.194 187.760,330.785 186.140,331.325 184.600 C 331.865 183.060,333.483 178.560,334.920 174.600 C 338.161 165.670,339.081 163.090,339.842 160.800 C 340.171 159.810,340.599 158.640,340.794 158.200 C 340.988 157.760,341.528 156.230,341.993 154.800 C 342.457 153.370,343.009 151.887,343.219 151.505 C 343.429 151.123,343.600 150.536,343.600 150.200 C 343.600 149.864,343.774 149.277,343.986 148.895 C 344.198 148.513,344.928 146.490,345.608 144.400 C 346.287 142.310,347.009 140.240,347.213 139.800 C 347.687 138.775,354.039 118.064,355.232 113.654 L 356.138 110.307 355.212 109.609 C 345.685 102.423,329.038 100.360,318.856 105.103 C 312.730 107.957,308.078 115.556,304.471 128.600 C 303.287 132.882,299.809 144.889,298.794 148.200 C 298.389 149.520,297.490 152.490,296.795 154.800 C 296.101 157.110,295.206 159.990,294.806 161.200 C 294.406 162.410,293.496 165.290,292.784 167.600 C 292.071 169.910,290.640 174.410,289.604 177.600 C 288.567 180.790,287.255 184.840,286.688 186.600 C 284.901 192.149,278.389 211.364,278.013 212.200 C 277.815 212.640,277.269 214.170,276.800 215.600 C 276.331 217.030,275.791 218.560,275.600 219.000 C 275.409 219.440,274.869 220.970,274.400 222.400 C 273.931 223.830,273.388 225.360,273.194 225.800 C 272.999 226.240,272.556 227.478,272.207 228.551 C 271.859 229.624,270.950 232.189,270.187 234.251 C 269.424 236.313,268.163 239.755,267.385 241.900 C 264.624 249.510,264.433 249.772,263.594 247.100 C 263.301 246.165,262.912 245.229,262.730 245.020 C 262.549 244.811,262.400 244.314,262.400 243.915 C 262.400 243.516,262.223 242.877,262.007 242.495 C 261.589 241.756,253.622 217.829,249.788 205.800 C 248.526 201.840,247.004 197.070,246.406 195.200 C 245.807 193.330,244.730 189.910,244.011 187.600 C 243.292 185.290,242.566 183.040,242.398 182.600 C 242.229 182.160,241.867 180.990,241.592 180.000 C 241.317 179.010,240.774 177.210,240.383 176.000 C 239.365 172.843,236.778 164.476,234.385 156.600 C 233.248 152.860,231.962 148.630,231.526 147.200 C 231.090 145.770,230.584 144.060,230.400 143.400 C 230.216 142.740,229.676 140.940,229.200 139.400 C 228.249 136.325,227.837 134.915,227.270 132.800 C 227.064 132.030,226.630 130.590,226.305 129.600 C 225.981 128.610,225.483 126.990,225.200 126.000 C 224.917 125.010,224.356 123.120,223.955 121.800 C 223.214 119.360,222.266 116.125,221.025 111.800 C 219.843 107.681,219.665 107.382,218.082 106.847 C 217.267 106.572,216.240 106.191,215.800 106.000 C 205.591 101.568,189.144 101.390,183.138 105.647 C 182.554 106.061,181.924 106.403,181.738 106.406 C 181.387 106.412,177.853 110.016,176.800 111.441 C 174.632 114.376,172.131 119.945,170.800 124.800 C 170.529 125.790,170.169 127.050,170.000 127.600 C 169.831 128.150,169.492 129.320,169.247 130.200 C 168.420 133.166,163.941 148.567,162.733 152.600 C 162.073 154.800,161.390 157.140,161.215 157.800 C 161.039 158.460,160.627 159.810,160.300 160.800 C 159.973 161.790,159.306 163.950,158.818 165.600 C 157.422 170.315,157.278 170.785,156.056 174.600 C 155.423 176.580,154.502 179.550,154.011 181.200 C 153.520 182.850,152.427 186.360,151.582 189.000 C 150.737 191.640,149.150 196.680,148.055 200.200 C 146.961 203.720,145.798 207.410,145.472 208.400 C 145.145 209.390,144.482 211.550,143.998 213.200 C 143.515 214.850,142.979 216.560,142.807 217.000 C 142.636 217.440,142.092 219.150,141.600 220.800 C 141.108 222.450,140.568 224.160,140.401 224.600 C 140.234 225.040,138.410 230.530,136.349 236.800 C 133.948 244.101,132.410 248.200,132.071 248.200 C 131.568 248.200,130.603 245.662,126.973 234.800 C 126.201 232.490,125.407 230.240,125.209 229.800 C 124.531 228.297,116.082 203.483,112.542 192.600 C 111.111 188.200,109.774 184.287,109.570 183.905 C 109.367 183.523,109.200 182.936,109.200 182.600 C 109.200 182.264,109.037 181.677,108.837 181.295 C 108.637 180.913,108.175 179.610,107.809 178.400 C 107.443 177.190,105.553 171.160,103.609 165.000 C 101.665 158.840,99.503 151.910,98.804 149.600 C 98.105 147.290,97.212 144.410,96.820 143.200 C 96.428 141.990,95.882 140.190,95.607 139.200 C 95.332 138.210,94.969 136.950,94.800 136.400 C 94.631 135.850,94.271 134.590,94.001 133.600 C 93.730 132.610,93.370 131.440,93.200 131.000 C 93.030 130.560,92.670 129.390,92.399 128.400 C 92.129 127.410,91.769 126.150,91.600 125.600 C 91.431 125.050,91.071 123.790,90.800 122.800 C 90.529 121.810,90.169 120.550,90.000 120.000 C 89.831 119.450,89.471 118.190,89.200 117.200 C 88.929 116.210,88.564 114.950,88.388 114.400 C 88.213 113.850,87.653 111.828,87.145 109.907 C 86.239 106.489,86.185 106.401,84.610 105.764 C 77.351 102.833,67.967 101.714,61.200 102.974 " stroke="none" fill="#fcfbfb" fill-rule="evenodd"></path><path id="path1" d="M0.000 200.000 L 0.000 400.000 200.000 400.000 L 400.000 400.000 400.000 200.000 L 400.000 0.000 200.000 0.000 L 0.000 0.000 0.000 200.000 M76.600 102.635 C 78.140 102.985,79.897 103.366,80.505 103.482 C 81.113 103.597,81.708 103.851,81.829 104.046 C 81.949 104.241,82.399 104.400,82.829 104.400 C 83.259 104.400,83.923 104.567,84.305 104.771 C 84.687 104.975,85.323 105.242,85.718 105.365 C 86.534 105.619,87.600 107.884,87.600 109.364 C 87.600 109.908,87.780 110.464,88.000 110.600 C 88.220 110.736,88.400 111.366,88.400 112.000 C 88.400 112.634,88.580 113.264,88.800 113.400 C 89.020 113.536,89.200 114.029,89.200 114.495 C 89.200 115.396,89.865 117.739,90.449 118.895 C 90.642 119.277,90.800 120.031,90.800 120.571 C 90.800 121.111,90.980 121.664,91.200 121.800 C 91.420 121.936,91.600 122.566,91.600 123.200 C 91.600 123.834,91.780 124.464,92.000 124.600 C 92.220 124.736,92.400 125.366,92.400 126.000 C 92.400 126.634,92.580 127.264,92.800 127.400 C 93.020 127.536,93.200 128.166,93.200 128.800 C 93.200 129.434,93.380 130.064,93.600 130.200 C 93.820 130.336,94.000 130.966,94.000 131.600 C 94.000 132.234,94.180 132.864,94.400 133.000 C 94.620 133.136,94.800 133.599,94.800 134.029 C 94.800 134.459,94.958 135.123,95.151 135.505 C 95.487 136.171,95.673 136.772,96.792 140.800 C 97.066 141.790,97.430 142.960,97.600 143.400 C 97.770 143.840,98.130 145.010,98.400 146.000 C 98.670 146.990,99.026 148.160,99.190 148.600 C 99.509 149.453,99.728 150.165,101.405 155.800 C 101.995 157.780,102.795 160.390,103.183 161.600 C 103.571 162.810,104.472 165.690,105.186 168.000 C 105.899 170.310,106.644 172.513,106.841 172.895 C 107.039 173.277,107.200 173.941,107.200 174.371 C 107.200 174.801,107.380 175.264,107.600 175.400 C 107.820 175.536,108.000 176.166,108.000 176.800 C 108.000 177.434,108.180 178.064,108.400 178.200 C 108.620 178.336,108.800 178.876,108.800 179.400 C 108.800 179.924,108.980 180.464,109.200 180.600 C 109.420 180.736,109.600 181.276,109.600 181.800 C 109.600 182.324,109.780 182.864,110.000 183.000 C 110.220 183.136,110.400 183.676,110.400 184.200 C 110.400 184.724,110.580 185.264,110.800 185.400 C 111.020 185.536,111.200 186.076,111.200 186.600 C 111.200 187.124,111.380 187.664,111.600 187.800 C 111.820 187.936,112.000 188.476,112.000 189.000 C 112.000 189.524,112.180 190.064,112.400 190.200 C 112.620 190.336,112.800 190.876,112.800 191.400 C 112.800 191.924,112.980 192.464,113.200 192.600 C 113.420 192.736,113.600 193.199,113.600 193.629 C 113.600 194.059,113.776 194.723,113.991 195.105 C 114.206 195.487,116.101 201.020,118.202 207.400 C 120.303 213.780,122.197 219.313,122.411 219.695 C 122.625 220.077,122.800 220.741,122.800 221.171 C 122.800 221.601,122.944 222.042,123.121 222.151 C 123.297 222.260,123.693 223.272,124.000 224.400 C 124.307 225.528,124.703 226.540,124.879 226.649 C 125.056 226.758,125.200 227.276,125.200 227.800 C 125.200 228.324,125.380 228.864,125.600 229.000 C 125.820 229.136,126.000 229.676,126.000 230.200 C 126.000 230.724,126.180 231.264,126.400 231.400 C 126.620 231.536,126.800 231.999,126.800 232.429 C 126.800 232.859,126.980 233.568,127.200 234.005 C 127.420 234.442,127.780 235.158,128.000 235.595 C 128.220 236.032,128.400 236.741,128.400 237.171 C 128.400 237.601,128.580 238.064,128.800 238.200 C 129.020 238.336,129.200 238.799,129.200 239.229 C 129.200 239.659,129.371 240.323,129.581 240.705 C 129.791 241.087,130.352 242.570,130.828 244.000 C 131.304 245.430,131.828 246.747,131.992 246.926 C 132.157 247.105,133.593 243.235,135.185 238.326 C 136.776 233.417,138.240 229.087,138.439 228.705 C 138.638 228.323,138.800 227.659,138.800 227.229 C 138.800 226.799,138.980 226.336,139.200 226.200 C 139.420 226.064,139.600 225.524,139.600 225.000 C 139.600 224.476,139.780 223.936,140.000 223.800 C 140.220 223.664,140.400 223.034,140.400 222.400 C 140.400 221.766,140.580 221.136,140.800 221.000 C 141.020 220.864,141.200 220.324,141.200 219.800 C 141.200 219.276,141.380 218.736,141.600 218.600 C 141.820 218.464,142.000 217.924,142.000 217.400 C 142.000 216.876,142.180 216.336,142.400 216.200 C 142.620 216.064,142.800 215.434,142.800 214.800 C 142.800 214.166,142.980 213.536,143.200 213.400 C 143.420 213.264,143.600 212.724,143.600 212.200 C 143.600 211.676,143.780 211.136,144.000 211.000 C 144.220 210.864,144.400 210.324,144.400 209.800 C 144.400 209.276,144.580 208.736,144.800 208.600 C 145.020 208.464,145.200 207.924,145.200 207.400 C 145.200 206.876,145.380 206.336,145.600 206.200 C 145.820 206.064,146.000 205.580,146.000 205.124 C 146.000 204.668,146.516 202.744,147.146 200.847 C 147.776 198.951,148.783 195.780,149.384 193.800 C 149.984 191.820,150.624 189.750,150.806 189.200 C 150.987 188.650,151.709 186.310,152.409 184.000 C 153.109 181.690,153.823 179.440,153.996 179.000 C 154.168 178.560,154.527 177.390,154.793 176.400 C 155.060 175.410,155.440 174.287,155.639 173.905 C 155.838 173.523,156.000 172.859,156.000 172.429 C 156.000 171.999,156.180 171.536,156.400 171.400 C 156.620 171.264,156.800 170.634,156.800 170.000 C 156.800 169.366,156.980 168.736,157.200 168.600 C 157.420 168.464,157.600 167.924,157.600 167.400 C 157.600 166.876,157.780 166.336,158.000 166.200 C 158.220 166.064,158.400 165.434,158.400 164.800 C 158.400 164.166,158.580 163.536,158.800 163.400 C 159.020 163.264,159.200 162.724,159.200 162.200 C 159.200 161.676,159.380 161.136,159.600 161.000 C 159.820 160.864,160.000 160.234,160.000 159.600 C 160.000 158.966,160.180 158.336,160.400 158.200 C 160.620 158.064,160.800 157.434,160.800 156.800 C 160.800 156.166,160.980 155.536,161.200 155.400 C 161.420 155.264,161.600 154.724,161.600 154.200 C 161.600 153.676,161.780 153.136,162.000 153.000 C 162.220 152.864,162.400 152.234,162.400 151.600 C 162.400 150.966,162.559 150.349,162.754 150.229 C 162.949 150.108,163.198 149.513,163.307 148.905 C 163.417 148.297,163.898 146.450,164.377 144.800 C 164.855 143.150,165.398 141.260,165.584 140.600 C 165.770 139.940,166.656 136.790,167.553 133.600 C 168.450 130.410,169.343 127.260,169.538 126.600 C 169.733 125.940,170.117 124.590,170.392 123.600 C 170.666 122.610,171.051 121.395,171.246 120.900 C 171.441 120.405,171.757 119.595,171.949 119.100 C 172.479 117.735,174.162 114.227,174.395 114.000 C 174.509 113.890,174.856 113.305,175.168 112.700 C 175.480 112.095,175.885 111.600,176.068 111.600 C 176.250 111.600,176.401 111.375,176.402 111.100 C 176.414 108.536,183.527 104.052,190.106 102.461 C 192.531 101.874,203.784 101.860,206.294 102.441 C 210.054 103.310,211.411 103.684,212.095 104.039 C 212.477 104.238,213.064 104.400,213.400 104.400 C 213.736 104.400,214.323 104.559,214.705 104.753 C 215.087 104.948,215.850 105.289,216.400 105.513 C 220.512 107.181,220.310 106.944,221.585 111.600 C 221.856 112.590,222.240 113.713,222.439 114.095 C 222.638 114.477,222.800 115.231,222.800 115.771 C 222.800 116.311,222.980 116.864,223.200 117.000 C 223.420 117.136,223.600 117.766,223.600 118.400 C 223.600 119.034,223.780 119.664,224.000 119.800 C 224.220 119.936,224.400 120.566,224.400 121.200 C 224.400 121.834,224.580 122.464,224.800 122.600 C 225.020 122.736,225.200 123.276,225.200 123.800 C 225.200 124.324,225.380 124.864,225.600 125.000 C 225.820 125.136,226.000 125.766,226.000 126.400 C 226.000 127.034,226.180 127.664,226.400 127.800 C 226.620 127.936,226.800 128.566,226.800 129.200 C 226.800 129.834,226.980 130.464,227.200 130.600 C 227.420 130.736,227.600 131.276,227.600 131.800 C 227.600 132.324,227.780 132.864,228.000 133.000 C 228.220 133.136,228.400 133.689,228.400 134.229 C 228.400 134.769,228.562 135.523,228.761 135.905 C 228.960 136.287,229.337 137.410,229.600 138.400 C 229.863 139.390,230.240 140.513,230.439 140.895 C 230.638 141.277,230.800 141.954,230.800 142.400 C 230.800 142.846,230.962 143.523,231.159 143.905 C 231.356 144.287,231.918 145.950,232.407 147.600 C 232.896 149.250,233.441 151.050,233.617 151.600 C 234.166 153.313,235.454 157.638,236.595 161.600 C 237.196 163.690,237.825 165.760,237.992 166.200 C 238.878 168.537,240.000 172.409,240.000 173.129 C 240.000 173.582,240.180 174.064,240.400 174.200 C 240.620 174.336,240.800 174.876,240.800 175.400 C 240.800 175.924,240.980 176.464,241.200 176.600 C 241.420 176.736,241.600 177.276,241.600 177.800 C 241.600 178.324,241.780 178.864,242.000 179.000 C 242.220 179.136,242.400 179.766,242.400 180.400 C 242.400 181.034,242.580 181.664,242.800 181.800 C 243.020 181.936,243.200 182.476,243.200 183.000 C 243.200 183.524,243.380 184.064,243.600 184.200 C 243.820 184.336,244.000 184.876,244.000 185.400 C 244.000 185.924,244.180 186.464,244.400 186.600 C 244.620 186.736,244.800 187.366,244.800 188.000 C 244.800 188.634,244.980 189.264,245.200 189.400 C 245.420 189.536,245.600 190.076,245.600 190.600 C 245.600 191.124,245.780 191.664,246.000 191.800 C 246.220 191.936,246.400 192.399,246.400 192.829 C 246.400 193.259,246.562 193.923,246.759 194.305 C 246.956 194.687,247.518 196.350,248.007 198.000 C 248.495 199.650,249.031 201.360,249.197 201.800 C 249.362 202.240,250.036 204.310,250.693 206.400 C 253.406 215.028,256.511 224.652,256.824 225.400 C 257.008 225.840,257.552 227.460,258.032 229.000 C 258.953 231.954,259.466 233.353,260.047 234.495 C 260.241 234.877,260.400 235.541,260.400 235.971 C 260.400 236.401,260.580 236.864,260.800 237.000 C 261.020 237.136,261.200 237.676,261.200 238.200 C 261.200 238.724,261.380 239.264,261.600 239.400 C 261.820 239.536,262.000 240.051,262.000 240.544 C 262.000 241.037,262.149 241.611,262.330 241.820 C 262.512 242.029,262.911 243.010,263.217 244.000 C 264.574 248.388,264.328 248.669,267.782 238.800 C 268.591 236.490,269.402 234.240,269.586 233.800 C 269.769 233.360,270.136 232.370,270.400 231.600 C 270.982 229.907,271.571 228.440,272.047 227.505 C 272.241 227.123,272.400 226.459,272.400 226.029 C 272.400 225.599,272.580 225.136,272.800 225.000 C 273.020 224.864,273.200 224.401,273.200 223.971 C 273.200 223.541,273.380 222.832,273.600 222.395 C 273.820 221.958,274.180 221.242,274.400 220.805 C 274.620 220.368,274.800 219.659,274.800 219.229 C 274.800 218.799,274.944 218.358,275.121 218.249 C 275.297 218.140,275.693 217.128,276.000 216.000 C 276.307 214.872,276.703 213.860,276.879 213.751 C 277.056 213.642,277.200 213.124,277.200 212.600 C 277.200 212.076,277.380 211.536,277.600 211.400 C 277.820 211.264,278.000 210.713,278.000 210.176 C 278.000 209.639,278.180 209.200,278.400 209.200 C 278.620 209.200,278.800 208.761,278.800 208.224 C 278.800 207.687,278.980 207.136,279.200 207.000 C 279.420 206.864,279.600 206.324,279.600 205.800 C 279.600 205.276,279.780 204.736,280.000 204.600 C 280.220 204.464,280.400 203.924,280.400 203.400 C 280.400 202.876,280.580 202.336,280.800 202.200 C 281.020 202.064,281.200 201.549,281.200 201.056 C 281.200 200.563,281.343 199.989,281.518 199.780 C 281.693 199.571,282.032 198.770,282.271 198.000 C 283.573 193.796,288.141 179.683,288.420 179.000 C 288.600 178.560,288.961 177.480,289.223 176.600 C 289.484 175.720,289.856 174.687,290.049 174.305 C 290.242 173.923,290.400 173.259,290.400 172.829 C 290.400 172.399,290.580 171.936,290.800 171.800 C 291.020 171.664,291.200 171.124,291.200 170.600 C 291.200 170.076,291.380 169.536,291.600 169.400 C 291.820 169.264,292.000 168.634,292.000 168.000 C 292.000 167.366,292.180 166.736,292.400 166.600 C 292.620 166.464,292.800 165.924,292.800 165.400 C 292.800 164.876,292.980 164.336,293.200 164.200 C 293.420 164.064,293.600 163.524,293.600 163.000 C 293.600 162.476,293.780 161.936,294.000 161.800 C 294.220 161.664,294.400 161.124,294.400 160.600 C 294.400 160.076,294.580 159.536,294.800 159.400 C 295.020 159.264,295.200 158.634,295.200 158.000 C 295.200 157.366,295.380 156.736,295.600 156.600 C 295.820 156.464,296.000 155.834,296.000 155.200 C 296.000 154.566,296.180 153.936,296.400 153.800 C 296.620 153.664,296.800 153.143,296.800 152.643 C 296.800 152.143,296.926 151.608,297.079 151.454 C 297.232 151.301,297.692 149.966,298.101 148.488 C 298.509 147.009,298.997 145.260,299.185 144.600 C 299.501 143.487,301.412 136.689,302.445 133.000 C 302.691 132.120,303.031 130.950,303.200 130.400 C 303.369 129.850,303.726 128.590,303.993 127.600 C 304.260 126.610,304.640 125.487,304.839 125.105 C 305.038 124.723,305.200 124.084,305.200 123.685 C 305.200 123.286,305.349 122.789,305.530 122.580 C 305.712 122.371,306.112 121.390,306.419 120.400 C 308.971 112.177,315.316 105.046,321.700 103.227 C 322.525 102.992,323.798 102.620,324.528 102.400 C 326.307 101.864,338.081 101.888,340.154 102.432 C 341.059 102.669,342.520 103.050,343.400 103.277 C 346.064 103.966,349.581 105.560,353.000 107.626 C 354.100 108.291,355.331 108.943,355.735 109.073 C 356.565 109.342,356.513 111.614,355.610 114.600 C 355.343 115.480,355.032 116.787,354.919 117.504 C 354.805 118.221,354.551 118.906,354.356 119.027 C 354.160 119.148,354.000 119.541,354.000 119.901 C 354.000 120.969,348.327 139.212,347.596 140.495 C 347.378 140.877,347.200 141.541,347.200 141.971 C 347.200 142.401,347.020 142.864,346.800 143.000 C 346.580 143.136,346.400 143.676,346.400 144.200 C 346.400 144.724,346.220 145.264,346.000 145.400 C 345.780 145.536,345.600 145.999,345.600 146.429 C 345.600 147.184,345.456 147.574,344.462 149.495 C 344.208 149.987,344.000 150.741,344.000 151.171 C 344.000 151.601,343.820 152.064,343.600 152.200 C 343.380 152.336,343.200 152.799,343.200 153.229 C 343.200 153.659,343.020 154.368,342.800 154.805 C 342.580 155.242,342.220 155.958,342.000 156.395 C 341.780 156.832,341.600 157.464,341.600 157.800 C 341.600 158.136,341.420 158.768,341.200 159.205 C 340.980 159.642,340.620 160.358,340.400 160.795 C 340.180 161.232,340.000 161.941,340.000 162.371 C 340.000 162.801,339.820 163.264,339.600 163.400 C 339.380 163.536,339.200 163.999,339.200 164.429 C 339.200 164.859,339.026 165.523,338.813 165.905 C 338.600 166.287,338.161 167.410,337.837 168.400 C 337.514 169.390,336.599 172.000,335.805 174.200 C 335.011 176.400,334.090 179.010,333.760 180.000 C 333.430 180.990,333.006 182.160,332.819 182.600 C 332.631 183.040,332.083 184.480,331.600 185.800 C 331.117 187.120,330.578 188.560,330.401 189.000 C 330.225 189.440,329.864 190.430,329.600 191.200 C 329.018 192.893,328.429 194.360,327.953 195.295 C 327.759 195.677,327.600 196.264,327.600 196.600 C 327.600 196.936,327.441 197.523,327.247 197.905 C 326.883 198.621,326.189 200.246,325.500 202.000 C 325.284 202.550,324.948 203.313,324.753 203.695 C 324.559 204.077,324.400 204.664,324.400 205.000 C 324.400 205.336,324.241 205.923,324.047 206.305 C 323.852 206.687,323.471 207.540,323.200 208.200 C 322.929 208.860,322.548 209.713,322.353 210.095 C 322.159 210.477,322.000 211.141,322.000 211.571 C 322.000 212.001,321.820 212.464,321.600 212.600 C 321.380 212.736,321.200 213.109,321.200 213.428 C 321.200 213.747,320.859 214.772,320.443 215.704 C 319.493 217.832,316.800 224.942,316.800 225.324 C 316.800 225.481,316.461 226.372,316.046 227.304 C 315.631 228.237,314.891 230.080,314.400 231.400 C 313.909 232.720,313.169 234.563,312.754 235.496 C 312.339 236.428,312.000 237.376,312.000 237.601 C 312.000 237.826,311.841 238.323,311.647 238.705 C 311.316 239.355,310.979 240.153,310.000 242.600 C 309.780 243.150,309.420 244.050,309.200 244.600 C 308.980 245.150,308.644 246.005,308.454 246.500 C 308.263 246.995,307.903 247.895,307.654 248.500 C 307.404 249.105,307.044 250.005,306.854 250.500 C 306.663 250.995,306.279 251.940,306.000 252.600 C 305.439 253.928,304.853 255.380,304.387 256.600 C 304.219 257.040,303.810 258.030,303.478 258.800 C 303.145 259.570,302.228 261.882,301.438 263.937 C 300.648 265.992,299.714 268.332,299.360 269.137 C 299.007 269.942,298.557 271.005,298.359 271.500 C 298.162 271.995,297.838 272.805,297.641 273.300 C 297.443 273.795,296.993 274.875,296.641 275.700 C 296.288 276.525,295.712 277.875,295.359 278.700 C 295.007 279.525,294.580 280.560,294.410 281.000 C 294.022 282.006,292.430 285.571,291.956 286.495 C 291.760 286.877,291.600 287.462,291.600 287.795 C 291.600 288.128,291.420 288.400,291.200 288.400 C 290.980 288.400,290.800 288.672,290.800 289.005 C 290.800 289.338,290.640 289.923,290.444 290.305 C 289.957 291.255,288.377 294.798,287.949 295.900 C 287.757 296.395,287.390 297.250,287.132 297.800 L 286.665 298.800 263.351 298.800 L 240.038 298.800 239.378 297.300 C 238.266 294.770,238.081 294.288,237.200 291.600 C 236.731 290.170,236.191 288.640,235.999 288.200 C 235.808 287.760,234.630 284.250,233.382 280.400 C 232.133 276.550,230.952 273.087,230.756 272.705 C 230.560 272.323,230.400 271.684,230.400 271.285 C 230.400 270.886,230.251 270.389,230.070 270.180 C 229.888 269.971,229.510 268.990,229.231 268.000 C 228.951 267.010,228.560 265.887,228.361 265.505 C 228.162 265.123,228.000 264.459,228.000 264.029 C 228.000 263.599,227.820 263.136,227.600 263.000 C 227.380 262.864,227.200 262.324,227.200 261.800 C 227.200 261.276,227.020 260.736,226.800 260.600 C 226.580 260.464,226.400 259.924,226.400 259.400 C 226.400 258.876,226.220 258.336,226.000 258.200 C 225.780 258.064,225.600 257.524,225.600 257.000 C 225.600 256.476,225.420 255.936,225.200 255.800 C 224.980 255.664,224.800 255.124,224.800 254.600 C 224.800 254.076,224.620 253.536,224.400 253.400 C 224.180 253.264,224.000 252.801,224.000 252.371 C 224.000 251.941,223.822 251.277,223.604 250.895 C 223.201 250.189,220.357 241.612,216.211 228.600 C 214.949 224.640,213.776 221.040,213.604 220.600 C 213.432 220.160,213.073 218.990,212.807 218.000 C 212.540 217.010,212.160 215.887,211.961 215.505 C 211.762 215.123,211.600 214.459,211.600 214.029 C 211.600 213.599,211.420 213.136,211.200 213.000 C 210.980 212.864,210.800 212.234,210.800 211.600 C 210.800 210.966,210.620 210.336,210.400 210.200 C 210.180 210.064,210.000 209.524,210.000 209.000 C 210.000 208.476,209.820 207.936,209.600 207.800 C 209.380 207.664,209.200 207.124,209.200 206.600 C 209.200 206.076,209.020 205.536,208.800 205.400 C 208.580 205.264,208.400 204.634,208.400 204.000 C 208.400 203.366,208.220 202.736,208.000 202.600 C 207.780 202.464,207.600 201.924,207.600 201.400 C 207.600 200.876,207.420 200.336,207.200 200.200 C 206.980 200.064,206.800 199.434,206.800 198.800 C 206.800 198.166,206.620 197.536,206.400 197.400 C 206.180 197.264,206.000 196.801,206.000 196.371 C 206.000 195.941,205.838 195.277,205.639 194.895 C 205.440 194.513,205.055 193.390,204.782 192.400 C 204.509 191.410,203.797 189.070,203.199 187.200 C 202.600 185.330,201.614 182.090,201.007 180.000 C 200.400 177.910,199.397 174.580,198.779 172.600 C 198.160 170.620,197.597 168.655,197.527 168.233 C 197.329 167.042,196.400 166.967,196.400 168.143 C 196.400 168.698,196.220 169.264,196.000 169.400 C 195.780 169.536,195.600 170.166,195.600 170.800 C 195.600 171.434,195.420 172.064,195.200 172.200 C 194.980 172.336,194.800 172.876,194.800 173.400 C 194.800 173.924,194.620 174.464,194.400 174.600 C 194.180 174.736,194.000 175.366,194.000 176.000 C 194.000 176.634,193.820 177.264,193.600 177.400 C 193.380 177.536,193.200 178.076,193.200 178.600 C 193.200 179.124,193.020 179.664,192.800 179.800 C 192.580 179.936,192.400 180.476,192.400 181.000 C 192.400 181.524,192.220 182.064,192.000 182.200 C 191.780 182.336,191.600 182.966,191.600 183.600 C 191.600 184.234,191.420 184.864,191.200 185.000 C 190.980 185.136,190.800 185.676,190.800 186.200 C 190.800 186.724,190.620 187.264,190.400 187.400 C 190.180 187.536,190.000 188.089,190.000 188.629 C 190.000 189.169,189.838 189.923,189.639 190.305 C 189.440 190.687,189.060 191.810,188.793 192.800 C 188.527 193.790,188.169 194.960,187.999 195.400 C 187.828 195.840,187.197 197.910,186.597 200.000 C 185.996 202.090,184.986 205.420,184.352 207.400 C 183.719 209.380,183.200 211.227,183.200 211.505 C 183.200 211.783,183.038 212.323,182.841 212.705 C 182.644 213.087,182.085 214.750,181.600 216.400 C 181.115 218.050,180.556 219.713,180.359 220.095 C 180.162 220.477,180.000 221.064,180.000 221.400 C 180.000 221.736,179.838 222.323,179.639 222.705 C 179.440 223.087,179.063 224.210,178.800 225.200 C 178.537 226.190,178.160 227.313,177.961 227.695 C 177.762 228.077,177.600 228.741,177.600 229.171 C 177.600 229.601,177.420 230.064,177.200 230.200 C 176.980 230.336,176.800 230.876,176.800 231.400 C 176.800 231.924,176.620 232.464,176.400 232.600 C 176.180 232.736,176.000 233.276,176.000 233.800 C 176.000 234.324,175.820 234.864,175.600 235.000 C 175.380 235.136,175.200 235.766,175.200 236.400 C 175.200 237.034,175.020 237.664,174.800 237.800 C 174.580 237.936,174.400 238.476,174.400 239.000 C 174.400 239.524,174.220 240.064,174.000 240.200 C 173.780 240.336,173.600 240.799,173.600 241.229 C 173.600 241.659,173.439 242.323,173.241 242.705 C 172.878 243.409,171.775 246.853,165.909 265.600 C 165.461 267.030,164.960 268.560,164.795 269.000 C 164.631 269.440,163.916 271.690,163.207 274.000 C 162.497 276.310,161.756 278.513,161.559 278.895 C 161.361 279.277,161.200 279.941,161.200 280.371 C 161.200 280.801,161.020 281.264,160.800 281.400 C 160.580 281.536,160.400 282.076,160.400 282.600 C 160.400 283.124,160.220 283.664,160.000 283.800 C 159.780 283.936,159.600 284.487,159.600 285.024 C 159.600 285.561,159.420 286.000,159.200 286.000 C 158.980 286.000,158.797 286.315,158.794 286.700 C 158.787 287.518,157.873 290.261,157.474 290.659 C 157.323 290.810,157.200 291.343,157.200 291.843 C 157.200 292.343,157.020 292.864,156.800 293.000 C 156.580 293.136,156.400 293.599,156.400 294.029 C 156.400 294.459,156.249 295.123,156.065 295.505 C 155.881 295.887,155.469 296.740,155.150 297.400 L 154.569 298.600 131.259 298.600 L 107.950 298.600 107.419 297.600 C 106.836 296.501,105.276 293.061,104.790 291.800 C 104.620 291.360,104.193 290.325,103.841 289.500 C 103.488 288.675,102.953 287.415,102.651 286.700 C 102.349 285.985,101.629 284.297,101.051 282.950 C 100.473 281.602,100.000 280.392,100.000 280.260 C 100.000 280.128,99.460 278.841,98.800 277.400 C 98.140 275.959,97.600 274.632,97.600 274.451 C 97.600 274.271,97.350 273.600,97.044 272.961 C 96.478 271.780,95.447 269.409,94.713 267.600 C 94.489 267.050,94.148 266.287,93.953 265.905 C 93.759 265.523,93.600 264.938,93.600 264.605 C 93.600 264.272,93.420 264.000,93.200 264.000 C 92.980 264.000,92.800 263.728,92.800 263.395 C 92.800 263.062,92.641 262.477,92.447 262.095 C 92.252 261.713,91.871 260.860,91.600 260.200 C 91.329 259.540,90.948 258.687,90.753 258.305 C 90.559 257.923,90.400 257.338,90.400 257.005 C 90.400 256.672,90.220 256.400,90.000 256.400 C 89.780 256.400,89.600 256.121,89.600 255.781 C 89.600 255.440,89.240 254.416,88.800 253.506 C 88.360 252.595,88.000 251.702,88.000 251.521 C 88.000 251.339,87.619 250.338,87.153 249.296 C 85.566 245.741,85.262 244.996,82.382 237.600 C 80.797 233.530,79.342 230.029,79.150 229.820 C 78.957 229.611,78.800 229.026,78.800 228.520 C 78.800 228.014,78.620 227.600,78.400 227.600 C 78.180 227.600,78.000 227.251,78.000 226.824 C 78.000 226.397,77.820 225.936,77.600 225.800 C 77.380 225.664,77.200 225.113,77.200 224.576 C 77.200 224.039,77.020 223.600,76.800 223.600 C 76.580 223.600,76.400 223.251,76.400 222.824 C 76.400 222.397,76.220 221.936,76.000 221.800 C 75.780 221.664,75.600 221.113,75.600 220.576 C 75.600 220.039,75.420 219.600,75.200 219.600 C 74.980 219.600,74.800 219.238,74.800 218.795 C 74.800 218.352,74.641 217.677,74.447 217.295 C 74.047 216.508,73.237 214.594,72.800 213.400 C 72.639 212.960,72.303 212.105,72.054 211.500 C 71.476 210.100,70.895 208.646,70.454 207.500 C 70.263 207.005,69.918 206.150,69.687 205.600 C 69.303 204.687,68.694 203.064,65.111 193.400 C 64.458 191.640,63.779 189.840,63.602 189.400 C 63.425 188.960,63.064 187.970,62.800 187.200 C 62.218 185.507,61.629 184.040,61.153 183.105 C 60.959 182.723,60.800 182.136,60.800 181.800 C 60.800 181.464,60.592 180.787,60.338 180.295 C 59.366 178.416,59.200 177.993,59.200 177.400 C 59.200 177.064,59.020 176.432,58.800 175.995 C 58.580 175.558,58.220 174.842,58.000 174.405 C 57.780 173.968,57.600 173.259,57.600 172.829 C 57.600 172.399,57.456 171.958,57.279 171.849 C 57.103 171.740,56.707 170.728,56.400 169.600 C 56.093 168.472,55.697 167.460,55.521 167.351 C 55.344 167.242,55.200 166.801,55.200 166.371 C 55.200 165.941,55.024 165.277,54.810 164.895 C 54.361 164.096,50.998 153.920,49.425 148.600 C 48.839 146.620,48.189 144.587,47.980 144.081 C 47.771 143.576,47.600 142.731,47.600 142.205 C 47.600 141.678,47.440 141.148,47.244 141.027 C 47.049 140.906,46.792 140.221,46.673 139.504 C 46.555 138.787,46.254 137.390,46.004 136.400 C 45.755 135.410,45.460 134.060,45.348 133.400 C 45.237 132.740,44.987 131.840,44.794 131.400 C 44.267 130.202,43.928 127.031,43.897 123.000 C 43.864 118.773,44.185 117.179,45.647 114.305 C 45.841 113.923,46.000 113.338,46.000 113.005 C 46.000 112.672,46.180 112.400,46.400 112.400 C 46.620 112.400,46.802 112.175,46.805 111.900 C 46.811 111.307,48.836 108.747,50.800 106.849 C 52.244 105.455,57.389 102.805,58.674 102.794 C 59.073 102.791,59.670 102.613,60.000 102.400 C 61.022 101.739,73.427 101.915,76.600 102.635 " stroke="none" fill="#fc4454" fill-rule="evenodd"></path><path id="path2" d="" stroke="none" fill="#fc9ca4" fill-rule="evenodd"></path><path id="path3" d="M60.136 102.306 C 59.881 102.468,62.311 102.552,65.536 102.493 C 74.714 102.326,75.674 102.150,67.800 102.078 C 63.840 102.042,60.391 102.144,60.136 102.306 M190.712 102.316 C 190.334 102.472,193.484 102.603,197.712 102.606 C 204.832 102.612,206.397 102.769,210.897 103.929 C 211.721 104.141,212.308 104.174,212.202 104.003 C 212.096 103.832,211.513 103.590,210.905 103.464 C 210.297 103.339,208.900 103.025,207.800 102.767 C 205.550 102.240,191.775 101.876,190.712 102.316 M324.937 102.292 C 324.683 102.462,327.833 102.608,331.937 102.618 C 336.042 102.628,340.210 102.757,341.200 102.905 L 343.000 103.174 341.400 102.735 C 339.515 102.219,325.611 101.845,324.937 102.292 M75.800 102.755 C 76.929 103.214,79.936 103.640,79.200 103.236 C 78.870 103.055,77.790 102.800,76.800 102.668 C 75.721 102.525,75.320 102.560,75.800 102.755 M185.600 103.695 C 182.228 104.945,176.411 109.528,176.402 110.943 C 176.401 111.132,177.233 110.360,178.252 109.227 C 181.115 106.042,184.491 104.110,189.000 103.076 C 189.626 102.933,189.582 102.891,188.800 102.886 C 188.250 102.883,186.810 103.247,185.600 103.695 M320.919 103.362 C 319.156 104.004,318.779 104.473,320.446 103.951 C 321.191 103.718,322.340 103.382,323.000 103.204 C 324.075 102.915,324.096 102.883,323.200 102.889 C 322.650 102.892,321.624 103.105,320.919 103.362 M52.944 105.169 C 52.253 105.590,51.565 106.133,51.416 106.374 C 51.192 106.737,53.775 105.158,54.356 104.577 C 54.747 104.187,54.133 104.444,52.944 105.169 M316.400 105.759 C 315.410 106.496,314.062 107.706,313.404 108.449 C 312.434 109.544,312.548 109.488,314.004 108.154 C 314.992 107.248,316.517 106.033,317.393 105.454 C 318.269 104.874,318.809 104.404,318.593 104.410 C 318.377 104.415,317.390 105.023,316.400 105.759 M346.780 104.691 C 347.098 104.817,348.538 105.540,349.980 106.298 C 351.421 107.056,352.420 107.491,352.200 107.265 C 351.605 106.653,347.190 104.395,346.659 104.432 C 346.407 104.449,346.461 104.566,346.780 104.691 M309.814 113.035 C 309.441 113.604,309.227 114.161,309.339 114.272 C 309.450 114.383,309.829 113.918,310.181 113.237 C 310.959 111.733,310.744 111.615,309.814 113.035 M173.029 116.461 C 172.683 117.155,172.401 117.920,172.402 118.161 C 172.405 118.603,173.214 117.202,173.709 115.900 C 174.149 114.743,173.703 115.111,173.029 116.461 M43.843 119.433 C 43.501 120.324,43.551 126.104,43.906 126.662 C 44.068 126.916,44.200 125.251,44.200 122.962 C 44.200 118.469,44.203 118.495,43.843 119.433 M171.758 119.500 C 171.639 119.885,171.375 120.513,171.171 120.895 C 170.967 121.277,170.811 121.907,170.825 122.295 C 170.844 122.801,170.968 122.717,171.266 122.000 C 171.897 120.480,172.367 118.800,172.160 118.800 C 172.058 118.800,171.877 119.115,171.758 119.500 M170.187 124.253 C 170.048 124.884,169.784 125.850,169.600 126.400 C 169.057 128.021,168.714 129.820,169.002 129.531 C 169.150 129.384,169.424 128.664,169.612 127.932 C 170.593 124.119,170.743 123.409,170.597 123.264 C 170.510 123.177,170.326 123.622,170.187 124.253 M91.628 124.676 C 91.718 125.715,92.344 126.596,92.372 125.724 C 92.387 125.242,92.220 124.736,92.000 124.600 C 91.780 124.464,91.613 124.498,91.628 124.676 M225.228 125.076 C 225.318 126.115,225.944 126.996,225.972 126.124 C 225.987 125.642,225.820 125.136,225.600 125.000 C 225.380 124.864,225.213 124.898,225.228 125.076 M304.635 125.300 C 304.557 125.575,304.272 126.610,304.001 127.600 C 303.729 128.590,303.369 129.850,303.200 130.400 C 302.913 131.334,302.383 133.256,301.764 135.600 C 301.619 136.150,301.629 136.479,301.785 136.332 C 301.942 136.184,302.244 135.374,302.458 134.532 C 302.827 133.073,303.177 131.812,304.023 128.900 C 304.768 126.334,305.113 124.800,304.945 124.800 C 304.852 124.800,304.712 125.025,304.635 125.300 M351.849 126.215 C 351.712 126.573,351.615 127.166,351.634 127.533 C 351.653 127.900,351.827 127.669,352.021 127.020 C 352.398 125.758,352.265 125.133,351.849 126.215 M44.400 130.110 C 44.400 130.683,44.587 131.268,44.816 131.410 C 45.089 131.579,45.138 131.277,44.960 130.534 C 44.592 129.001,44.400 128.856,44.400 130.110 M168.446 130.467 C 168.421 130.834,168.296 131.464,168.170 131.867 C 167.952 132.562,167.963 132.563,168.397 131.887 C 168.648 131.496,168.773 130.866,168.673 130.487 C 168.511 129.868,168.488 129.866,168.446 130.467 M167.646 133.267 C 167.621 133.634,167.496 134.264,167.370 134.667 C 167.152 135.362,167.163 135.363,167.597 134.687 C 167.848 134.296,167.973 133.666,167.873 133.287 C 167.711 132.668,167.688 132.666,167.646 133.267 M227.628 133.076 C 227.718 134.115,228.344 134.996,228.372 134.124 C 228.387 133.642,228.220 133.136,228.000 133.000 C 227.780 132.864,227.613 132.898,227.628 133.076 M348.844 135.844 C 348.380 137.324,348.070 138.604,348.156 138.689 C 348.241 138.775,348.691 137.635,349.156 136.156 C 349.620 134.676,349.930 133.396,349.844 133.311 C 349.759 133.225,349.309 134.365,348.844 135.844 M301.246 137.267 C 301.221 137.634,301.096 138.264,300.970 138.667 C 300.752 139.362,300.763 139.363,301.197 138.687 C 301.448 138.296,301.573 137.666,301.473 137.287 C 301.311 136.668,301.288 136.666,301.246 137.267 M95.844 138.600 C 96.173 140.071,96.402 140.390,96.394 139.367 C 96.391 138.945,96.205 138.330,95.982 138.000 C 95.685 137.562,95.648 137.724,95.844 138.600 M229.444 139.000 C 229.773 140.471,230.002 140.790,229.994 139.767 C 229.991 139.345,229.805 138.730,229.582 138.400 C 229.285 137.962,229.248 138.124,229.444 139.000 M165.800 139.600 C 165.650 140.073,165.617 140.550,165.727 140.660 C 165.837 140.770,166.050 140.473,166.200 140.000 C 166.350 139.527,166.383 139.050,166.273 138.940 C 166.163 138.830,165.950 139.127,165.800 139.600 M96.644 141.400 C 96.973 142.871,97.202 143.190,97.194 142.167 C 97.191 141.745,97.005 141.130,96.782 140.800 C 96.485 140.362,96.448 140.524,96.644 141.400 M231.118 144.826 C 231.214 145.477,231.419 146.088,231.574 146.184 C 231.729 146.279,231.777 145.825,231.682 145.174 C 231.586 144.523,231.381 143.912,231.226 143.816 C 231.071 143.721,231.023 144.175,231.118 144.826 M98.244 146.600 C 98.573 148.071,98.802 148.390,98.794 147.367 C 98.791 146.945,98.605 146.330,98.382 146.000 C 98.085 145.562,98.048 145.724,98.244 146.600 M345.246 146.267 C 345.221 146.524,345.084 147.064,344.941 147.467 C 344.740 148.036,344.794 148.097,345.179 147.742 C 345.452 147.491,345.589 146.951,345.484 146.542 C 345.379 146.134,345.272 146.010,345.246 146.267 M232.024 147.200 C 232.017 147.530,232.271 148.520,232.588 149.400 C 232.905 150.280,233.170 150.730,233.176 150.400 C 233.183 150.070,232.929 149.080,232.612 148.200 C 232.295 147.320,232.030 146.870,232.024 147.200 M50.215 151.300 C 51.112 154.305,51.721 156.012,51.851 155.882 C 52.042 155.691,50.387 150.400,50.136 150.400 C 50.031 150.400,50.067 150.805,50.215 151.300 M233.448 152.200 C 233.591 152.860,233.866 153.670,234.059 154.000 C 234.284 154.384,234.318 154.168,234.152 153.400 C 234.009 152.740,233.734 151.930,233.541 151.600 C 233.316 151.216,233.282 151.432,233.448 152.200 M100.006 152.233 C 100.009 152.655,100.195 153.270,100.418 153.600 C 100.715 154.038,100.752 153.876,100.556 153.000 C 100.227 151.529,99.998 151.210,100.006 152.233 M101.606 157.433 C 101.609 157.855,101.795 158.470,102.018 158.800 C 102.315 159.238,102.352 159.076,102.156 158.200 C 101.827 156.729,101.598 156.410,101.606 157.433 M235.206 157.833 C 235.209 158.255,235.395 158.870,235.618 159.200 C 235.915 159.638,235.952 159.476,235.756 158.600 C 235.427 157.129,235.198 156.810,235.206 157.833 M52.816 158.925 C 52.792 159.411,54.067 163.200,54.254 163.200 C 54.343 163.200,54.293 162.705,54.143 162.100 C 53.822 160.808,52.838 158.454,52.816 158.925 M103.212 162.800 C 103.212 163.130,103.387 163.670,103.600 164.000 C 103.945 164.533,103.988 164.533,103.988 164.000 C 103.988 163.670,103.813 163.130,103.600 162.800 C 103.255 162.267,103.212 162.267,103.212 162.800 M292.267 166.667 C 292.120 166.813,292.011 167.308,292.025 167.767 C 292.049 168.533,292.082 168.523,292.434 167.642 C 292.826 166.663,292.744 166.189,292.267 166.667 M195.246 170.667 C 195.221 170.924,195.084 171.464,194.941 171.867 C 194.740 172.436,194.794 172.497,195.179 172.142 C 195.452 171.891,195.589 171.351,195.484 170.942 C 195.379 170.534,195.272 170.410,195.246 170.667 M155.467 173.867 C 155.320 174.013,155.211 174.508,155.225 174.967 C 155.249 175.733,155.282 175.723,155.634 174.842 C 156.026 173.863,155.944 173.389,155.467 173.867 M335.058 175.304 C 334.128 177.740,334.280 178.204,335.236 175.847 C 335.672 174.773,335.958 173.824,335.872 173.738 C 335.786 173.652,335.420 174.357,335.058 175.304 M289.867 174.267 C 289.720 174.413,289.611 174.908,289.625 175.367 C 289.649 176.133,289.682 176.123,290.034 175.242 C 290.426 174.263,290.344 173.789,289.867 174.267 M193.654 175.667 C 193.625 176.034,193.484 176.664,193.341 177.067 C 193.141 177.633,193.195 177.696,193.575 177.346 C 193.846 177.097,193.987 176.467,193.888 175.946 C 193.790 175.426,193.684 175.300,193.654 175.667 M154.649 176.615 C 154.512 176.973,154.415 177.566,154.434 177.933 C 154.453 178.300,154.627 178.069,154.821 177.420 C 155.198 176.158,155.065 175.533,154.649 176.615 M289.011 177.270 C 288.867 177.781,288.602 178.560,288.421 179.000 C 287.680 180.801,285.188 188.921,285.332 189.065 C 285.417 189.150,286.416 186.400,287.552 182.952 C 288.688 179.505,289.540 176.607,289.445 176.512 C 289.351 176.417,289.155 176.758,289.011 177.270 M153.823 179.300 C 153.408 180.667,153.307 181.581,153.591 181.405 C 153.765 181.298,153.987 180.668,154.085 180.005 C 154.263 178.793,154.106 178.370,153.823 179.300 M241.628 179.076 C 241.718 180.115,242.344 180.996,242.372 180.124 C 242.387 179.642,242.220 179.136,242.000 179.000 C 241.780 178.864,241.613 178.898,241.628 179.076 M333.483 179.484 C 333.363 179.878,333.073 180.818,332.839 181.573 C 332.605 182.328,332.554 182.778,332.725 182.573 C 333.187 182.019,334.103 179.169,333.888 178.954 C 333.785 178.852,333.603 179.090,333.483 179.484 M152.293 184.293 C 151.920 185.533,151.681 186.614,151.763 186.696 C 151.845 186.778,152.227 185.841,152.613 184.613 C 152.999 183.386,153.238 182.305,153.144 182.211 C 153.050 182.116,152.667 183.054,152.293 184.293 M202.027 183.200 C 202.024 183.530,202.458 185.060,202.993 186.600 C 203.528 188.140,203.969 189.130,203.973 188.800 C 203.976 188.470,203.542 186.940,203.007 185.400 C 202.472 183.860,202.031 182.870,202.027 183.200 M331.691 184.500 C 331.010 186.384,331.104 186.894,331.826 185.230 C 332.153 184.477,332.366 183.699,332.301 183.502 C 332.235 183.305,331.960 183.754,331.691 184.500 M244.028 186.676 C 244.118 187.715,244.744 188.596,244.772 187.724 C 244.787 187.242,244.620 186.736,244.400 186.600 C 244.180 186.464,244.013 186.498,244.028 186.676 M150.693 189.493 C 150.320 190.733,150.081 191.814,150.163 191.896 C 150.245 191.978,150.627 191.041,151.013 189.813 C 151.399 188.586,151.638 187.505,151.544 187.411 C 151.450 187.316,151.067 188.254,150.693 189.493 M283.855 192.855 C 283.264 194.647,282.850 196.183,282.934 196.267 C 283.018 196.352,283.572 194.955,284.164 193.164 C 284.756 191.372,285.170 189.837,285.084 189.751 C 284.999 189.665,284.445 191.062,283.855 192.855 M204.406 191.033 C 204.409 191.455,204.595 192.070,204.818 192.400 C 205.115 192.838,205.152 192.676,204.956 191.800 C 204.627 190.329,204.398 190.010,204.406 191.033 M205.228 193.876 C 205.213 194.358,205.380 194.864,205.600 195.000 C 206.073 195.292,206.073 194.901,205.600 193.800 C 205.269 193.029,205.255 193.031,205.228 193.876 M246.428 194.276 C 246.518 195.315,247.144 196.196,247.172 195.324 C 247.187 194.842,247.020 194.336,246.800 194.200 C 246.580 194.064,246.413 194.098,246.428 194.276 M113.964 195.827 C 115.098 199.622,118.191 208.658,118.463 208.973 C 118.856 209.427,118.612 208.597,116.172 201.200 C 115.120 198.010,114.114 195.232,113.937 195.027 C 113.759 194.822,113.772 195.182,113.964 195.827 M66.575 197.492 C 67.075 199.120,68.766 203.007,68.783 202.569 C 68.792 202.332,68.332 200.982,67.760 199.569 C 66.708 196.969,66.072 195.855,66.575 197.492 M248.244 199.800 C 248.573 201.271,248.802 201.590,248.794 200.567 C 248.791 200.145,248.605 199.530,248.382 199.200 C 248.085 198.762,248.048 198.924,248.244 199.800 M185.051 203.960 C 184.693 205.055,184.411 206.186,184.425 206.475 C 184.439 206.764,184.800 205.936,185.227 204.635 C 185.654 203.334,185.936 202.203,185.853 202.120 C 185.770 202.037,185.409 202.865,185.051 203.960 M69.106 204.218 C 69.210 204.765,69.454 205.310,69.648 205.430 C 69.841 205.549,70.000 205.986,70.000 206.400 C 70.000 206.814,70.154 207.248,70.342 207.364 C 70.530 207.481,70.599 207.129,70.494 206.582 C 70.390 206.035,70.146 205.490,69.952 205.370 C 69.759 205.251,69.600 204.814,69.600 204.400 C 69.600 203.986,69.446 203.552,69.258 203.436 C 69.070 203.319,69.001 203.671,69.106 204.218 M250.825 207.525 C 250.792 208.214,252.058 212.075,252.253 211.880 C 252.336 211.797,252.054 210.666,251.627 209.365 C 251.200 208.064,250.839 207.236,250.825 207.525 M182.974 210.700 C 182.842 211.305,182.648 212.070,182.543 212.400 C 182.421 212.784,182.486 212.856,182.723 212.600 C 183.122 212.170,183.700 209.600,183.398 209.600 C 183.297 209.600,183.107 210.095,182.974 210.700 M181.493 215.493 C 181.120 216.733,180.881 217.814,180.963 217.896 C 181.045 217.978,181.427 217.041,181.813 215.813 C 182.199 214.586,182.438 213.505,182.344 213.411 C 182.250 213.316,181.867 214.254,181.493 215.493 M140.667 221.067 C 140.520 221.213,140.411 221.708,140.425 222.167 C 140.449 222.933,140.482 222.923,140.834 222.042 C 141.226 221.063,141.144 220.589,140.667 221.067 M315.913 226.581 C 315.542 227.581,315.317 228.400,315.414 228.400 C 315.693 228.400,316.831 225.494,316.703 225.109 C 316.639 224.918,316.284 225.580,315.913 226.581 M178.046 226.267 C 178.021 226.524,177.884 227.064,177.741 227.467 C 177.540 228.036,177.594 228.097,177.979 227.742 C 178.252 227.491,178.389 226.951,178.284 226.542 C 178.179 226.134,178.072 226.010,178.046 226.267 M138.267 228.667 C 138.120 228.813,138.011 229.308,138.025 229.767 C 138.049 230.533,138.082 230.523,138.434 229.642 C 138.826 228.663,138.744 228.189,138.267 228.667 M313.709 232.127 C 312.096 236.255,311.738 237.458,312.734 235.400 C 313.876 233.041,315.328 229.195,315.146 229.013 C 315.059 228.926,314.413 230.327,313.709 232.127 M270.955 229.900 C 270.834 230.285,270.570 231.013,270.367 231.519 C 270.165 232.024,270.011 232.654,270.025 232.919 C 270.039 233.183,270.238 232.950,270.466 232.400 C 271.097 230.880,271.567 229.200,271.360 229.200 C 271.258 229.200,271.076 229.515,270.955 229.900 M136.296 235.096 C 135.691 236.985,135.264 238.598,135.347 238.680 C 135.429 238.762,135.997 237.290,136.609 235.409 C 137.221 233.527,137.648 231.914,137.558 231.824 C 137.468 231.735,136.900 233.207,136.296 235.096 M269.348 234.300 C 269.224 234.685,268.862 235.697,268.544 236.550 C 268.226 237.402,268.043 238.177,268.137 238.270 C 268.231 238.364,268.524 237.847,268.789 237.120 C 269.587 234.936,269.955 233.600,269.760 233.600 C 269.658 233.600,269.473 233.915,269.348 234.300 M127.628 235.876 C 127.718 236.915,128.344 237.796,128.372 236.924 C 128.387 236.442,128.220 235.936,128.000 235.800 C 127.780 235.664,127.613 235.698,127.628 235.876 M174.846 236.267 C 174.821 236.524,174.684 237.064,174.541 237.467 C 174.340 238.036,174.394 238.097,174.779 237.742 C 175.052 237.491,175.189 236.951,175.084 236.542 C 174.979 236.134,174.872 236.010,174.846 236.267 M219.015 237.300 C 219.912 240.305,220.521 242.012,220.651 241.882 C 220.842 241.691,219.187 236.400,218.936 236.400 C 218.831 236.400,218.867 236.805,219.015 237.300 M260.428 237.076 C 260.518 238.115,261.144 238.996,261.172 238.124 C 261.187 237.642,261.020 237.136,260.800 237.000 C 260.580 236.864,260.413 236.898,260.428 237.076 M82.800 238.531 C 82.800 239.034,85.721 246.202,86.088 246.600 C 86.432 246.972,86.196 246.318,83.967 240.700 C 83.154 238.653,82.800 237.995,82.800 238.531 M134.683 239.884 C 134.563 240.278,134.273 241.218,134.039 241.973 C 133.805 242.728,133.754 243.178,133.925 242.973 C 134.387 242.419,135.303 239.569,135.088 239.354 C 134.985 239.252,134.803 239.490,134.683 239.884 M262.365 242.627 C 262.799 244.074,263.173 245.156,263.600 246.200 C 263.780 246.640,264.038 247.341,264.173 247.757 C 264.308 248.174,264.520 248.413,264.644 248.290 C 264.767 248.166,264.598 247.465,264.267 246.732 C 263.937 246.000,263.435 244.680,263.152 243.800 C 262.554 241.942,261.842 240.881,262.365 242.627 M130.833 244.840 C 130.621 246.395,132.331 248.161,132.705 246.775 C 132.840 246.276,132.808 246.276,132.462 246.773 C 132.144 247.229,131.940 247.066,131.464 245.973 C 131.135 245.218,130.851 244.708,130.833 244.840 M221.616 244.925 C 221.592 245.411,222.867 249.200,223.054 249.200 C 223.143 249.200,223.093 248.705,222.943 248.100 C 222.622 246.808,221.638 244.454,221.616 244.925 M166.649 261.815 C 166.512 262.173,166.415 262.766,166.434 263.133 C 166.453 263.500,166.627 263.269,166.821 262.620 C 167.198 261.358,167.065 260.733,166.649 261.815 M300.831 264.500 C 300.639 264.995,300.106 266.345,299.647 267.500 C 299.187 268.655,298.904 269.600,299.016 269.600 C 299.128 269.600,299.377 269.195,299.569 268.700 C 299.761 268.205,300.294 266.855,300.753 265.700 C 301.213 264.545,301.496 263.600,301.384 263.600 C 301.272 263.600,301.023 264.005,300.831 264.500 M163.096 273.096 C 162.491 274.985,162.064 276.598,162.147 276.680 C 162.229 276.762,162.797 275.290,163.409 273.409 C 164.021 271.527,164.448 269.914,164.358 269.824 C 164.268 269.735,163.700 271.207,163.096 273.096 M297.042 273.719 C 295.483 277.311,294.808 279.242,295.195 279.003 C 295.418 278.865,295.600 278.581,295.600 278.372 C 295.600 278.029,296.573 275.687,297.707 273.301 C 297.942 272.806,298.053 272.320,297.953 272.220 C 297.854 272.120,297.444 272.795,297.042 273.719 M161.646 277.467 C 161.621 277.724,161.484 278.264,161.341 278.667 C 161.140 279.236,161.194 279.297,161.579 278.942 C 161.852 278.691,161.989 278.151,161.884 277.742 C 161.779 277.334,161.672 277.210,161.646 277.467 M160.846 279.867 C 160.821 280.124,160.684 280.664,160.541 281.067 C 160.340 281.636,160.394 281.697,160.779 281.342 C 161.052 281.091,161.189 280.551,161.084 280.142 C 160.979 279.734,160.872 279.610,160.846 279.867 M100.607 281.879 C 101.207 283.314,101.600 283.962,101.600 283.516 C 101.600 283.084,100.385 280.400,100.189 280.400 C 100.079 280.400,100.267 281.066,100.607 281.879 M233.972 282.246 C 234.475 283.919,235.146 285.465,235.169 285.000 C 235.194 284.465,234.217 281.683,233.886 281.353 C 233.742 281.209,233.781 281.611,233.972 282.246 M102.002 285.025 C 102.001 285.259,102.360 286.195,102.800 287.106 C 103.240 288.016,103.600 288.939,103.600 289.157 C 103.600 289.375,103.784 289.666,104.008 289.805 C 104.233 289.944,104.107 289.279,103.729 288.329 C 102.828 286.065,102.006 284.491,102.002 285.025 M235.419 286.601 C 235.575 287.260,235.857 287.968,236.045 288.173 C 236.232 288.378,236.215 287.949,236.005 287.219 C 235.518 285.518,235.044 285.019,235.419 286.601 M237.264 291.692 C 237.491 292.412,237.771 293.408,237.886 293.906 C 238.001 294.404,238.242 294.903,238.422 295.014 C 238.602 295.125,238.563 294.627,238.336 293.908 C 238.109 293.188,237.829 292.192,237.714 291.694 C 237.599 291.196,237.358 290.697,237.178 290.586 C 236.998 290.475,237.037 290.973,237.264 291.692 M105.200 292.672 C 105.200 293.169,106.391 295.600,106.635 295.600 C 106.823 295.600,105.700 292.767,105.387 292.454 C 105.284 292.351,105.200 292.449,105.200 292.672 M107.943 298.503 C 108.110 298.670,118.676 298.760,131.423 298.703 L 154.600 298.600 131.120 298.400 C 118.206 298.290,107.776 298.336,107.943 298.503 M239.943 298.503 C 240.110 298.670,250.766 298.760,263.623 298.703 L 287.000 298.600 263.320 298.400 C 250.296 298.290,239.776 298.336,239.943 298.503 " stroke="none" fill="#fc848b" fill-rule="evenodd"></path><path id="path4" d="M60.200 102.820 C 59.661 103.065,60.054 103.105,61.400 102.941 C 62.500 102.807,63.475 102.631,63.567 102.549 C 63.917 102.236,60.961 102.474,60.200 102.820 M70.833 102.544 C 70.925 102.623,72.170 102.786,73.600 102.906 C 75.160 103.037,75.800 102.995,75.200 102.802 C 74.212 102.484,70.511 102.265,70.833 102.544 M190.800 102.813 C 190.154 103.029,190.580 103.066,192.000 102.919 C 193.210 102.794,194.275 102.626,194.367 102.546 C 194.687 102.265,191.791 102.483,190.800 102.813 M201.633 102.550 C 201.725 102.632,202.880 102.800,204.200 102.923 C 205.778 103.070,206.189 103.035,205.400 102.820 C 204.166 102.485,201.336 102.282,201.633 102.550 M325.000 102.820 C 324.461 103.065,324.854 103.105,326.200 102.941 C 327.300 102.807,328.275 102.631,328.367 102.549 C 328.717 102.236,325.761 102.474,325.000 102.820 M335.233 102.544 C 335.325 102.624,336.480 102.789,337.800 102.912 C 339.291 103.051,339.821 103.011,339.200 102.807 C 338.212 102.484,334.911 102.265,335.233 102.544 M77.233 103.344 C 77.325 103.423,77.940 103.608,78.600 103.756 C 79.476 103.952,79.638 103.915,79.200 103.618 C 78.660 103.253,76.832 102.998,77.233 103.344 M207.233 103.344 C 207.325 103.423,207.940 103.608,208.600 103.756 C 209.476 103.952,209.638 103.915,209.200 103.618 C 208.660 103.253,206.832 102.998,207.233 103.344 M321.600 103.600 C 321.067 103.945,321.067 103.988,321.600 103.988 C 321.930 103.988,322.470 103.813,322.800 103.600 C 323.333 103.255,323.333 103.212,322.800 103.212 C 322.470 103.212,321.930 103.387,321.600 103.600 M341.233 103.344 C 341.325 103.423,341.940 103.608,342.600 103.756 C 343.476 103.952,343.638 103.915,343.200 103.618 C 342.660 103.253,340.832 102.998,341.233 103.344 M182.700 105.429 C 182.095 105.757,181.600 106.110,181.600 106.213 C 181.600 106.599,182.232 106.357,183.200 105.600 C 184.389 104.670,184.211 104.609,182.700 105.429 M50.161 108.100 C 48.702 109.645,46.864 111.955,47.853 111.000 C 48.918 109.972,52.090 106.400,51.938 106.400 C 51.844 106.400,51.044 107.165,50.161 108.100 M314.143 108.100 C 313.251 109.035,312.026 110.520,311.422 111.400 L 310.324 113.000 311.462 111.603 C 312.088 110.835,313.390 109.350,314.355 108.303 C 315.320 107.256,316.032 106.400,315.938 106.400 C 315.844 106.400,315.036 107.165,314.143 108.100 M178.981 108.500 L 177.400 110.200 179.194 108.600 C 180.180 107.720,181.065 106.955,181.161 106.900 C 181.256 106.845,181.160 106.800,180.948 106.800 C 180.736 106.800,179.851 107.565,178.981 108.500 M87.044 109.400 C 87.373 110.871,87.602 111.190,87.594 110.167 C 87.591 109.745,87.405 109.130,87.182 108.800 C 86.885 108.362,86.848 108.524,87.044 109.400 M220.648 110.600 C 220.791 111.260,221.066 112.070,221.259 112.400 C 221.484 112.784,221.518 112.568,221.352 111.800 C 221.209 111.140,220.934 110.330,220.741 110.000 C 220.516 109.616,220.482 109.832,220.648 110.600 M88.006 113.033 C 88.009 113.455,88.195 114.070,88.418 114.400 C 88.715 114.838,88.752 114.676,88.556 113.800 C 88.227 112.329,87.998 112.010,88.006 113.033 M175.053 113.700 L 174.333 115.000 175.158 114.000 C 175.889 113.113,176.214 112.400,175.886 112.400 C 175.824 112.400,175.449 112.985,175.053 113.700 M354.831 114.831 C 354.547 115.940,354.390 116.923,354.483 117.017 C 354.576 117.110,354.885 116.278,355.169 115.169 C 355.453 114.060,355.610 113.077,355.517 112.983 C 355.424 112.890,355.115 113.722,354.831 114.831 M221.606 113.833 C 221.609 114.255,221.795 114.870,222.018 115.200 C 222.315 115.638,222.352 115.476,222.156 114.600 C 221.827 113.129,221.598 112.810,221.606 113.833 M88.806 115.833 C 88.809 116.255,88.995 116.870,89.218 117.200 C 89.515 117.638,89.552 117.476,89.356 116.600 C 89.027 115.129,88.798 114.810,88.806 115.833 M223.206 119.433 C 223.209 119.855,223.395 120.470,223.618 120.800 C 223.915 121.238,223.952 121.076,223.756 120.200 C 223.427 118.729,223.198 118.410,223.206 119.433 M44.131 123.000 C 44.133 124.540,44.205 125.121,44.292 124.291 C 44.379 123.461,44.377 122.201,44.289 121.491 C 44.200 120.781,44.129 121.460,44.131 123.000 M44.493 127.200 C 44.493 127.970,44.575 128.285,44.676 127.900 C 44.776 127.515,44.776 126.885,44.676 126.500 C 44.575 126.115,44.493 126.430,44.493 127.200 M169.000 129.600 C 168.850 130.073,168.817 130.550,168.927 130.660 C 169.037 130.770,169.250 130.473,169.400 130.000 C 169.550 129.527,169.583 129.050,169.473 128.940 C 169.363 128.830,169.150 129.127,169.000 129.600 M167.429 135.429 C 167.281 136.015,167.238 136.572,167.332 136.666 C 167.427 136.760,167.624 136.358,167.771 135.771 C 167.919 135.185,167.962 134.628,167.868 134.534 C 167.773 134.440,167.576 134.842,167.429 135.429 M301.829 136.629 C 301.681 137.215,301.638 137.772,301.732 137.866 C 301.827 137.960,302.024 137.558,302.171 136.971 C 302.319 136.385,302.362 135.828,302.268 135.734 C 302.173 135.640,301.976 136.042,301.829 136.629 M301.029 139.429 C 300.881 140.015,300.838 140.572,300.932 140.666 C 301.027 140.760,301.224 140.358,301.371 139.771 C 301.519 139.185,301.562 138.628,301.468 138.534 C 301.373 138.440,301.176 138.842,301.029 139.429 M47.444 140.600 C 47.773 142.071,48.002 142.390,47.994 141.367 C 47.991 140.945,47.805 140.330,47.582 140.000 C 47.285 139.562,47.248 139.724,47.444 140.600 M165.849 140.615 C 165.712 140.973,165.615 141.566,165.634 141.933 C 165.653 142.300,165.827 142.069,166.021 141.420 C 166.398 140.158,166.265 139.533,165.849 140.615 M96.012 140.800 C 96.012 141.130,96.187 141.670,96.400 142.000 C 96.745 142.533,96.788 142.533,96.788 142.000 C 96.788 141.670,96.613 141.130,96.400 140.800 C 96.055 140.267,96.012 140.267,96.012 140.800 M165.049 143.415 C 164.912 143.773,164.815 144.366,164.834 144.733 C 164.853 145.100,165.027 144.869,165.221 144.220 C 165.598 142.958,165.465 142.333,165.049 143.415 M299.449 144.615 C 299.312 144.973,299.215 145.566,299.234 145.933 C 299.253 146.300,299.427 146.069,299.621 145.420 C 299.998 144.158,299.865 143.533,299.449 144.615 M164.040 147.040 C 163.810 147.873,163.694 148.627,163.782 148.715 C 163.870 148.803,164.130 148.193,164.360 147.360 C 164.590 146.527,164.706 145.773,164.618 145.685 C 164.530 145.597,164.270 146.207,164.040 147.040 M338.491 164.500 C 337.810 166.384,337.904 166.894,338.626 165.230 C 338.953 164.477,339.166 163.699,339.101 163.502 C 339.035 163.305,338.760 163.754,338.491 164.500 M196.267 166.267 C 196.120 166.413,196.003 166.728,196.006 166.967 C 196.009 167.205,196.169 167.152,196.361 166.849 C 196.828 166.112,197.600 166.637,197.600 167.690 C 197.600 168.154,197.712 168.422,197.848 168.285 C 197.984 168.149,197.981 167.579,197.840 167.019 C 197.597 166.050,196.843 165.690,196.267 166.267 M335.877 171.877 C 335.500 172.893,335.258 173.791,335.338 173.872 C 335.419 173.952,335.800 173.193,336.185 172.185 C 336.570 171.176,336.812 170.279,336.723 170.190 C 336.635 170.101,336.254 170.860,335.877 171.877 M152.600 184.400 C 152.450 184.873,152.417 185.350,152.527 185.460 C 152.637 185.570,152.850 185.273,153.000 184.800 C 153.150 184.327,153.183 183.850,153.073 183.740 C 152.963 183.630,152.750 183.927,152.600 184.400 M287.000 184.400 C 286.850 184.873,286.817 185.350,286.927 185.460 C 287.037 185.570,287.250 185.273,287.400 184.800 C 287.550 184.327,287.583 183.850,287.473 183.740 C 287.363 183.630,287.150 183.927,287.000 184.400 M203.212 186.000 C 203.212 186.330,203.387 186.870,203.600 187.200 C 203.945 187.733,203.988 187.733,203.988 187.200 C 203.988 186.870,203.813 186.330,203.600 186.000 C 203.255 185.467,203.212 185.467,203.212 186.000 M63.051 186.774 C 63.427 188.239,64.371 190.286,64.355 189.600 C 64.347 189.270,63.994 188.280,63.571 187.400 C 63.148 186.520,62.914 186.238,63.051 186.774 M286.200 186.800 C 286.050 187.273,286.017 187.750,286.127 187.860 C 286.237 187.970,286.450 187.673,286.600 187.200 C 286.750 186.727,286.783 186.250,286.673 186.140 C 286.563 186.030,286.350 186.327,286.200 186.800 M204.812 191.200 C 204.812 191.530,204.987 192.070,205.200 192.400 C 205.545 192.933,205.588 192.933,205.588 192.400 C 205.588 192.070,205.413 191.530,205.200 191.200 C 204.855 190.667,204.812 190.667,204.812 191.200 M65.645 193.600 C 65.653 193.930,66.006 194.920,66.429 195.800 C 66.852 196.680,67.086 196.962,66.949 196.426 C 66.573 194.961,65.629 192.914,65.645 193.600 M206.412 196.400 C 206.412 196.730,206.587 197.270,206.800 197.600 C 207.145 198.133,207.188 198.133,207.188 197.600 C 207.188 197.270,207.013 196.730,206.800 196.400 C 206.455 195.867,206.412 195.867,206.412 196.400 M186.446 198.067 C 186.421 198.434,186.296 199.064,186.170 199.467 C 185.952 200.162,185.963 200.163,186.397 199.487 C 186.648 199.096,186.773 198.466,186.673 198.087 C 186.511 197.468,186.488 197.466,186.446 198.067 M146.040 205.440 C 145.810 206.273,145.694 207.027,145.782 207.115 C 145.870 207.203,146.130 206.593,146.360 205.760 C 146.590 204.927,146.706 204.173,146.618 204.085 C 146.530 203.997,146.270 204.607,146.040 205.440 M321.480 210.880 C 320.876 212.439,320.446 213.780,320.526 213.860 C 320.606 213.940,321.170 212.734,321.780 211.180 C 322.390 209.626,322.819 208.285,322.734 208.200 C 322.649 208.115,322.084 209.321,321.480 210.880 M119.829 214.400 C 119.976 214.950,120.264 215.670,120.467 216.000 C 120.725 216.417,120.757 216.295,120.571 215.600 C 120.424 215.050,120.136 214.330,119.933 214.000 C 119.675 213.583,119.643 213.705,119.829 214.400 M121.616 219.454 C 121.607 219.704,121.863 220.514,122.184 221.254 C 122.506 221.994,122.776 222.396,122.784 222.146 C 122.793 221.896,122.537 221.086,122.216 220.346 C 121.894 219.606,121.624 219.204,121.616 219.454 M80.039 230.900 C 80.915 233.123,81.502 234.058,81.002 232.435 C 80.525 230.887,79.606 228.800,79.400 228.800 C 79.297 228.800,79.584 229.745,80.039 230.900 M82.046 235.800 C 82.053 236.020,82.406 236.920,82.829 237.800 C 83.252 238.680,83.486 238.950,83.349 238.400 C 83.067 237.267,82.025 235.188,82.046 235.800 M265.467 246.067 C 265.105 246.988,264.874 247.807,264.954 247.888 C 265.034 247.968,265.400 247.283,265.767 246.367 C 266.133 245.450,266.364 244.631,266.279 244.546 C 266.194 244.461,265.829 245.145,265.467 246.067 M131.200 247.614 C 131.200 248.187,132.047 248.513,132.461 248.099 C 132.717 247.843,132.566 247.632,132.026 247.491 C 131.572 247.372,131.200 247.427,131.200 247.614 M304.379 254.655 C 304.158 255.236,304.052 255.785,304.143 255.876 C 304.233 255.967,304.499 255.492,304.733 254.820 C 305.253 253.328,304.939 253.182,304.379 254.655 M97.007 272.279 C 97.607 273.714,98.000 274.362,98.000 273.916 C 98.000 273.484,96.785 270.800,96.589 270.800 C 96.479 270.800,96.667 271.466,97.007 272.279 M288.465 293.017 C 287.795 294.488,287.923 294.802,288.647 293.465 C 288.986 292.840,289.188 292.254,289.096 292.163 C 289.005 292.071,288.721 292.456,288.465 293.017 M155.691 294.100 C 155.010 295.984,155.104 296.494,155.826 294.830 C 156.153 294.077,156.366 293.299,156.301 293.102 C 156.235 292.905,155.960 293.354,155.691 294.100 " stroke="none" fill="#fca4a4" fill-rule="evenodd"></path></g></svg>