<?xml version="1.0" encoding="UTF-8"?>
<svg version="1.1" xmlns="http://www.w3.org/2000/svg" width="32" height="32">
<path d="M0 0 C0.9583374 0.00523682 1.9166748 0.01047363 2.90405273 0.01586914 C4.45576172 0.02070313 4.45576172 0.02070313 6.03881836 0.02563477 C7.12743164 0.03401367 8.21604492 0.04239258 9.33764648 0.05102539 C10.97636719 0.05779297 10.97636719 0.05779297 12.64819336 0.06469727 C15.35723144 0.07652713 18.06616248 0.09300996 20.77514648 0.11352539 C17.49724714 6.86079016 17.49724714 6.86079016 14.19702148 8.01586914 C12.87444336 8.03327148 12.87444336 8.03327148 11.52514648 8.05102539 C10.63311523 8.08067383 9.74108398 8.11032227 8.82202148 8.14086914 C8.14655273 8.1318457 7.47108398 8.12282227 6.77514648 8.11352539 C8.74337534 10.08175425 12.12323358 9.7760092 14.77514648 10.11352539 C14.24920898 11.19633789 14.24920898 11.19633789 13.71264648 12.30102539 C12.63360536 15.53814877 12.73052893 16.89931753 13.77514648 20.11352539 C14.57952148 21.38196289 14.57952148 21.38196289 15.40014648 22.67602539 C16.77514648 25.11352539 16.77514648 25.11352539 16.46264648 27.42602539 C16.23577148 27.98290039 16.00889648 28.53977539 15.77514648 29.11352539 C13.09936523 29.62524414 13.09936523 29.62524414 9.77514648 29.11352539 C7.54391808 26.67452122 6.11558761 23.84127032 4.58764648 20.92602539 C4.16290039 20.15709961 3.7381543 19.38817383 3.30053711 18.59594727 C2.47776213 17.10522743 1.66469868 15.60909648 0.86254883 14.10717773 C-0.03596896 12.45982788 -1.01333336 10.85575338 -2.01000977 9.26586914 C-3.61072773 6.42987044 -3.51584013 4.3143781 -3.22485352 1.11352539 C-2.22485352 0.11352539 -2.22485352 0.11352539 0 0 Z " fill="#49D294" transform="translate(3.224853515625,0.886474609375)"/>
<path d="M0 0 C1.67542976 0.28604898 3.34385343 0.61781233 5 1 C5.67424989 6.93714485 3.45267342 10.4716114 0.5 15.375 C0.07074219 16.11105469 -0.35851563 16.84710937 -0.80078125 17.60546875 C-1.85563776 19.41044544 -2.92626881 21.20618718 -4 23 C-7 22 -7 22 -8.25 20.25 C-9.21974393 17.34076821 -8.82299328 15.95605749 -8 13 C-6.90213084 10.87960565 -5.72997371 8.7965956 -4.5 6.75 C-3.8709375 5.69296875 -3.241875 4.6359375 -2.59375 3.546875 C-1 1 -1 1 0 0 Z " fill="#49D294" transform="translate(27,1)"/>
</svg>
