<svg id="svg" version="1.1" xmlns="http://www.w3.org/2000/svg" xmlns:xlink="http://www.w3.org/1999/xlink" width="400" height="400" viewBox="0, 0, 400,400"><g id="svgg"><path id="path0" d="M138.500 0.265 C 138.225 0.376,138.000 0.992,138.000 1.633 C 138.000 2.275,137.820 2.800,137.600 2.800 C 137.380 2.800,137.200 3.419,137.200 4.176 C 137.200 4.933,137.020 5.664,136.800 5.800 C 136.580 5.936,136.400 6.577,136.400 7.224 C 136.400 7.871,136.220 8.400,136.000 8.400 C 135.780 8.400,135.600 8.940,135.600 9.600 C 135.600 10.260,135.420 10.800,135.200 10.800 C 134.980 10.800,134.800 11.329,134.800 11.976 C 134.800 12.623,134.620 13.264,134.400 13.400 C 134.180 13.536,134.000 14.177,134.000 14.824 C 134.000 15.471,133.820 16.000,133.600 16.000 C 133.380 16.000,133.200 16.529,133.200 17.176 C 133.200 17.823,133.020 18.464,132.800 18.600 C 132.580 18.736,132.400 19.467,132.400 20.224 C 132.400 20.981,132.220 21.600,132.000 21.600 C 131.780 21.600,131.600 22.140,131.600 22.800 C 131.600 23.460,131.420 24.000,131.200 24.000 C 130.980 24.000,130.800 24.529,130.800 25.176 C 130.800 25.823,130.620 26.464,130.400 26.600 C 130.180 26.736,130.000 27.377,130.000 28.024 C 130.000 28.671,129.820 29.200,129.600 29.200 C 129.380 29.200,129.200 29.729,129.200 30.376 C 129.200 31.023,129.020 31.664,128.800 31.800 C 128.580 31.936,128.400 32.667,128.400 33.424 C 128.400 34.181,128.220 34.800,128.000 34.800 C 127.780 34.800,127.600 35.340,127.600 36.000 C 127.600 36.660,127.440 37.200,127.244 37.200 C 127.048 37.200,126.795 37.785,126.681 38.500 C 126.567 39.215,126.261 40.520,126.001 41.400 C 125.740 42.280,125.315 43.933,125.057 45.073 C 124.799 46.213,124.455 47.278,124.294 47.440 C 124.132 47.601,124.000 48.333,124.000 49.067 C 124.000 49.800,123.820 50.400,123.600 50.400 C 123.380 50.400,123.200 50.940,123.200 51.600 C 123.200 52.260,123.020 52.800,122.800 52.800 C 122.580 52.800,122.400 53.329,122.400 53.976 C 122.400 54.623,122.220 55.264,122.000 55.400 C 121.780 55.536,121.600 56.267,121.600 57.024 C 121.600 57.781,121.420 58.400,121.200 58.400 C 120.980 58.400,120.800 58.839,120.800 59.376 C 120.800 59.913,120.620 60.464,120.400 60.600 C 120.180 60.736,120.000 61.467,120.000 62.224 C 120.000 62.981,119.820 63.600,119.600 63.600 C 119.380 63.600,119.200 64.140,119.200 64.800 C 119.200 65.460,119.020 66.000,118.800 66.000 C 118.580 66.000,118.400 66.540,118.400 67.200 C 118.400 67.860,118.220 68.400,118.000 68.400 C 117.780 68.400,117.600 69.120,117.600 70.000 C 117.600 70.880,117.420 71.600,117.200 71.600 C 116.980 71.600,116.800 72.140,116.800 72.800 C 116.800 73.460,116.620 74.000,116.400 74.000 C 116.180 74.000,116.000 74.540,116.000 75.200 C 116.000 75.860,115.820 76.400,115.600 76.400 C 115.380 76.400,115.200 77.030,115.200 77.800 C 115.200 78.570,115.020 79.200,114.800 79.200 C 114.580 79.200,114.400 79.740,114.400 80.400 C 114.400 81.060,114.240 81.600,114.044 81.600 C 113.848 81.600,113.573 82.275,113.432 83.100 C 112.810 86.751,112.693 87.200,112.356 87.200 C 112.160 87.200,112.000 87.740,112.000 88.400 C 112.000 89.060,111.820 89.600,111.600 89.600 C 111.380 89.600,111.200 90.219,111.200 90.976 C 111.200 91.733,111.020 92.464,110.800 92.600 C 110.580 92.736,110.400 93.199,110.400 93.629 C 110.400 94.059,110.228 94.723,110.018 95.105 C 109.535 95.986,108.400 100.768,108.400 101.926 C 108.400 102.407,108.220 102.800,108.000 102.800 C 107.780 102.800,107.600 103.340,107.600 104.000 C 107.600 104.660,107.420 105.200,107.200 105.200 C 106.980 105.200,106.800 105.920,106.800 106.800 C 106.800 107.680,106.620 108.400,106.400 108.400 C 106.180 108.400,106.000 108.850,106.000 109.400 C 106.000 109.950,105.820 110.400,105.600 110.400 C 105.380 110.400,105.200 110.929,105.200 111.576 C 105.200 112.223,105.020 112.864,104.800 113.000 C 104.580 113.136,104.400 113.867,104.400 114.624 C 104.400 115.381,104.220 116.000,104.000 116.000 C 103.780 116.000,103.600 116.540,103.600 117.200 C 103.600 117.860,103.420 118.400,103.200 118.400 C 102.980 118.400,102.800 118.929,102.800 119.576 C 102.800 120.223,102.620 120.864,102.400 121.000 C 102.180 121.136,102.000 121.867,102.000 122.624 C 102.000 123.381,101.820 124.000,101.600 124.000 C 101.380 124.000,101.200 124.540,101.200 125.200 C 101.200 125.860,101.020 126.400,100.800 126.400 C 100.580 126.400,100.400 126.929,100.400 127.576 C 100.400 128.223,100.220 128.864,100.000 129.000 C 99.780 129.136,99.600 129.777,99.600 130.424 C 99.600 131.071,99.420 131.600,99.200 131.600 C 98.980 131.600,98.800 132.129,98.800 132.776 C 98.800 133.423,98.620 134.064,98.400 134.200 C 98.180 134.336,98.000 134.966,98.000 135.600 C 98.000 136.234,97.820 136.864,97.600 137.000 C 97.380 137.136,97.200 137.777,97.200 138.424 C 97.200 139.071,97.020 139.600,96.800 139.600 C 96.580 139.600,96.400 140.129,96.400 140.776 C 96.400 141.423,96.220 142.064,96.000 142.200 C 95.780 142.336,95.600 142.966,95.600 143.600 C 95.600 144.234,95.420 144.864,95.200 145.000 C 94.980 145.136,94.800 145.599,94.800 146.029 C 94.800 146.459,94.642 147.123,94.449 147.505 C 93.911 148.571,93.200 150.977,93.200 151.734 C 93.200 152.106,93.027 152.723,92.816 153.105 C 92.431 153.803,91.716 156.674,91.323 159.100 C 91.207 159.815,90.952 160.400,90.756 160.400 C 90.560 160.400,90.400 160.940,90.400 161.600 C 90.400 162.260,90.220 162.800,90.000 162.800 C 89.780 162.800,89.600 163.419,89.600 164.176 C 89.600 164.933,89.420 165.664,89.200 165.800 C 88.980 165.936,88.800 166.577,88.800 167.224 C 88.800 167.871,88.620 168.400,88.400 168.400 C 88.180 168.400,88.000 168.940,88.000 169.600 C 88.000 170.260,87.820 170.800,87.600 170.800 C 87.380 170.800,87.200 171.520,87.200 172.400 C 87.200 173.280,87.020 174.000,86.800 174.000 C 86.580 174.000,86.400 174.439,86.400 174.976 C 86.400 175.513,86.220 176.064,86.000 176.200 C 85.780 176.336,85.600 176.977,85.600 177.624 C 85.600 178.271,85.420 178.800,85.200 178.800 C 84.980 178.800,84.800 179.430,84.800 180.200 C 84.800 180.970,84.620 181.600,84.400 181.600 C 84.180 181.600,84.000 182.140,84.000 182.800 C 84.000 183.460,83.840 184.000,83.644 184.000 C 83.307 184.000,83.190 184.449,82.568 188.100 C 82.427 188.925,82.152 189.600,81.956 189.600 C 81.760 189.600,81.600 190.140,81.600 190.800 C 81.600 191.460,81.420 192.000,81.200 192.000 C 80.980 192.000,80.800 192.630,80.800 193.400 C 80.800 194.170,80.620 194.800,80.400 194.800 C 80.180 194.800,80.000 195.340,80.000 196.000 C 80.000 196.660,79.820 197.200,79.600 197.200 C 79.380 197.200,79.200 197.729,79.200 198.376 C 79.200 199.023,79.020 199.664,78.800 199.800 C 78.580 199.936,78.400 200.667,78.400 201.424 C 78.400 202.181,78.220 202.800,78.000 202.800 C 77.780 202.800,77.600 203.252,77.600 203.805 C 77.600 204.358,77.438 205.123,77.239 205.505 C 77.040 205.887,76.654 207.010,76.381 208.000 C 76.108 208.990,75.641 210.571,75.342 211.514 C 75.044 212.457,74.800 213.751,74.800 214.390 C 74.800 215.030,74.620 215.664,74.400 215.800 C 74.180 215.936,74.000 216.577,74.000 217.224 C 74.000 217.871,73.820 218.400,73.600 218.400 C 73.380 218.400,73.200 218.940,73.200 219.600 C 73.200 220.260,73.020 220.800,72.800 220.800 C 72.580 220.800,72.400 221.520,72.400 222.400 C 72.400 223.280,72.220 224.000,72.000 224.000 C 71.780 224.000,71.600 224.439,71.600 224.976 C 71.600 225.513,71.420 226.064,71.200 226.200 C 70.980 226.336,70.800 226.876,70.800 227.400 C 70.800 227.924,70.620 228.464,70.400 228.600 C 70.180 228.736,70.000 229.467,70.000 230.224 C 70.000 230.981,69.820 231.600,69.600 231.600 C 69.380 231.600,69.200 232.140,69.200 232.800 C 69.200 233.460,69.020 234.000,68.800 234.000 C 68.580 234.000,68.400 234.529,68.400 235.176 C 68.400 235.823,68.220 236.464,68.000 236.600 C 67.780 236.736,67.600 237.467,67.600 238.224 C 67.600 238.981,67.420 239.600,67.200 239.600 C 66.980 239.600,66.800 240.140,66.800 240.800 C 66.800 241.460,66.620 242.000,66.400 242.000 C 66.180 242.000,66.000 242.529,66.000 243.176 C 66.000 243.823,65.820 244.464,65.600 244.600 C 65.380 244.736,65.200 245.377,65.200 246.024 C 65.200 246.671,65.020 247.200,64.800 247.200 C 64.580 247.200,64.400 247.740,64.400 248.400 C 64.400 249.060,64.220 249.600,64.000 249.600 C 63.780 249.600,63.600 250.219,63.600 250.976 C 63.600 251.733,63.420 252.464,63.200 252.600 C 62.980 252.736,62.800 253.377,62.800 254.024 C 62.800 254.671,62.620 255.200,62.400 255.200 C 62.180 255.200,62.000 255.729,62.000 256.376 C 62.000 257.023,61.820 257.664,61.600 257.800 C 61.380 257.936,61.200 258.566,61.200 259.200 C 61.200 259.834,61.020 260.464,60.800 260.600 C 60.580 260.736,60.400 261.199,60.400 261.629 C 60.400 262.059,60.228 262.723,60.018 263.105 C 59.535 263.986,58.400 268.768,58.400 269.926 C 58.400 270.407,58.220 270.800,58.000 270.800 C 57.780 270.800,57.600 271.340,57.600 272.000 C 57.600 272.660,57.420 273.200,57.200 273.200 C 56.980 273.200,56.800 273.830,56.800 274.600 C 56.800 275.370,56.620 276.000,56.400 276.000 C 56.180 276.000,56.000 276.540,56.000 277.200 C 56.000 277.860,55.820 278.400,55.600 278.400 C 55.380 278.400,55.200 279.030,55.200 279.800 C 55.200 280.570,55.020 281.200,54.800 281.200 C 54.580 281.200,54.400 281.830,54.400 282.600 C 54.400 283.370,54.220 284.000,54.000 284.000 C 53.780 284.000,53.600 284.540,53.600 285.200 C 53.600 285.860,53.420 286.400,53.200 286.400 C 52.980 286.400,52.800 287.019,52.800 287.776 C 52.800 288.533,52.620 289.264,52.400 289.400 C 52.180 289.536,52.000 290.177,52.000 290.824 C 52.000 291.471,51.820 292.000,51.600 292.000 C 51.380 292.000,51.200 292.540,51.200 293.200 C 51.200 293.860,51.020 294.400,50.800 294.400 C 50.580 294.400,50.400 295.030,50.400 295.800 C 50.400 296.570,50.220 297.200,50.000 297.200 C 49.780 297.200,49.600 297.740,49.600 298.400 C 49.600 299.060,49.420 299.600,49.200 299.600 C 48.980 299.600,48.800 300.129,48.800 300.776 C 48.800 301.423,48.620 302.064,48.400 302.200 C 48.180 302.336,48.000 303.067,48.000 303.824 C 48.000 304.581,47.820 305.200,47.600 305.200 C 47.380 305.200,47.200 305.740,47.200 306.400 C 47.200 307.060,47.020 307.600,46.800 307.600 C 46.580 307.600,46.400 308.129,46.400 308.776 C 46.400 309.423,46.220 310.064,46.000 310.200 C 45.780 310.336,45.600 310.966,45.600 311.600 C 45.600 312.234,45.420 312.864,45.200 313.000 C 44.980 313.136,44.800 313.676,44.800 314.200 C 44.800 314.724,44.620 315.264,44.400 315.400 C 44.180 315.536,44.000 316.166,44.000 316.800 C 44.000 317.434,43.820 318.064,43.600 318.200 C 43.380 318.336,43.200 318.889,43.200 319.429 C 43.200 319.969,43.027 320.723,42.816 321.105 C 42.431 321.803,41.716 324.674,41.323 327.100 C 41.207 327.815,40.952 328.400,40.756 328.400 C 40.560 328.400,40.400 328.929,40.400 329.576 C 40.400 330.223,40.220 330.864,40.000 331.000 C 39.780 331.136,39.600 331.867,39.600 332.624 C 39.600 333.381,39.420 334.000,39.200 334.000 C 38.980 334.000,38.800 334.540,38.800 335.200 C 38.800 335.860,38.620 336.400,38.400 336.400 C 38.180 336.400,38.000 336.929,38.000 337.576 C 38.000 338.223,37.820 338.864,37.600 339.000 C 37.380 339.136,37.200 339.867,37.200 340.624 C 37.200 341.381,37.020 342.000,36.800 342.000 C 36.580 342.000,36.400 342.439,36.400 342.976 C 36.400 343.513,36.220 344.064,36.000 344.200 C 35.780 344.336,35.600 344.966,35.600 345.600 C 35.600 346.234,35.420 346.864,35.200 347.000 C 34.980 347.136,34.800 347.777,34.800 348.424 C 34.800 349.071,34.620 349.600,34.400 349.600 C 34.180 349.600,34.000 350.140,34.000 350.800 C 34.000 351.460,33.820 352.000,33.600 352.000 C 33.380 352.000,33.200 352.720,33.200 353.600 C 33.200 354.480,33.020 355.200,32.800 355.200 C 32.580 355.200,32.400 355.740,32.400 356.400 C 32.400 357.060,32.220 357.600,32.000 357.600 C 31.780 357.600,31.600 358.140,31.600 358.800 C 31.600 359.460,31.420 360.000,31.200 360.000 C 30.980 360.000,30.800 360.630,30.800 361.400 C 30.800 362.170,30.620 362.800,30.400 362.800 C 30.180 362.800,30.000 363.340,30.000 364.000 C 30.000 364.660,29.840 365.200,29.644 365.200 C 29.448 365.200,29.173 365.875,29.032 366.700 C 28.410 370.351,28.293 370.800,27.956 370.800 C 27.760 370.800,27.600 371.329,27.600 371.976 C 27.600 372.623,27.420 373.264,27.200 373.400 C 26.980 373.536,26.800 374.089,26.800 374.629 C 26.800 375.169,26.640 375.923,26.443 376.305 C 25.791 377.577,24.800 381.453,24.800 382.735 C 24.800 383.431,24.620 384.000,24.400 384.000 C 24.180 384.000,24.000 384.540,24.000 385.200 C 24.000 385.860,23.820 386.400,23.600 386.400 C 23.380 386.400,23.200 386.940,23.200 387.600 C 23.200 388.260,23.020 388.800,22.800 388.800 C 22.580 388.800,22.400 389.520,22.400 390.400 C 22.400 391.280,22.220 392.000,22.000 392.000 C 21.780 392.000,21.600 392.450,21.600 393.000 C 21.600 393.550,21.420 394.000,21.200 394.000 C 20.980 394.000,20.800 394.630,20.800 395.400 C 20.800 396.170,20.620 396.800,20.400 396.800 C 20.180 396.800,20.000 397.520,20.000 398.400 L 20.000 400.000 69.900 399.997 L 119.800 399.994 120.300 398.917 C 120.575 398.325,120.800 397.336,120.800 396.720 C 120.800 396.104,120.980 395.600,121.200 395.600 C 121.420 395.600,121.600 394.880,121.600 394.000 C 121.600 393.120,121.780 392.400,122.000 392.400 C 122.220 392.400,122.400 391.781,122.400 391.024 C 122.400 390.267,122.580 389.536,122.800 389.400 C 123.020 389.264,123.200 388.544,123.200 387.800 C 123.200 387.056,123.380 386.336,123.600 386.200 C 123.820 386.064,124.000 385.344,124.000 384.600 C 124.000 383.856,124.166 383.145,124.369 383.019 C 124.571 382.894,124.862 381.623,125.015 380.196 C 125.168 378.768,125.452 377.600,125.647 377.600 C 125.841 377.600,126.000 376.880,126.000 376.000 C 126.000 375.120,126.180 374.400,126.400 374.400 C 126.620 374.400,126.800 373.770,126.800 373.000 C 126.800 372.230,126.980 371.600,127.200 371.600 C 127.420 371.600,127.600 370.880,127.600 370.000 C 127.600 369.120,127.780 368.400,128.000 368.400 C 128.220 368.400,128.400 367.680,128.400 366.800 C 128.400 365.920,128.580 365.200,128.800 365.200 C 129.020 365.200,129.200 364.480,129.200 363.600 C 129.200 362.720,129.380 362.000,129.600 362.000 C 129.820 362.000,130.000 361.280,130.000 360.400 C 130.000 359.520,130.180 358.800,130.400 358.800 C 130.620 358.800,130.800 358.271,130.800 357.624 C 130.800 356.977,130.980 356.336,131.200 356.200 C 131.420 356.064,131.600 355.333,131.600 354.576 C 131.600 353.819,131.780 353.200,132.000 353.200 C 132.220 353.200,132.400 352.570,132.400 351.800 C 132.400 351.030,132.580 350.400,132.800 350.400 C 133.020 350.400,133.200 349.680,133.200 348.800 C 133.200 347.920,133.380 347.200,133.600 347.200 C 133.820 347.200,134.000 346.480,134.000 345.600 C 134.000 344.720,134.180 344.000,134.400 344.000 C 134.620 344.000,134.800 343.381,134.800 342.624 C 134.800 341.867,134.980 341.136,135.200 341.000 C 135.420 340.864,135.600 340.133,135.600 339.376 C 135.600 338.619,135.780 338.000,136.000 338.000 C 136.220 338.000,136.400 337.280,136.400 336.400 C 136.400 335.520,136.580 334.800,136.800 334.800 C 137.020 334.800,137.200 334.260,137.200 333.600 L 137.200 332.400 200.400 332.400 C 263.333 332.400,263.600 332.403,263.600 333.200 C 263.600 333.640,263.780 334.000,264.000 334.000 C 264.220 334.000,264.400 334.720,264.400 335.600 C 264.400 336.480,264.580 337.200,264.800 337.200 C 265.020 337.200,265.200 337.830,265.200 338.600 C 265.200 339.370,265.380 340.000,265.600 340.000 C 265.820 340.000,266.000 340.529,266.000 341.176 C 266.000 341.823,266.180 342.464,266.400 342.600 C 266.620 342.736,266.800 343.467,266.800 344.224 C 266.800 344.981,266.980 345.600,267.200 345.600 C 267.420 345.600,267.600 346.320,267.600 347.200 C 267.600 348.080,267.780 348.800,268.000 348.800 C 268.220 348.800,268.400 349.430,268.400 350.200 C 268.400 350.970,268.580 351.600,268.800 351.600 C 269.020 351.600,269.200 352.230,269.200 353.000 C 269.200 353.770,269.380 354.400,269.600 354.400 C 269.820 354.400,270.000 355.030,270.000 355.800 C 270.000 356.570,270.180 357.200,270.400 357.200 C 270.620 357.200,270.800 357.920,270.800 358.800 C 270.800 359.680,270.980 360.400,271.200 360.400 C 271.420 360.400,271.600 360.940,271.600 361.600 C 271.600 362.260,271.780 362.800,272.000 362.800 C 272.220 362.800,272.400 363.520,272.400 364.400 C 272.400 365.280,272.580 366.000,272.800 366.000 C 273.020 366.000,273.200 366.619,273.200 367.376 C 273.200 368.133,273.380 368.864,273.600 369.000 C 273.820 369.136,274.000 369.777,274.000 370.424 C 274.000 371.071,274.140 371.600,274.311 371.600 C 274.582 371.600,275.082 373.874,275.874 378.700 C 275.992 379.415,276.248 380.000,276.444 380.000 C 276.640 380.000,276.800 380.619,276.800 381.376 C 276.800 382.133,276.980 382.864,277.200 383.000 C 277.420 383.136,277.600 383.856,277.600 384.600 C 277.600 385.344,277.780 386.064,278.000 386.200 C 278.220 386.336,278.400 386.977,278.400 387.624 C 278.400 388.271,278.580 388.800,278.800 388.800 C 279.020 388.800,279.200 389.430,279.200 390.200 C 279.200 390.970,279.380 391.600,279.600 391.600 C 279.820 391.600,280.000 392.320,280.000 393.200 C 280.000 394.080,280.180 394.800,280.400 394.800 C 280.620 394.800,280.800 395.329,280.800 395.976 C 280.800 396.623,280.980 397.264,281.200 397.400 C 281.420 397.536,281.600 398.177,281.600 398.824 L 281.600 400.000 330.800 400.000 L 380.000 400.000 380.000 398.600 C 380.000 397.830,379.820 397.200,379.600 397.200 C 379.380 397.200,379.200 396.570,379.200 395.800 C 379.200 395.030,379.020 394.400,378.800 394.400 C 378.580 394.400,378.400 393.860,378.400 393.200 C 378.400 392.540,378.220 392.000,378.000 392.000 C 377.780 392.000,377.600 391.460,377.600 390.800 C 377.600 390.140,377.420 389.600,377.200 389.600 C 376.980 389.600,376.800 389.060,376.800 388.400 C 376.800 387.740,376.620 387.200,376.400 387.200 C 376.180 387.200,376.000 386.660,376.000 386.000 C 376.000 385.340,375.845 384.800,375.655 384.800 C 375.465 384.800,375.195 383.855,375.053 382.700 C 374.796 380.596,373.988 377.855,373.474 377.341 C 373.323 377.190,373.200 376.557,373.200 375.933 C 373.200 375.310,373.020 374.800,372.800 374.800 C 372.580 374.800,372.400 374.260,372.400 373.600 C 372.400 372.940,372.220 372.400,372.000 372.400 C 371.780 372.400,371.600 371.871,371.600 371.224 C 371.600 370.577,371.420 369.936,371.200 369.800 C 370.980 369.664,370.800 369.034,370.800 368.400 C 370.800 367.766,370.620 367.136,370.400 367.000 C 370.180 366.864,370.000 366.324,370.000 365.800 C 370.000 365.276,369.820 364.736,369.600 364.600 C 369.380 364.464,369.200 363.924,369.200 363.400 C 369.200 362.876,369.020 362.336,368.800 362.200 C 368.580 362.064,368.400 361.524,368.400 361.000 C 368.400 360.476,368.220 359.936,368.000 359.800 C 367.780 359.664,367.600 359.113,367.600 358.576 C 367.600 358.039,367.440 357.600,367.244 357.600 C 367.048 357.600,366.778 356.970,366.644 356.200 C 366.510 355.430,366.290 354.170,366.156 353.400 C 366.022 352.630,365.752 352.000,365.556 352.000 C 365.360 352.000,365.200 351.460,365.200 350.800 C 365.200 350.140,365.020 349.600,364.800 349.600 C 364.580 349.600,364.400 349.060,364.400 348.400 C 364.400 347.740,364.220 347.200,364.000 347.200 C 363.780 347.200,363.600 346.660,363.600 346.000 C 363.600 345.340,363.420 344.800,363.200 344.800 C 362.980 344.800,362.800 344.260,362.800 343.600 C 362.800 342.940,362.620 342.400,362.400 342.400 C 362.180 342.400,362.000 341.770,362.000 341.000 C 362.000 340.230,361.820 339.600,361.600 339.600 C 361.380 339.600,361.200 339.060,361.200 338.400 C 361.200 337.740,361.020 337.200,360.800 337.200 C 360.580 337.200,360.400 336.660,360.400 336.000 C 360.400 335.340,360.220 334.800,360.000 334.800 C 359.780 334.800,359.600 334.260,359.600 333.600 C 359.600 332.940,359.444 332.400,359.254 332.400 C 359.064 332.400,358.795 331.571,358.656 330.558 C 358.405 328.725,357.028 324.029,356.354 322.705 C 356.159 322.323,356.000 321.558,356.000 321.005 C 356.000 320.452,355.820 320.000,355.600 320.000 C 355.380 320.000,355.200 319.460,355.200 318.800 C 355.200 318.140,355.020 317.600,354.800 317.600 C 354.580 317.600,354.400 317.060,354.400 316.400 C 354.400 315.740,354.220 315.200,354.000 315.200 C 353.780 315.200,353.600 314.671,353.600 314.024 C 353.600 313.377,353.420 312.736,353.200 312.600 C 352.980 312.464,352.800 311.823,352.800 311.176 C 352.800 310.529,352.620 310.000,352.400 310.000 C 352.180 310.000,352.000 309.460,352.000 308.800 C 352.000 308.140,351.820 307.600,351.600 307.600 C 351.380 307.600,351.200 307.060,351.200 306.400 C 351.200 305.740,351.020 305.200,350.800 305.200 C 350.580 305.200,350.400 304.660,350.400 304.000 C 350.400 303.340,350.220 302.800,350.000 302.800 C 349.780 302.800,349.600 302.271,349.600 301.624 C 349.600 300.977,349.420 300.336,349.200 300.200 C 348.980 300.064,348.800 299.423,348.800 298.776 C 348.800 298.129,348.620 297.600,348.400 297.600 C 348.180 297.600,348.000 297.071,348.000 296.424 C 348.000 295.777,347.820 295.136,347.600 295.000 C 347.380 294.864,347.200 294.313,347.200 293.776 C 347.200 293.239,347.020 292.800,346.800 292.800 C 346.580 292.800,346.400 292.260,346.400 291.600 C 346.400 290.940,346.220 290.400,346.000 290.400 C 345.780 290.400,345.600 289.860,345.600 289.200 C 345.600 288.540,345.420 288.000,345.200 288.000 C 344.980 288.000,344.800 287.471,344.800 286.824 C 344.800 286.177,344.620 285.536,344.400 285.400 C 344.180 285.264,344.000 284.533,344.000 283.776 C 344.000 283.019,343.820 282.400,343.600 282.400 C 343.380 282.400,343.200 281.860,343.200 281.200 C 343.200 280.540,343.020 280.000,342.800 280.000 C 342.580 280.000,342.400 279.460,342.400 278.800 C 342.400 278.140,342.233 277.600,342.029 277.600 C 341.825 277.600,341.534 276.610,341.383 275.400 C 341.232 274.190,340.949 273.200,340.754 273.200 C 340.559 273.200,340.400 272.808,340.400 272.328 C 340.400 271.408,339.740 269.072,339.151 267.905 C 338.958 267.523,338.800 266.859,338.800 266.429 C 338.800 265.999,338.620 265.536,338.400 265.400 C 338.180 265.264,338.000 264.724,338.000 264.200 C 338.000 263.676,337.820 263.136,337.600 263.000 C 337.380 262.864,337.200 262.324,337.200 261.800 C 337.200 261.276,337.020 260.736,336.800 260.600 C 336.580 260.464,336.400 259.924,336.400 259.400 C 336.400 258.876,336.220 258.336,336.000 258.200 C 335.780 258.064,335.600 257.434,335.600 256.800 C 335.600 256.166,335.420 255.536,335.200 255.400 C 334.980 255.264,334.800 254.623,334.800 253.976 C 334.800 253.329,334.620 252.800,334.400 252.800 C 334.180 252.800,334.000 252.260,334.000 251.600 C 334.000 250.940,333.820 250.400,333.600 250.400 C 333.380 250.400,333.200 249.860,333.200 249.200 C 333.200 248.540,333.020 248.000,332.800 248.000 C 332.580 248.000,332.400 247.460,332.400 246.800 C 332.400 246.140,332.220 245.600,332.000 245.600 C 331.780 245.600,331.600 244.970,331.600 244.200 C 331.600 243.430,331.420 242.800,331.200 242.800 C 330.980 242.800,330.800 242.260,330.800 241.600 C 330.800 240.940,330.620 240.400,330.400 240.400 C 330.180 240.400,330.000 239.860,330.000 239.200 C 330.000 238.540,329.820 238.000,329.600 238.000 C 329.380 238.000,329.200 237.460,329.200 236.800 C 329.200 236.140,329.020 235.600,328.800 235.600 C 328.580 235.600,328.400 235.060,328.400 234.400 C 328.400 233.740,328.220 233.200,328.000 233.200 C 327.780 233.200,327.600 232.570,327.600 231.800 C 327.600 231.030,327.420 230.400,327.200 230.400 C 326.980 230.400,326.800 229.860,326.800 229.200 C 326.800 228.540,326.620 228.000,326.400 228.000 C 326.180 228.000,326.000 227.460,326.000 226.800 C 326.000 226.140,325.841 225.600,325.646 225.600 C 325.451 225.600,325.169 224.613,325.018 223.406 C 324.867 222.200,324.577 221.109,324.372 220.983 C 324.167 220.856,324.000 220.223,324.000 219.576 C 324.000 218.929,323.820 218.400,323.600 218.400 C 323.380 218.400,323.200 217.948,323.200 217.395 C 323.200 216.842,323.038 216.077,322.839 215.695 C 322.640 215.313,322.263 214.190,322.000 213.200 C 321.737 212.210,321.360 211.087,321.161 210.705 C 320.962 210.323,320.800 209.648,320.800 209.205 C 320.800 208.762,320.620 208.400,320.400 208.400 C 320.180 208.400,320.000 207.860,320.000 207.200 C 320.000 206.540,319.820 206.000,319.600 206.000 C 319.380 206.000,319.200 205.471,319.200 204.824 C 319.200 204.177,319.020 203.536,318.800 203.400 C 318.580 203.264,318.400 202.634,318.400 202.000 C 318.400 201.366,318.220 200.736,318.000 200.600 C 317.780 200.464,317.600 199.924,317.600 199.400 C 317.600 198.876,317.420 198.336,317.200 198.200 C 316.980 198.064,316.800 197.423,316.800 196.776 C 316.800 196.129,316.620 195.600,316.400 195.600 C 316.180 195.600,316.000 195.161,316.000 194.624 C 316.000 194.087,315.820 193.536,315.600 193.400 C 315.380 193.264,315.200 192.713,315.200 192.176 C 315.200 191.639,315.020 191.200,314.800 191.200 C 314.580 191.200,314.400 190.581,314.400 189.824 C 314.400 189.067,314.220 188.336,314.000 188.200 C 313.780 188.064,313.600 187.423,313.600 186.776 C 313.600 186.129,313.420 185.600,313.200 185.600 C 312.980 185.600,312.800 185.060,312.800 184.400 C 312.800 183.740,312.620 183.200,312.400 183.200 C 312.180 183.200,312.000 182.660,312.000 182.000 C 312.000 181.340,311.820 180.800,311.600 180.800 C 311.380 180.800,311.200 180.260,311.200 179.600 C 311.200 178.940,311.020 178.400,310.800 178.400 C 310.580 178.400,310.400 177.860,310.400 177.200 C 310.400 176.540,310.220 176.000,310.000 176.000 C 309.780 176.000,309.600 175.471,309.600 174.824 C 309.600 174.177,309.420 173.536,309.200 173.400 C 308.980 173.264,308.800 172.734,308.800 172.222 C 308.800 171.217,307.754 167.435,307.163 166.305 C 306.963 165.923,306.800 165.259,306.800 164.829 C 306.800 164.399,306.620 163.936,306.400 163.800 C 306.180 163.664,306.000 163.124,306.000 162.600 C 306.000 162.076,305.820 161.536,305.600 161.400 C 305.380 161.264,305.200 160.634,305.200 160.000 C 305.200 159.366,305.020 158.736,304.800 158.600 C 304.580 158.464,304.400 157.823,304.400 157.176 C 304.400 156.529,304.220 156.000,304.000 156.000 C 303.780 156.000,303.600 155.460,303.600 154.800 C 303.600 154.140,303.420 153.600,303.200 153.600 C 302.980 153.600,302.800 153.060,302.800 152.400 C 302.800 151.740,302.620 151.200,302.400 151.200 C 302.180 151.200,302.000 150.660,302.000 150.000 C 302.000 149.340,301.820 148.800,301.600 148.800 C 301.380 148.800,301.200 148.271,301.200 147.624 C 301.200 146.977,301.020 146.336,300.800 146.200 C 300.580 146.064,300.400 145.423,300.400 144.776 C 300.400 144.129,300.220 143.600,300.000 143.600 C 299.780 143.600,299.600 143.060,299.600 142.400 C 299.600 141.740,299.420 141.200,299.200 141.200 C 298.980 141.200,298.800 140.660,298.800 140.000 C 298.800 139.340,298.620 138.800,298.400 138.800 C 298.180 138.800,298.000 138.260,298.000 137.600 C 298.000 136.940,297.820 136.400,297.600 136.400 C 297.380 136.400,297.200 135.860,297.200 135.200 C 297.200 134.540,297.020 134.000,296.800 134.000 C 296.580 134.000,296.400 133.381,296.400 132.624 C 296.400 131.867,296.220 131.136,296.000 131.000 C 295.780 130.864,295.600 130.223,295.600 129.576 C 295.600 128.929,295.420 128.400,295.200 128.400 C 294.980 128.400,294.800 127.961,294.800 127.424 C 294.800 126.887,294.620 126.336,294.400 126.200 C 294.180 126.064,294.000 125.513,294.000 124.976 C 294.000 124.439,293.820 124.000,293.600 124.000 C 293.380 124.000,293.200 123.460,293.200 122.800 C 293.200 122.140,293.020 121.600,292.800 121.600 C 292.580 121.600,292.400 120.981,292.400 120.224 C 292.400 119.467,292.220 118.736,292.000 118.600 C 291.780 118.464,291.600 117.934,291.600 117.422 C 291.600 116.417,290.554 112.635,289.963 111.505 C 289.763 111.123,289.600 110.448,289.600 110.005 C 289.600 109.562,289.420 109.200,289.200 109.200 C 288.980 109.200,288.800 108.748,288.800 108.195 C 288.800 107.642,288.638 106.877,288.439 106.495 C 288.240 106.113,287.863 104.990,287.600 104.000 C 287.337 103.010,286.960 101.887,286.761 101.505 C 286.562 101.123,286.400 100.358,286.400 99.805 C 286.400 99.252,286.220 98.800,286.000 98.800 C 285.780 98.800,285.600 98.260,285.600 97.600 C 285.600 96.940,285.420 96.400,285.200 96.400 C 284.980 96.400,284.800 95.860,284.800 95.200 C 284.800 94.540,284.620 94.000,284.400 94.000 C 284.180 94.000,284.000 93.471,284.000 92.824 C 284.000 92.177,283.820 91.536,283.600 91.400 C 283.380 91.264,283.200 90.623,283.200 89.976 C 283.200 89.329,283.020 88.800,282.800 88.800 C 282.580 88.800,282.400 88.260,282.400 87.600 C 282.400 86.940,282.220 86.400,282.000 86.400 C 281.780 86.400,281.600 85.860,281.600 85.200 C 281.600 84.540,281.420 84.000,281.200 84.000 C 280.980 84.000,280.800 83.460,280.800 82.800 C 280.800 82.140,280.620 81.600,280.400 81.600 C 280.180 81.600,280.000 81.071,280.000 80.424 C 280.000 79.777,279.820 79.136,279.600 79.000 C 279.380 78.864,279.200 78.223,279.200 77.576 C 279.200 76.929,279.020 76.400,278.800 76.400 C 278.580 76.400,278.400 75.860,278.400 75.200 C 278.400 74.540,278.220 74.000,278.000 74.000 C 277.780 74.000,277.600 73.460,277.600 72.800 C 277.600 72.140,277.420 71.600,277.200 71.600 C 276.980 71.600,276.800 71.060,276.800 70.400 C 276.800 69.740,276.620 69.200,276.400 69.200 C 276.180 69.200,276.000 68.660,276.000 68.000 C 276.000 67.340,275.844 66.800,275.654 66.800 C 275.464 66.800,275.193 65.953,275.051 64.919 C 274.783 62.966,274.157 60.704,273.551 59.505 C 273.358 59.123,273.200 58.358,273.200 57.805 C 273.200 57.252,273.020 56.800,272.800 56.800 C 272.580 56.800,272.400 56.260,272.400 55.600 C 272.400 54.940,272.220 54.400,272.000 54.400 C 271.780 54.400,271.600 53.860,271.600 53.200 C 271.600 52.540,271.420 52.000,271.200 52.000 C 270.980 52.000,270.800 51.471,270.800 50.824 C 270.800 50.177,270.620 49.536,270.400 49.400 C 270.180 49.264,270.000 48.634,270.000 48.000 C 270.000 47.366,269.820 46.736,269.600 46.600 C 269.380 46.464,269.200 45.924,269.200 45.400 C 269.200 44.876,269.020 44.336,268.800 44.200 C 268.580 44.064,268.400 43.513,268.400 42.976 C 268.400 42.439,268.220 42.000,268.000 42.000 C 267.780 42.000,267.600 41.460,267.600 40.800 C 267.600 40.140,267.420 39.600,267.200 39.600 C 266.980 39.600,266.800 39.060,266.800 38.400 C 266.800 37.740,266.620 37.200,266.400 37.200 C 266.180 37.200,266.000 36.581,266.000 35.824 C 266.000 35.067,265.820 34.336,265.600 34.200 C 265.380 34.064,265.200 33.423,265.200 32.776 C 265.200 32.129,265.020 31.600,264.800 31.600 C 264.580 31.600,264.400 31.060,264.400 30.400 C 264.400 29.740,264.220 29.200,264.000 29.200 C 263.780 29.200,263.600 28.660,263.600 28.000 C 263.600 27.340,263.420 26.800,263.200 26.800 C 262.980 26.800,262.800 26.350,262.800 25.800 C 262.800 25.250,262.620 24.800,262.400 24.800 C 262.180 24.800,262.000 24.271,262.000 23.624 C 262.000 22.977,261.820 22.336,261.600 22.200 C 261.380 22.064,261.200 21.333,261.200 20.576 C 261.200 19.819,261.020 19.200,260.800 19.200 C 260.580 19.200,260.400 18.660,260.400 18.000 C 260.400 17.340,260.220 16.800,260.000 16.800 C 259.780 16.800,259.600 16.260,259.600 15.600 C 259.600 14.940,259.443 14.400,259.252 14.400 C 259.060 14.400,258.782 13.484,258.633 12.365 C 258.485 11.246,258.210 10.031,258.023 9.665 C 257.835 9.299,257.285 7.650,256.800 6.000 C 256.315 4.350,255.756 2.687,255.559 2.305 C 255.362 1.923,255.200 1.248,255.200 0.805 C 255.200 0.177,254.936 0.000,254.000 0.000 L 252.800 0.000 252.800 91.600 L 252.800 183.200 234.400 183.200 L 216.000 183.200 216.000 91.600 L 216.000 0.000 195.000 0.000 L 174.000 0.000 174.000 91.600 L 174.000 183.200 157.200 183.200 L 140.400 183.200 140.400 91.600 C 140.400 -8.137,140.558 -0.565,138.500 0.265 M248.634 193.700 C 248.505 193.975,248.289 194.515,248.154 194.900 C 248.018 195.285,247.748 195.600,247.553 195.600 C 247.359 195.600,247.200 195.960,247.200 196.400 C 247.200 196.840,247.055 197.200,246.879 197.200 C 246.702 197.200,246.117 198.097,245.579 199.194 C 245.040 200.290,244.465 201.190,244.300 201.194 C 244.135 201.197,244.000 201.560,244.000 202.000 C 244.000 202.440,243.852 202.800,243.670 202.800 C 243.356 202.800,241.200 207.108,241.200 207.735 C 241.200 207.899,240.840 208.420,240.400 208.892 C 239.960 209.364,239.376 210.256,239.103 210.875 C 238.829 211.494,238.469 212.000,238.302 212.000 C 238.136 212.000,238.000 212.360,238.000 212.800 C 238.000 213.240,237.820 213.600,237.600 213.600 C 237.380 213.600,237.200 213.920,237.200 214.312 C 237.200 214.703,236.840 215.283,236.400 215.600 C 235.960 215.917,235.600 216.497,235.600 216.888 C 235.600 217.280,235.420 217.600,235.200 217.600 C 234.980 217.600,234.800 217.960,234.800 218.400 C 234.800 218.840,234.620 219.200,234.400 219.200 C 234.180 219.200,234.000 219.478,234.000 219.817 C 234.000 220.156,233.640 220.820,233.200 221.292 C 232.760 221.764,232.400 222.387,232.400 222.675 C 232.400 222.964,232.220 223.200,232.000 223.200 C 231.780 223.200,231.600 223.560,231.600 224.000 C 231.600 224.440,231.420 224.800,231.200 224.800 C 230.980 224.800,230.800 224.993,230.800 225.228 C 230.800 225.463,230.289 226.408,229.665 227.328 C 229.041 228.248,228.277 229.585,227.968 230.300 C 227.658 231.015,227.269 231.600,227.102 231.600 C 226.936 231.600,226.800 231.960,226.800 232.400 C 226.800 232.840,226.642 233.200,226.449 233.200 C 226.255 233.200,225.873 233.740,225.600 234.400 L 225.103 235.600 196.523 235.600 C 166.260 235.600,166.800 235.632,166.800 233.829 C 166.800 233.483,166.620 233.200,166.400 233.200 C 166.180 233.200,166.000 232.840,166.000 232.400 C 166.000 231.960,165.841 231.600,165.647 231.600 C 165.452 231.600,165.193 231.285,165.071 230.900 C 164.854 230.213,163.595 227.994,163.199 227.600 C 163.089 227.490,162.729 226.860,162.399 226.200 C 162.070 225.540,161.485 224.651,161.100 224.225 C 160.715 223.798,160.400 223.213,160.400 222.925 C 160.400 222.636,160.220 222.400,160.000 222.400 C 159.780 222.400,159.600 222.040,159.600 221.600 C 159.600 221.160,159.420 220.800,159.200 220.800 C 158.980 220.800,158.800 220.513,158.800 220.162 C 158.800 219.592,157.717 217.317,157.200 216.800 C 157.090 216.690,156.626 215.880,156.170 215.000 C 155.007 212.758,154.239 211.434,153.968 211.200 C 153.840 211.090,153.481 210.415,153.170 209.700 C 152.859 208.985,152.469 208.400,152.302 208.400 C 152.136 208.400,152.000 208.080,152.000 207.688 C 152.000 207.297,151.640 206.717,151.200 206.400 C 150.760 206.083,150.400 205.503,150.400 205.112 C 150.400 204.720,150.220 204.400,150.000 204.400 C 149.780 204.400,149.600 204.040,149.600 203.600 C 149.600 203.160,149.420 202.800,149.200 202.800 C 148.980 202.800,148.800 202.522,148.800 202.183 C 148.800 201.844,148.440 201.180,148.000 200.708 C 147.560 200.236,147.200 199.613,147.200 199.325 C 147.200 199.036,147.020 198.800,146.800 198.800 C 146.580 198.800,146.400 198.440,146.400 198.000 C 146.400 197.560,146.220 197.200,146.000 197.200 C 145.780 197.200,145.600 196.840,145.600 196.400 C 145.600 195.960,145.420 195.600,145.200 195.600 C 144.980 195.600,144.800 195.330,144.800 195.000 C 144.800 194.670,144.620 194.400,144.400 194.400 C 144.180 194.400,144.000 194.130,144.000 193.800 C 144.000 193.270,150.093 193.200,196.433 193.200 C 238.238 193.200,248.819 193.301,248.634 193.700 M218.600 245.459 C 219.154 245.897,219.246 246.149,218.900 246.279 C 218.625 246.382,218.400 246.812,218.400 247.233 C 218.400 247.655,218.220 248.000,218.000 248.000 C 217.780 248.000,217.600 248.236,217.600 248.525 C 217.600 248.813,217.240 249.436,216.800 249.908 C 216.360 250.380,216.000 251.044,216.000 251.383 C 216.000 251.722,215.820 252.000,215.600 252.000 C 215.380 252.000,215.200 252.360,215.200 252.800 C 215.200 253.240,215.020 253.600,214.800 253.600 C 214.580 253.600,214.400 253.878,214.400 254.217 C 214.400 254.556,214.040 255.220,213.600 255.692 C 213.160 256.164,212.800 256.787,212.800 257.075 C 212.800 257.364,212.664 257.600,212.498 257.600 C 212.331 257.600,211.951 258.152,211.652 258.827 C 211.353 259.502,210.499 261.067,209.754 262.304 C 209.009 263.541,208.400 264.839,208.400 265.188 C 208.400 265.538,208.040 266.083,207.600 266.400 C 207.160 266.717,206.800 267.297,206.800 267.688 C 206.800 268.080,206.620 268.400,206.400 268.400 C 206.180 268.400,206.000 268.760,206.000 269.200 C 206.000 269.640,205.820 270.000,205.600 270.000 C 205.380 270.000,205.200 270.320,205.200 270.712 C 205.200 271.103,204.840 271.683,204.400 272.000 C 203.960 272.317,203.600 272.897,203.600 273.288 C 203.600 273.680,203.420 274.000,203.200 274.000 C 202.980 274.000,202.800 274.360,202.800 274.800 C 202.800 275.240,202.620 275.600,202.400 275.600 C 202.180 275.600,202.000 275.870,202.000 276.200 C 202.000 276.530,201.820 276.800,201.600 276.800 C 201.380 276.800,201.200 277.070,201.200 277.400 C 201.200 277.730,201.020 278.000,200.800 278.000 C 200.580 278.000,200.400 278.270,200.400 278.600 C 200.400 278.930,200.220 279.200,200.000 279.200 C 199.780 279.200,199.600 279.560,199.600 280.000 C 199.600 280.440,199.420 280.800,199.200 280.800 C 198.980 280.800,198.800 281.160,198.800 281.600 C 198.800 282.040,198.650 282.400,198.468 282.400 C 198.285 282.400,197.880 282.895,197.568 283.500 C 196.611 285.356,194.800 285.040,194.800 283.017 C 194.800 282.678,194.620 282.400,194.400 282.400 C 194.180 282.400,194.000 282.040,194.000 281.600 C 194.000 281.160,193.820 280.800,193.600 280.800 C 193.380 280.800,193.200 280.564,193.200 280.275 C 193.200 279.987,192.840 279.364,192.400 278.892 C 191.960 278.420,191.600 277.833,191.600 277.588 C 191.600 277.029,189.540 273.447,189.115 273.267 C 188.942 273.193,188.800 272.788,188.800 272.367 C 188.800 271.945,188.620 271.600,188.400 271.600 C 188.180 271.600,188.000 271.240,188.000 270.800 C 188.000 270.360,187.842 270.000,187.649 270.000 C 187.455 270.000,187.073 269.460,186.800 268.800 C 186.527 268.140,186.145 267.600,185.951 267.600 C 185.758 267.600,185.600 267.240,185.600 266.800 C 185.600 266.360,185.420 266.000,185.200 266.000 C 184.980 266.000,184.800 265.640,184.800 265.200 C 184.800 264.760,184.620 264.400,184.400 264.400 C 184.180 264.400,184.000 264.130,184.000 263.800 C 184.000 263.470,183.820 263.200,183.600 263.200 C 183.380 263.200,183.200 262.930,183.200 262.600 C 183.200 262.270,183.020 262.000,182.800 262.000 C 182.580 262.000,182.400 261.640,182.400 261.200 C 182.400 260.760,182.220 260.400,182.000 260.400 C 181.780 260.400,181.600 260.130,181.600 259.800 C 181.600 259.470,181.420 259.200,181.200 259.200 C 180.980 259.200,180.800 258.880,180.800 258.488 C 180.800 258.097,180.440 257.517,180.000 257.200 C 179.560 256.883,179.200 256.303,179.200 255.912 C 179.200 255.520,179.020 255.200,178.800 255.200 C 178.580 255.200,178.400 254.840,178.400 254.400 C 178.400 253.960,178.220 253.600,178.000 253.600 C 177.780 253.600,177.600 253.280,177.600 252.888 C 177.600 252.497,177.240 251.917,176.800 251.600 C 176.360 251.283,176.000 250.703,176.000 250.312 C 176.000 249.920,175.820 249.600,175.600 249.600 C 175.380 249.600,175.199 249.285,175.197 248.900 C 175.196 248.515,174.847 247.672,174.421 247.027 C 172.959 244.809,172.790 244.825,196.400 244.825 C 215.317 244.825,217.893 244.899,218.600 245.459 " stroke="none" fill="#04d4b4" fill-rule="evenodd"></path><path id="path1" d="" stroke="none" fill="#08d4b4" fill-rule="evenodd"></path><path id="path2" d="" stroke="none" fill="#08d4b4" fill-rule="evenodd"></path><path id="path3" d="" stroke="none" fill="#08d4b4" fill-rule="evenodd"></path><path id="path4" d="" stroke="none" fill="#08d4b4" fill-rule="evenodd"></path></g></svg>